<svg width="36" height="22" viewBox="0 0 36 22" fill="none" xmlns="http://www.w3.org/2000/svg">
<path fill-rule="evenodd" clip-rule="evenodd" d="M11.6801 11.3019V10.9445L11.5102 11.3019H10.0378L9.85287 10.9184V11.3019H7.10092L6.77591 10.528H6.2244L5.88004 11.3019H4.45312V8.96576L5.49909 6.58595H7.50187L7.78303 7.26034V6.59098H10.2322L10.771 7.72625L11.298 6.58595H19.03C19.03 6.58595 19.4353 6.58044 19.7023 6.76914L19.7005 6.58595H21.6485V6.84371C21.6485 6.84371 21.999 6.58595 22.5168 6.58595C23.0345 6.58595 25.9542 6.58595 25.9542 6.58595L26.256 7.27023V6.58595H28.4586L28.8584 7.27023V6.58595H30.9642V11.3065H28.8008L28.2925 10.4834V11.3019H25.6038L25.2255 10.459H24.6984L24.344 11.3019H22.7167C22.7167 11.3019 22.1097 11.2942 21.6546 10.9669C21.6546 11.1384 21.6546 11.3019 21.6546 11.3019H18.4148C18.4148 11.3019 18.4148 10.3611 18.4148 10.2007C18.4148 10.0409 18.2931 10.0521 18.2931 10.0521H18.1746V11.3019H11.6801Z" fill="#111017"/>
<path fill-rule="evenodd" clip-rule="evenodd" d="M10.0625 12.3242H14.3194L14.9341 13.0236L15.5625 12.3242H18.8355C18.8355 12.3242 19.1428 12.332 19.4346 12.4884V12.3242C19.4346 12.3242 21.98 12.3242 22.3494 12.3242C22.7192 12.3242 23.0298 12.5102 23.0298 12.5102V12.3242H26.7763V12.4957C26.7763 12.4957 27.0431 12.3242 27.402 12.3242C27.7602 12.3242 29.8426 12.3242 29.8426 12.3242V12.4957C29.8426 12.4957 30.1501 12.3242 30.4751 12.3242C30.8006 12.3242 32.3915 12.3242 32.3915 12.3242V16.7724C32.3915 16.7724 32.1395 17.0592 31.6184 17.0592H29.0919V16.9178C29.0919 16.9178 28.8517 17.0592 28.4851 17.0592C28.1191 17.0592 21.7735 17.0592 21.7735 17.0592C21.7735 17.0592 21.7735 16.0236 21.7735 15.9095C21.7735 15.7963 21.7248 15.7757 21.6245 15.7757H21.532V17.0592H19.4346V15.7835C19.4346 15.7835 19.2021 15.9095 18.8134 15.9095C18.4252 15.9095 18.0593 15.9095 18.0593 15.9095V17.0592H15.474L14.8859 16.3376L14.2568 17.0592H10.0625V12.3242Z" fill="#111017"/>
<path fill-rule="evenodd" clip-rule="evenodd" d="M23.4766 13.0332H26.1482V13.7538H24.2944V14.3818H26.0961V15.0165H24.2944V15.6774H26.1482V16.3802H23.4766V13.0332Z" fill="#111017"/>
<path fill-rule="evenodd" clip-rule="evenodd" d="M31.3049 14.3373C32.3088 14.3891 32.393 14.8935 32.393 15.4314C32.393 16.0584 31.8801 16.3951 31.3454 16.3951H29.6288V15.6774H30.9661C31.193 15.6774 31.5308 15.6774 31.5308 15.3561C31.5308 15.2036 31.4716 15.1062 31.2301 15.0805C31.1228 15.065 30.7257 15.0428 30.6654 15.0416C29.7584 15.0176 29.5469 14.5639 29.5469 14.0116C29.5469 13.384 29.9854 13.041 30.5208 13.041H32.2368V13.7582H30.981C30.6952 13.761 30.3868 13.7243 30.3868 14.0489C30.3868 14.2543 30.5392 14.2956 30.7323 14.3144C30.7994 14.3144 31.2451 14.3379 31.3049 14.3373Z" fill="#111017"/>
<path fill-rule="evenodd" clip-rule="evenodd" d="M28.233 14.3373C29.2374 14.3891 29.3215 14.8935 29.3215 15.4314C29.3215 16.0584 28.8093 16.3951 28.274 16.3951H26.558V15.6774H27.8953C28.1216 15.6774 28.46 15.6774 28.46 15.3561C28.46 15.2036 28.4002 15.1062 28.1587 15.0805C28.0513 15.065 27.6538 15.0428 27.5946 15.0416C26.6865 15.0176 26.4766 14.5639 26.4766 14.0116C26.4766 13.384 26.9146 13.041 27.4495 13.041H29.1655V13.7582H27.9101C27.6239 13.761 27.3155 13.7243 27.3155 14.0489C27.3155 14.2543 27.4684 14.2956 27.6615 14.3144C27.7279 14.3144 28.1737 14.3379 28.233 14.3373Z" fill="#111017"/>
<path fill-rule="evenodd" clip-rule="evenodd" d="M18.2638 14.5632H17.2461V13.7598H18.2672C18.6093 13.7598 18.7173 13.9802 18.7173 14.1445C18.7173 14.3688 18.5984 14.5632 18.2638 14.5632ZM16.4238 16.0657L15.25 14.6686L16.4238 13.3613V16.0657ZM13.2983 15.6775H11.4141V15.0166H13.2163V14.3819H11.4141V13.7539L13.4012 13.7583L14.197 14.6692L13.2983 15.6775ZM18.5402 13.0405H15.6725L14.7362 14.0788L13.8303 13.0332H10.6094V16.3802H13.7257L14.7068 15.2744L15.6648 16.3879H17.2329V15.2515H18.3321C18.7556 15.2515 19.5286 15.237 19.5286 14.0639C19.5286 13.2271 18.9416 13.0405 18.5402 13.0405Z" fill="#111017"/>
<path fill-rule="evenodd" clip-rule="evenodd" d="M21.7873 14.516H20.7695V13.7578H21.7905C22.1321 13.7578 22.2401 13.9783 22.2401 14.1425C22.2401 14.3664 22.1216 14.516 21.7873 14.516ZM22.4936 14.8635C22.94 14.6396 23.0585 14.3407 23.0585 13.937C23.0585 13.2203 22.4792 13.041 22.0778 13.041H19.9531V16.388H20.7705V15.207H21.8403C22.1226 15.207 22.234 15.491 22.2411 15.7749L22.2627 16.388H23.0585L23.0285 15.7003C23.0285 15.1619 22.8806 14.9081 22.4936 14.8635Z" fill="#111017"/>
<path fill-rule="evenodd" clip-rule="evenodd" d="M20.2812 10.6067H21.0986V7.25586H20.2812V10.6067Z" fill="#111017"/>
<path fill-rule="evenodd" clip-rule="evenodd" d="M13.5938 7.25977H16.2643V7.98019H14.411V8.60821H16.2122V9.24304H14.411V9.90381H16.2643V10.6066H13.5938V7.25977Z" fill="#111017"/>
<path fill-rule="evenodd" clip-rule="evenodd" d="M18.5842 8.73492H17.5664V7.97656H18.588C18.9292 7.97656 19.0377 8.19703 19.0377 8.36125C19.0377 8.58562 18.9185 8.73492 18.5842 8.73492ZM19.2909 9.08206C19.7372 8.85884 19.8557 8.55925 19.8557 8.1556C19.8557 7.43841 19.2759 7.25977 18.8751 7.25977H16.75V10.6066H17.5672V9.42623H18.637C18.9193 9.42623 19.0312 9.7096 19.0385 9.99346L19.0605 10.6066H19.8557L19.8263 9.91889C19.8263 9.381 19.6773 9.12713 19.2909 9.08206Z" fill="#111017"/>
<path fill-rule="evenodd" clip-rule="evenodd" d="M5.94141 9.1366L6.42876 7.9668L6.93659 9.1366H5.94141ZM11.7006 7.25977L10.6978 9.50469L9.69842 7.25977H8.41709V10.4829L6.99081 7.25977H5.90938L4.45312 10.6066H5.3153L5.63419 9.85939H7.26536L7.58876 10.6066H9.2338V8.1222L10.3264 10.6066H11.0694L12.1873 8.16338V10.6066H13.0046V7.25977H11.7006Z" fill="#111017"/>
<path fill-rule="evenodd" clip-rule="evenodd" d="M24.5078 9.1405L24.9945 7.9707L25.5072 9.1405H24.5078ZM29.5284 7.25977V9.57715L28.1503 7.25977H26.9427V10.403L25.5506 7.26155H24.4692L23.3435 9.85388C23.3435 9.85388 22.868 9.85388 22.8198 9.84221C22.6231 9.80152 22.3153 9.66178 22.3114 9.07153V8.82885C22.3114 8.04439 22.735 7.987 23.2781 7.987H23.7825V7.25977H22.7156C22.344 7.25977 21.5357 7.54492 21.5084 8.91963C21.4897 9.8461 21.8912 10.61 22.7975 10.61H23.8751L24.194 9.86279H25.8247L26.148 10.61H27.7605V8.159L29.2311 10.61H30.3458V7.25977H29.5284Z" fill="#111017"/>
<path fill-rule="evenodd" clip-rule="evenodd" d="M35.5592 20.827C35.5592 21.475 35.0282 22 34.3737 22H1.18493C0.530398 22 0 21.475 0 20.827V1.17298C0 0.525048 0.530398 0 1.18493 0H34.3737C35.0282 0 35.5592 0.525048 35.5592 1.17298V20.827Z" fill="#006E95"/>
<path fill-rule="evenodd" clip-rule="evenodd" d="M11.0316 10.6535V10.2961L10.8617 10.6535H9.38935L9.20443 10.27V10.6535H6.45249L6.12748 9.87959H5.57596L5.2316 10.6535H3.80469V8.31732L4.85065 5.93752H6.85343L7.13459 6.6119V5.94254H9.58377L10.1226 7.07781L10.6496 5.93752H18.3816C18.3816 5.93752 18.7869 5.93201 19.0539 6.1207L19.0521 5.93752H21.0001V6.19527C21.0001 6.19527 21.3505 5.93752 21.8684 5.93752C22.386 5.93752 25.3058 5.93752 25.3058 5.93752L25.6076 6.62179V5.93752H27.8101L28.2099 6.62179V5.93752H30.3157V10.6581H28.1524L27.6441 9.83501V10.6535H24.9553L24.5771 9.81053H24.0499L23.6956 10.6535H22.0683C22.0683 10.6535 21.4613 10.6457 21.0062 10.3184C21.0062 10.4899 21.0062 10.6535 21.0062 10.6535H17.7664C17.7664 10.6535 17.7664 9.71261 17.7664 9.55229C17.7664 9.39244 17.6447 9.40363 17.6447 9.40363H17.5262V10.6535H11.0316Z" fill="#FFFFFE"/>
<path fill-rule="evenodd" clip-rule="evenodd" d="M9.41406 11.6758H13.671L14.2857 12.3751L14.9141 11.6758H18.1871C18.1871 11.6758 18.4944 11.6836 18.7861 11.84V11.6758C18.7861 11.6758 21.3316 11.6758 21.7009 11.6758C22.0707 11.6758 22.3814 11.8617 22.3814 11.8617V11.6758H26.1279V11.8473C26.1279 11.8473 26.3947 11.6758 26.7536 11.6758C27.1118 11.6758 29.1942 11.6758 29.1942 11.6758V11.8473C29.1942 11.8473 29.5016 11.6758 29.8267 11.6758C30.1521 11.6758 31.743 11.6758 31.743 11.6758V16.124C31.743 16.124 31.491 16.4107 30.97 16.4107H28.4434V16.2694C28.4434 16.2694 28.2032 16.4107 27.8366 16.4107C27.4707 16.4107 21.1251 16.4107 21.1251 16.4107C21.1251 16.4107 21.1251 15.3752 21.1251 15.261C21.1251 15.1479 21.0764 15.1273 20.9761 15.1273H20.8836V16.4107H18.7861V15.1351C18.7861 15.1351 18.5537 15.261 18.165 15.261C17.7768 15.261 17.4108 15.261 17.4108 15.261V16.4107H14.8256L14.2375 15.6892L13.6084 16.4107H9.41406V11.6758Z" fill="#FFFFFE"/>
<path fill-rule="evenodd" clip-rule="evenodd" d="M22.8281 12.3848H25.4998V13.1054H23.646V13.7334H25.4477V14.368H23.646V15.029H25.4998V15.7317H22.8281V12.3848Z" fill="#006E95"/>
<path fill-rule="evenodd" clip-rule="evenodd" d="M30.6643 13.6908C31.6682 13.7427 31.7523 14.247 31.7523 14.7849C31.7523 15.4119 31.2395 15.7486 30.7048 15.7486H28.9881V15.031H30.3254C30.5524 15.031 30.8902 15.031 30.8902 14.7096C30.8902 14.5571 30.831 14.4597 30.5895 14.4341C30.4821 14.4185 30.0851 14.3963 30.0248 14.3952C29.1178 14.3712 28.9062 13.9174 28.9062 13.3651C28.9062 12.7376 29.3448 12.3945 29.8802 12.3945H31.5961V13.1117H30.3404C30.0546 13.1145 29.7462 13.0778 29.7462 13.4024C29.7462 13.6078 29.8985 13.6491 30.0917 13.6679C30.1587 13.6679 30.6045 13.6914 30.6643 13.6908Z" fill="#006E95"/>
<path fill-rule="evenodd" clip-rule="evenodd" d="M27.5846 13.6908C28.5889 13.7427 28.6731 14.247 28.6731 14.7849C28.6731 15.4119 28.1609 15.7486 27.6255 15.7486H25.9095V15.031H27.2468C27.4732 15.031 27.8116 15.031 27.8116 14.7096C27.8116 14.5571 27.7517 14.4597 27.5102 14.4341C27.4029 14.4185 27.0053 14.3963 26.9462 14.3952C26.038 14.3712 25.8281 13.9174 25.8281 13.3651C25.8281 12.7376 26.2661 12.3945 26.8011 12.3945H28.517V13.1117H27.2617C26.9755 13.1145 26.6671 13.0778 26.6671 13.4024C26.6671 13.6078 26.8199 13.6491 27.0131 13.6679C27.0795 13.6679 27.5252 13.6914 27.5846 13.6908Z" fill="#006E95"/>
<path fill-rule="evenodd" clip-rule="evenodd" d="M17.6232 13.9128H16.6055V13.1094H17.6266C17.9687 13.1094 18.0767 13.3298 18.0767 13.4941C18.0767 13.7184 17.9577 13.9128 17.6232 13.9128ZM15.7832 15.4172L14.6094 14.0202L15.7832 12.7129V15.4172ZM12.6577 15.0291H10.7734V14.3682H12.5757V13.7335H10.7734V13.1055L12.7606 13.1098L13.5563 14.0208L12.6577 15.0291ZM17.8996 12.3921H15.0319L14.0955 13.4304L13.1897 12.3848H9.96875V15.7317H13.085L14.0662 14.626L15.0241 15.7395H16.5923V14.6031H17.6914C18.115 14.6031 18.888 14.5885 18.888 13.4155C18.888 12.5787 18.301 12.3921 17.8996 12.3921Z" fill="#006E95"/>
<path fill-rule="evenodd" clip-rule="evenodd" d="M21.1467 13.8715H20.1289V13.1133H21.1499C21.4915 13.1133 21.5995 13.3338 21.5995 13.498C21.5995 13.7218 21.481 13.8715 21.1467 13.8715ZM21.8529 14.217C22.2993 13.9931 22.4178 13.6942 22.4178 13.2905C22.4178 12.5738 21.8386 12.3945 21.4372 12.3945H19.3125V15.7415H20.1299V14.5605H21.1997C21.482 14.5605 21.5934 14.8445 21.6005 15.1284L21.6221 15.7415H22.4178L22.3878 15.0538C22.3878 14.5154 22.24 14.2616 21.8529 14.217Z" fill="#006E95"/>
<path fill-rule="evenodd" clip-rule="evenodd" d="M19.6328 9.95827H20.4502V6.60742H19.6328V9.95827Z" fill="#006E95"/>
<path fill-rule="evenodd" clip-rule="evenodd" d="M12.9453 6.61133H15.6158V7.33175H13.7625V7.95977H15.5638V8.5946H13.7625V9.25537H15.6158V9.95813H12.9453V6.61133Z" fill="#006E95"/>
<path fill-rule="evenodd" clip-rule="evenodd" d="M17.9357 8.08844H16.918V7.33008H17.9396C18.2807 7.33008 18.3892 7.55055 18.3892 7.71477C18.3892 7.93913 18.2701 8.08844 17.9357 8.08844ZM18.6425 8.43363C19.0887 8.2104 19.2072 7.91082 19.2072 7.50716C19.2072 6.78998 18.6275 6.61133 18.2267 6.61133H16.1016V9.95813H16.9188V8.77779H17.9886C18.2709 8.77779 18.3828 9.06116 18.39 9.34502L18.4121 9.95813H19.2072L19.1779 9.27045C19.1779 8.73256 19.0289 8.47869 18.6425 8.43363Z" fill="#006E95"/>
<path fill-rule="evenodd" clip-rule="evenodd" d="M5.30078 8.49011L5.78814 7.32031L6.29596 8.49011H5.30078ZM11.0599 6.61133L10.0572 8.85625L9.0578 6.61133H7.77646V9.83443L6.35019 6.61133H5.26876L3.8125 9.95813H4.67468L4.99356 9.21095H6.62474L6.94814 9.95813H8.59318V7.47376L9.68573 9.95813H10.4288L11.5466 7.51494V9.95813H12.364V6.61133H11.0599Z" fill="#006E95"/>
<path fill-rule="evenodd" clip-rule="evenodd" d="M23.8594 8.49011L24.3461 7.32031L24.8587 8.49011H23.8594ZM28.88 6.60938V8.92676L27.5019 6.60938H26.2942V9.75256L24.9021 6.61116H23.8207L22.6951 9.20349C22.6951 9.20349 22.2195 9.20349 22.1713 9.19182C21.9746 9.15113 21.6669 9.01139 21.663 8.42114V8.17846C21.663 7.394 22.0865 7.33661 22.6297 7.33661H23.1341V6.60938H22.0672C21.6956 6.60938 20.8872 6.89453 20.86 8.26924C20.8413 9.19571 21.2427 9.95958 22.1491 9.95958H23.2266L23.5455 9.2124H25.1762L25.4996 9.95958H27.1121V7.50861L28.5827 9.95958H29.6973V6.60938H28.88Z" fill="#006E95"/>
</svg>
