<svg width="21" height="20" viewBox="0 0 21 20" fill="none" xmlns="http://www.w3.org/2000/svg">
<path d="M14.2714 4.82104C13.7517 4.82104 13.3359 5.23835 13.3359 5.74989C13.3359 6.26592 13.7562 6.67874 14.2714 6.67874C14.7911 6.67874 15.2068 6.26143 15.2068 5.74989C15.2113 5.23835 14.7911 4.82104 14.2714 4.82104Z" fill="#1D0A43"/>
<path d="M10.1001 6.01465C7.93099 6.01465 6.16406 7.76913 6.16406 9.92298C6.16406 12.0768 7.93099 13.8313 10.1001 13.8313C12.2692 13.8313 14.0362 12.0768 14.0362 9.92298C14.0362 7.76913 12.2692 6.01465 10.1001 6.01465ZM10.1001 12.4313C8.70826 12.4313 7.57851 11.3095 7.57851 9.92747C7.57851 8.54542 8.70826 7.42362 10.1001 7.42362C11.492 7.42362 12.6217 8.54542 12.6217 9.92747C12.6217 11.305 11.492 12.4313 10.1001 12.4313Z" fill="#1D0A43"/>
<path d="M13.2281 17.8652H6.84276C4.19462 17.8652 2.03906 15.7248 2.03906 13.0954V6.75498C2.03906 4.12549 4.19462 1.98511 6.84276 1.98511H13.2281C15.8762 1.98511 18.0318 4.12549 18.0318 6.75498V13.0954C18.0273 15.7248 15.8762 17.8652 13.2281 17.8652ZM6.84276 3.47934C5.02612 3.47934 3.54389 4.94665 3.54389 6.75498V13.0954C3.54389 14.8992 5.0216 16.371 6.84276 16.371H13.2281C15.0447 16.371 16.527 14.9037 16.527 13.0954V6.75498C16.527 4.95113 15.0493 3.47934 13.2281 3.47934H6.84276Z" fill="#1D0A43"/>
</svg>
