<svg width="36" height="22" viewBox="0 0 36 22" fill="none" xmlns="http://www.w3.org/2000/svg">
<path fill-rule="evenodd" clip-rule="evenodd" d="M35.0745 0H0.926368C0.414741 0 0 0.391068 0 0.873493V21.1265C0 21.6089 0.414741 22 0.926368 22H35.0745C35.5853 22 36 21.6089 36 21.1265V0.873493C36 0.391068 35.5853 0 35.0745 0ZM8.59478 10.9855C8.0874 11.3493 7.3803 11.53 6.46668 11.53H6.25421C6.09188 11.53 5.93211 11.6554 5.89896 11.8071L5.6406 12.8795C5.60405 13.0346 5.44428 13.1566 5.28195 13.1566H4.53831C4.37513 13.1566 4.27569 13.0313 4.31224 12.8795L5.36184 8.44904C5.39838 8.29808 5.55731 8.17517 5.71964 8.17188H7.27661C7.61572 8.17517 7.90468 8.19497 8.15709 8.23952C8.4061 8.28488 8.62452 8.36242 8.80725 8.47213C8.98317 8.57854 9.12595 8.7229 9.21604 8.89695C9.31547 9.071 9.35882 9.29041 9.35882 9.55108C9.35882 10.1442 9.1064 10.6242 8.59478 10.9855ZM13.2214 10.4198L13.1942 10.6063L12.6503 12.8912C12.6171 13.0265 12.4778 13.1461 12.3282 13.1618L12.318 13.1651H11.6245V13.1618C11.4817 13.1494 11.3916 13.0331 11.4214 12.8912L11.4248 12.8846L11.4519 12.7691L11.4485 12.7658L11.1664 12.9456L10.8604 13.1106L10.5018 13.2294C10.3896 13.255 10.2332 13.2715 10.031 13.2715C9.71565 13.2715 9.44623 13.1873 9.24736 13.0133C9.04509 12.8334 8.94141 12.6041 8.94141 12.327C8.94141 12.0275 9.0145 11.7759 9.15388 11.5673C9.30345 11.361 9.51252 11.1994 9.79808 11.0773C10.0607 10.961 10.3794 10.8744 10.7448 10.8257C11.1128 10.7745 11.4214 10.7358 11.8437 10.7102L11.9525 10.645L11.9661 10.5419C11.9661 10.3844 11.8896 10.278 11.7401 10.2136C11.5879 10.1526 11.3585 10.1204 11.0636 10.1204C10.857 10.1171 10.6046 10.1592 10.3624 10.2103C10.1887 10.25 10.1016 10.2792 10.0242 10.3051L10.0242 10.3051C9.98915 10.3169 9.9561 10.3279 9.91792 10.339C9.85843 10.3588 9.72159 10.3679 9.77174 10.1361L9.86437 9.77231C9.86437 9.77231 9.90772 9.49515 10.1899 9.43741C10.3206 9.40646 10.3467 9.40236 10.5352 9.37272L10.5352 9.37271L10.5749 9.36647C10.8774 9.3211 11.1757 9.29883 11.4783 9.29883C12.086 9.29883 12.5304 9.37554 12.8092 9.53062C13.0914 9.68157 13.2375 9.92326 13.2341 10.2458L13.2214 10.4198ZM14.4211 14.9215H13.6503C13.488 14.9215 13.4353 14.7994 13.5347 14.6443L14.1951 13.5266C14.1951 13.5266 14.2486 13.4614 14.2019 13.0977C14.099 12.4369 13.5908 9.634 13.5908 9.634C13.5543 9.48222 13.6537 9.36013 13.8135 9.36013L14.484 9.35683C14.6863 9.35683 14.8529 9.48882 14.8894 9.64059L15.2209 11.5865H15.3475C15.4503 11.4091 16.5195 9.6307 16.5195 9.6307C16.6189 9.47892 16.828 9.35353 16.9869 9.35353H17.8835C18.1462 9.35024 17.8606 9.76598 17.8606 9.76598L14.8894 14.6443C14.7925 14.7994 14.5801 14.9215 14.4211 14.9215ZM22.1459 11.0036C21.6343 11.3641 20.9272 11.5481 20.0144 11.5481H19.802C19.6388 11.5448 19.4799 11.6735 19.4433 11.8219L19.1909 12.8984C19.1544 13.0494 18.9886 13.1723 18.8323 13.1723H18.0852C17.9263 13.1756 17.8201 13.0494 17.86 12.8984L18.9088 8.46466C18.9453 8.31288 19.1042 8.1908 19.264 8.1908L20.8244 8.1875C21.1592 8.1908 21.455 8.21307 21.7006 8.25514C21.953 8.30051 22.1689 8.37722 22.3516 8.48693C22.5275 8.59664 22.6669 8.73852 22.763 8.91257C22.8564 9.08662 22.9023 9.30521 22.9057 9.5667C22.9057 10.1598 22.6499 10.6399 22.1459 11.0036ZM26.7718 10.4246L26.7455 10.611L26.2007 12.8926C26.171 13.0312 26.0282 13.1475 25.882 13.1665L25.8718 13.1698H25.7656H25.1919H25.1783V13.1665C25.0321 13.1533 24.9429 13.0378 24.9794 12.8959L24.976 12.8926L24.9794 12.8893L25.0058 12.7738L24.999 12.7705L24.7202 12.9504L24.4151 13.1153L24.0531 13.2341C23.9434 13.263 23.7837 13.2729 23.5848 13.2762C23.2661 13.2762 23.0035 13.1888 22.8012 13.0147C22.5989 12.8382 22.4961 12.6089 22.4961 12.3284C22.4961 12.0323 22.5658 11.7807 22.7086 11.5712C22.8547 11.3649 23.0672 11.2041 23.3494 11.082C23.6179 10.9624 23.9366 10.8791 24.2987 10.8271C24.6667 10.776 24.9726 10.7405 25.401 10.7141L25.5072 10.6465L25.5166 10.5467C25.5166 10.3891 25.4443 10.2794 25.2913 10.2184C25.1418 10.154 24.9123 10.1251 24.614 10.1251C24.4117 10.1218 24.1559 10.1631 23.9137 10.2151C23.7448 10.2542 23.6584 10.2831 23.5819 10.3087C23.5456 10.3209 23.5114 10.3323 23.4718 10.3437C23.4089 10.3602 23.2763 10.3726 23.3256 10.1375L23.4191 9.77704C23.4191 9.77704 23.459 9.49988 23.7446 9.43884L23.7635 9.43481C23.8865 9.40855 23.9174 9.40197 24.1296 9.37367C24.4279 9.32583 24.7304 9.30273 25.0321 9.30273C25.6364 9.30273 26.0817 9.38027 26.3639 9.53535C26.6486 9.6863 26.7914 9.92799 26.7914 10.2505L26.7718 10.4246ZM29.1605 8.50042L28.1619 12.8954L28.1287 12.9465C28.0684 13.0694 27.9426 13.1693 27.8066 13.1693H27.1123L27.0995 13.1561C26.9661 13.1338 26.8802 13.0307 26.9134 12.8987L26.91 12.8954L26.9397 12.7667L27.8763 8.6456L27.9094 8.50372L27.946 8.44516C28.0055 8.32307 28.1321 8.22656 28.2681 8.22656H28.9352C29.0976 8.22656 29.1945 8.34865 29.1605 8.50042ZM30.4843 8.02621H30.2353V8.34792L30.2387 8.43535L30.2557 8.4931L30.2948 8.52857L30.3713 8.54176L30.4342 8.53187L30.4809 8.51867H30.4843V8.62508L30.4112 8.63828L30.3415 8.64487L30.1724 8.58631L30.1129 8.39988V8.02621H30.0296V7.92558H30.1129V7.72266H30.2353V7.92558H30.4843V8.02621ZM31.6962 8.17459V8.6291H31.5763V8.22986L31.5704 8.14242L31.5534 8.07478L31.51 8.03271L31.4302 8.02034L31.3273 8.04591L31.2245 8.10695L31.2279 8.14242V8.6324H31.1055V8.22986L31.1021 8.14242L31.0851 8.07478L31.0418 8.03271L30.9627 8.02034L30.8599 8.04261L30.7596 8.10365V8.6324H30.6406V7.9263H30.7596V8.00384L30.876 7.9329L30.9959 7.90733L31.1217 7.9362L31.1981 8.02034L31.3341 7.9329L31.4642 7.90733L31.6401 7.97827L31.6996 8.17459H31.6962ZM21.2706 9.24796C21.1245 9.15804 20.912 9.10938 20.6239 9.10938H20.3808C20.2219 9.10938 20.0596 9.23476 20.0256 9.38654L19.8003 10.3244C19.7638 10.4754 19.8666 10.6016 20.029 10.6016H20.2151C20.6171 10.6016 20.929 10.5207 21.1551 10.3632C21.3769 10.2015 21.4933 9.97633 21.4899 9.68019C21.4865 9.48635 21.4168 9.34117 21.2706 9.24796ZM7.07714 9.09375C7.36269 9.09375 7.57856 9.14159 7.72474 9.23233C7.87092 9.32554 7.94061 9.47072 7.94061 9.66374C7.94401 9.95988 7.83098 10.1859 7.60491 10.3467C7.37969 10.5051 7.06694 10.5851 6.66239 10.5851H6.47967C6.31734 10.5851 6.21706 10.4631 6.2536 10.308L6.47627 9.37009C6.50942 9.21913 6.67259 9.09375 6.83152 9.09375H7.07714ZM11.7091 11.4004C11.6666 11.4004 11.3275 11.4392 11.1584 11.459C10.9654 11.4845 10.7997 11.5233 10.6671 11.5687L10.3518 11.7749C10.2753 11.8648 10.2422 11.9811 10.2422 12.1288L10.385 12.3993C10.4844 12.4546 10.6272 12.4802 10.8099 12.4802C10.9323 12.4802 11.0623 12.4513 11.2017 12.396L11.4932 12.2517L11.6096 12.0999C11.6564 11.9258 11.7524 11.539 11.7626 11.4911L11.7091 11.4004ZM24.7091 11.4629C24.8783 11.4431 25.214 11.4043 25.2607 11.4043L25.31 11.495C25.3032 11.5429 25.2072 11.9297 25.1604 12.1071L25.0414 12.2556L24.7525 12.4032C24.6131 12.4552 24.4839 12.4841 24.3641 12.4841C24.1746 12.4841 24.0318 12.4585 23.9391 12.4032L23.793 12.1327C23.793 11.9842 23.8295 11.872 23.8992 11.7813C23.9723 11.6947 24.0819 11.6237 24.2179 11.5717C24.3539 11.5272 24.5171 11.4917 24.7091 11.4629Z" fill="#2991C1"/>
</svg>
