<svg width="21" height="20" viewBox="0 0 21 20" fill="none" xmlns="http://www.w3.org/2000/svg">
<path fill-rule="evenodd" clip-rule="evenodd" d="M9.02223 12.3408C9.0091 12.3857 8.99597 12.4261 8.98722 12.462C8.41824 14.7474 8.35696 15.2547 7.77047 16.3188C7.49036 16.8217 7.17961 17.3021 6.82946 17.7601C6.79007 17.814 6.75506 17.8769 6.67628 17.8634C6.58874 17.8454 6.58437 17.7646 6.57561 17.6973C6.4837 17.0013 6.43118 16.3054 6.45306 15.6049C6.4837 14.6935 6.59312 14.3792 7.73984 9.42679C7.75734 9.35046 7.73984 9.2876 7.71358 9.22025C7.43784 8.46145 7.38532 7.68918 7.62604 6.90344C8.14688 5.21522 10.0114 5.08502 10.3396 6.4769C10.541 7.33897 10.007 8.46594 9.59997 10.1362C9.26296 11.5101 10.8386 12.4889 12.191 11.4877C13.434 10.5627 13.9199 8.34022 13.8279 6.76874C13.6485 3.63027 10.2959 2.95229 8.16876 3.96253C5.73089 5.12093 5.17504 8.21899 6.27799 9.63781C6.41805 9.81741 6.52309 9.92966 6.47932 10.1093C6.40929 10.3921 6.34364 10.6795 6.26924 10.9623C6.21234 11.1734 6.04164 11.2497 5.83594 11.1644C5.42889 10.9983 5.09188 10.7289 4.81614 10.3831C3.87951 9.19331 3.61253 6.84507 4.85116 4.85603C6.22109 2.65147 8.76838 1.76245 11.0968 2.03185C13.8761 2.35513 15.6312 4.30377 15.9594 6.51282C16.1082 7.51856 16.0032 10.0015 14.6245 11.7571C13.0401 13.7731 10.4709 13.9077 9.28922 12.6685C9.18418 12.5653 9.11415 12.453 9.02223 12.3408Z" fill="#1D0A43"/>
</svg>
