<svg width="21" height="20" viewBox="0 0 21 20" fill="none" xmlns="http://www.w3.org/2000/svg">
<path d="M17.9455 4.5258C17.4358 4.75185 16.8777 4.88674 16.3271 4.97789C16.5876 4.93414 16.9708 4.47476 17.1233 4.28517C17.3577 4.00079 17.5511 3.67631 17.659 3.3263C17.6739 3.29713 17.6851 3.26432 17.6553 3.24244C17.6218 3.22786 17.5958 3.23515 17.5697 3.24974C16.9596 3.57057 16.3271 3.80391 15.6538 3.96798C15.598 3.98256 15.557 3.96798 15.5198 3.93516C15.464 3.87318 15.4119 3.81485 15.3524 3.76745C15.0697 3.53047 14.7646 3.34453 14.4223 3.20963C13.9722 3.03098 13.4811 2.95442 12.9974 2.98358C12.525 3.01275 12.0636 3.14401 11.647 3.35911C11.2266 3.57422 10.8545 3.87319 10.5569 4.23048C10.2481 4.60237 10.0212 5.04352 9.90585 5.51019C9.79424 5.95864 9.80169 6.40344 9.87237 6.85918C9.88353 6.93574 9.87609 6.94303 9.80541 6.93574C7.17141 6.55292 4.98758 5.62686 3.21671 3.65078C3.13858 3.56328 3.09766 3.56328 3.03441 3.65808C2.26058 4.7956 2.63634 6.62584 3.60362 7.52638C3.73383 7.64669 3.86404 7.76701 4.00914 7.87638C3.95705 7.88732 3.31344 7.81805 2.73679 7.52638C2.65866 7.47898 2.62146 7.5045 2.61402 7.592C2.60657 7.71596 2.61774 7.82899 2.63634 7.96024C2.78515 9.11599 3.5999 10.1842 4.71972 10.5999C4.85365 10.6546 4.99874 10.702 5.14384 10.7275C4.89085 10.7822 4.62671 10.8223 3.89753 10.7639C3.80824 10.7457 3.77104 10.7931 3.80824 10.877C4.35513 12.3426 5.54191 12.7801 6.42735 13.028C6.5464 13.0499 6.66545 13.0499 6.7845 13.0754C6.77706 13.0864 6.76962 13.0864 6.76218 13.0973C6.46827 13.5385 5.4489 13.863 4.9727 14.027C4.10959 14.3223 3.16834 14.4572 2.25686 14.3697C2.11177 14.3479 2.07829 14.3515 2.04109 14.3697C2.00016 14.3953 2.03736 14.4281 2.08201 14.4645C2.26803 14.5848 2.45404 14.6906 2.6475 14.7927C3.22787 15.0953 3.83056 15.3323 4.46302 15.5036C7.72946 16.3859 11.4051 15.7369 13.8568 13.3525C15.7802 11.4785 16.4573 8.89359 16.4573 6.305C16.4573 6.20291 16.5801 6.14823 16.6508 6.09354C17.153 5.7253 17.5548 5.28415 17.9306 4.79195C18.0162 4.68258 18.0162 4.58414 18.0162 4.54403C18.0162 4.53674 18.0162 4.52945 18.0162 4.52945C18.0124 4.4857 18.0087 4.49663 17.9455 4.5258Z" fill="#1D0A43"/>
</svg>
