<svg width="37" height="22" viewBox="0 0 37 22" fill="none" xmlns="http://www.w3.org/2000/svg">
<path fill-rule="evenodd" clip-rule="evenodd" d="M36.1911 20.8265C36.1911 21.4748 35.6596 22 35.0039 22H1.75032C1.09399 22 0.5625 21.4748 0.5625 20.8265V1.17322C0.5625 0.524936 1.09399 0 1.75032 0H35.0039C35.6596 0 36.1911 0.524936 36.1911 1.17322V20.8265Z" fill="#115689"/>
<path fill-rule="evenodd" clip-rule="evenodd" d="M13.1641 12.0285C15.8531 10.8789 19.6269 9.83737 24.6242 10.8804L24.6762 9.61633C19.4038 9.04248 15.6207 10.7168 13.1641 11.904V12.0285Z" fill="#EC933F"/>
<path fill-rule="evenodd" clip-rule="evenodd" d="M8.3125 12.957H10.8472V13.7187H9.27211L9.26154 14.4218H10.8311V15.1515H9.25603L9.26217 15.8545H10.815V16.6163H8.3136L8.3125 12.957Z" fill="#FFFFFE"/>
<path fill-rule="evenodd" clip-rule="evenodd" d="M11.4844 12.6504H12.4063L12.4102 16.6162H11.4877L11.4844 12.6504Z" fill="#FFFFFE"/>
<path fill-rule="evenodd" clip-rule="evenodd" d="M14.8995 14.9511C14.8995 14.676 14.7666 14.4277 14.4595 14.4277C14.1678 14.4277 13.9447 14.6867 13.8867 14.9511H14.8995ZM15.5778 16.314C15.2652 16.5788 14.7882 16.7107 14.3638 16.7107C13.3936 16.7107 12.9531 16.0237 12.9531 15.3415C12.9531 14.5375 13.5579 13.8555 14.3909 13.8555C15.408 13.8555 15.7268 14.5747 15.7268 15.4893H13.8762C13.8762 15.6954 14.0089 16.0444 14.5175 16.0444C14.8413 16.0444 15.0212 15.9494 15.2702 15.7803L15.5778 16.314Z" fill="#FFFFFE"/>
<path fill-rule="evenodd" clip-rule="evenodd" d="M18.5171 16.4357C18.2625 16.5943 17.8441 16.7107 17.5364 16.7107C16.6874 16.7107 16.0781 16.2244 16.0781 15.3467C16.0781 14.4475 16.6819 13.8555 17.5945 13.8555C17.9127 13.8555 18.2947 13.9559 18.501 14.0883L18.2039 14.6908C18.0661 14.6326 17.9177 14.585 17.7694 14.585C17.3078 14.585 17.0007 14.8602 17.0007 15.2992C17.0007 15.6798 17.2979 15.9809 17.6898 15.9809C17.8646 15.9809 18.0401 15.902 18.1878 15.8276L18.5171 16.4357Z" fill="#FFFFFE"/>
<path fill-rule="evenodd" clip-rule="evenodd" d="M18.8647 13.9512H19.2815L19.2781 13.0469H20.1691L20.1481 13.9512H20.9058L20.8902 14.6172H20.1321C20.1321 14.9871 20.1056 15.3782 20.1056 15.6054C20.1056 15.8384 20.1636 15.9496 20.3706 15.9496C20.4978 15.9496 20.6036 15.8862 20.7098 15.8225L20.9113 16.4467C20.6413 16.6104 20.3124 16.7108 19.9993 16.7108C19.2516 16.7108 19.2145 16.2404 19.2145 15.6271C19.2145 15.2993 19.241 14.9714 19.241 14.6172H18.8438L18.8647 13.9512Z" fill="#FFFFFE"/>
<path fill-rule="evenodd" clip-rule="evenodd" d="M21.3732 13.9515H22.2951V14.3264H22.3061C22.4439 14.0994 22.6238 13.877 22.9846 13.877C23.0854 13.877 23.1916 13.8876 23.2862 13.9089L23.1645 14.8182C23.0748 14.7915 22.9741 14.7654 22.8363 14.7654C22.5286 14.7654 22.2896 15.0243 22.2896 15.0775L22.2741 16.6161H21.3516L21.3732 13.9515Z" fill="#FFFFFE"/>
<path fill-rule="evenodd" clip-rule="evenodd" d="M24.9634 16.0127C25.4034 16.0127 25.5356 15.6317 25.5356 15.2827C25.5356 14.9338 25.4034 14.5527 24.9634 14.5527C24.5229 14.5527 24.3906 14.9338 24.3906 15.2827C24.3906 15.6317 24.5229 16.0127 24.9634 16.0127ZM24.9645 13.8555C25.9501 13.8555 26.4593 14.4793 26.4593 15.283C26.4593 16.0865 25.9501 16.7107 24.9645 16.7107C23.9778 16.7107 23.4688 16.0865 23.4688 15.283C23.4688 14.4793 23.9778 13.8555 24.9645 13.8555Z" fill="#FFFFFE"/>
<path fill-rule="evenodd" clip-rule="evenodd" d="M26.9596 13.9511H27.8817V14.2416C28.0935 14.0353 28.4173 13.8555 28.746 13.8555C29.3128 13.8555 29.6204 14.1674 29.6204 14.897C29.6204 15.4419 29.6155 16.0284 29.61 16.6157H28.6874C28.6923 16.1027 28.6978 15.5844 28.6978 15.0348C28.6978 14.8178 28.6398 14.6485 28.3642 14.6485C28.2152 14.6485 28.0034 14.7758 27.8817 14.8914L27.8766 16.6157H26.9375L26.9596 13.9511Z" fill="#FFFFFE"/>
<path fill-rule="evenodd" clip-rule="evenodd" d="M15.8906 8.46303L17.0568 4.63086H18.0966L16.9305 8.46303H15.8906Z" fill="#FFFFFE"/>
<path fill-rule="evenodd" clip-rule="evenodd" d="M15.4266 4.63086L14.4908 6.25539C14.2528 6.68129 14.1134 6.89652 14.0464 7.1652H14.0325C14.0486 6.82435 14.0015 6.40568 13.9966 6.16939L13.893 4.63086H12.1431L12.125 4.73447C12.5743 4.73447 12.841 4.95929 12.9147 5.4204L13.2555 8.4624H14.3337L16.5119 4.63086H15.4266Z" fill="#FFFFFE"/>
<path fill-rule="evenodd" clip-rule="evenodd" d="M23.3979 6.20148C23.3869 5.9177 23.3768 5.53362 23.3962 5.30078H23.3807C23.3177 5.49117 23.0454 6.06266 22.9264 6.34345L22.5391 7.18346H23.4511L23.3979 6.20148ZM23.5185 8.46166L23.4898 7.89206L22.191 7.89111L21.9258 8.46166H20.7969L22.8433 4.63672H24.2297L24.5762 8.46166H23.5185Z" fill="#FFFFFE"/>
<path fill-rule="evenodd" clip-rule="evenodd" d="M19.1939 8.57063C18.4602 8.57063 17.9726 8.33826 17.625 8.1312L18.1203 7.37672C18.4325 7.55123 18.6776 7.75168 19.2415 7.75168C19.4236 7.75168 19.598 7.70515 19.697 7.53346C19.842 7.28412 19.6643 7.15033 19.2576 6.92047L19.0572 6.79046C18.4552 6.38028 18.1946 5.99053 18.4779 5.31026C18.66 4.87492 19.1381 4.54492 19.9273 4.54492C20.4712 4.54492 20.9821 4.77965 21.2793 5.00918L20.7097 5.67547C20.4192 5.44122 20.1791 5.32283 19.9029 5.32283C19.6848 5.32283 19.5177 5.40742 19.4602 5.52093C19.3517 5.73506 19.495 5.88111 19.8116 6.07716L20.0501 6.22856C20.7811 6.68842 20.9555 7.17029 20.7723 7.62151C20.4568 8.39722 19.8398 8.57063 19.1939 8.57063Z" fill="#FFFFFE"/>
</svg>
