<svg width="37" height="22" viewBox="0 0 37 22" fill="none" xmlns="http://www.w3.org/2000/svg">
<path fill-rule="evenodd" clip-rule="evenodd" d="M16.8662 14.4763H15.2422L16.2573 7.89648H17.8813L16.8662 14.4763Z" fill="#111017"/>
<path fill-rule="evenodd" clip-rule="evenodd" d="M14.684 7.89648L13.0243 12.4219L12.8278 11.4476V11.4479L12.2422 8.48898C12.2422 8.48898 12.1713 7.89648 11.4166 7.89648H8.67224L8.64062 8.00801C8.64062 8.00801 9.47973 8.17943 10.4614 8.76011L11.9737 14.4763H13.7878L16.5581 7.89648H14.684Z" fill="#111017"/>
<path fill-rule="evenodd" clip-rule="evenodd" d="M26.0117 12.1484L26.986 9.68555L27.5347 12.1484H26.0117ZM28.0514 14.4763H29.7541L28.2697 7.89648H26.7786C26.0897 7.89648 25.9218 8.38663 25.9218 8.38663L23.1562 14.4763H25.0895L25.4755 13.4991H27.8338L28.0514 14.4763Z" fill="#111017"/>
<path fill-rule="evenodd" clip-rule="evenodd" d="M24.2299 9.53859L24.4814 8.17345C24.4814 8.17345 23.7042 7.89648 22.8939 7.89648C22.0176 7.89648 19.937 8.2555 19.937 10.0008C19.937 11.6432 22.3794 11.6637 22.3794 12.5258C22.3794 13.3883 20.1886 13.2343 19.466 12.6902L19.2031 14.1171C19.2031 14.1171 19.9915 14.4763 21.196 14.4763C22.4009 14.4763 24.2185 13.8914 24.2185 12.3003C24.2185 10.6475 21.7548 10.4933 21.7548 9.77483C21.7548 9.05604 23.4747 9.14846 24.2299 9.53859Z" fill="#111017"/>
<path fill-rule="evenodd" clip-rule="evenodd" d="M12.5994 11.8444L12.0458 8.55513C12.0458 8.55513 11.9787 7.89648 11.2651 7.89648H8.67052L8.64062 8.02047C8.64062 8.02047 9.88727 8.31944 11.0829 9.43926C12.2263 10.51 12.5994 11.8444 12.5994 11.8444Z" fill="#111017"/>
<path fill-rule="evenodd" clip-rule="evenodd" d="M36.3551 20.8271C36.3551 21.4749 35.823 22 35.1673 22H1.91391C1.25805 22 0.726562 21.4749 0.726562 20.8271V1.1737C0.726562 0.525252 1.25805 0 1.91391 0H35.1673C35.823 0 36.3551 0.525252 36.3551 1.1737V20.8271Z" fill="#2B4D90"/>
<path fill-rule="evenodd" clip-rule="evenodd" d="M16.8662 14.4763H15.2422L16.2573 7.89648H17.8813L16.8662 14.4763Z" fill="#FFFFFE"/>
<path fill-rule="evenodd" clip-rule="evenodd" d="M14.684 7.89648L13.0243 12.4219L12.8278 11.4476V11.4479L12.2422 8.48898C12.2422 8.48898 12.1713 7.89648 11.4166 7.89648H8.67224L8.64062 8.00801C8.64062 8.00801 9.47973 8.17943 10.4614 8.76011L11.9737 14.4763H13.7878L16.5581 7.89648H14.684Z" fill="#FFFFFE"/>
<path fill-rule="evenodd" clip-rule="evenodd" d="M26.0117 12.1484L26.986 9.68555L27.5347 12.1484H26.0117ZM28.0514 14.4763H29.7541L28.2697 7.89648H26.7786C26.0897 7.89648 25.9218 8.38663 25.9218 8.38663L23.1562 14.4763H25.0895L25.4755 13.4991H27.8338L28.0514 14.4763Z" fill="#FFFFFE"/>
<path fill-rule="evenodd" clip-rule="evenodd" d="M22.9096 9.53859L23.1611 8.17345C23.1611 8.17345 22.3839 7.89648 21.5735 7.89648C20.6973 7.89648 18.6167 8.2555 18.6167 10.0008C18.6167 11.6432 21.0591 11.6637 21.0591 12.5258C21.0591 13.3883 18.8683 13.2343 18.1457 12.6902L17.8828 14.1171C17.8828 14.1171 18.6712 14.4763 19.8757 14.4763C21.0806 14.4763 22.8982 13.8914 22.8982 12.3003C22.8982 10.6475 20.4345 10.4933 20.4345 9.77483C20.4345 9.05604 22.1544 9.14846 22.9096 9.53859Z" fill="#FFFFFE"/>
<path fill-rule="evenodd" clip-rule="evenodd" d="M12.5994 11.8444L12.0458 8.55513C12.0458 8.55513 11.9787 7.89648 11.2651 7.89648H8.67052L8.64062 8.02047C8.64062 8.02047 9.88727 8.31944 11.0829 9.43926C12.2263 10.51 12.5994 11.8444 12.5994 11.8444Z" fill="#EB8F43"/>
</svg>
