<svg width="420" height="420" viewBox="0 0 420 420" fill="none" xmlns="http://www.w3.org/2000/svg">
<rect y="210" width="210" height="210" rx="20" fill="#D0EAFB"/>
<path d="M0 105.007C0 91.218 2.71591 77.5643 7.99265 64.8251C13.2694 52.0859 21.0036 40.5108 30.7538 30.7606C40.5039 21.0105 52.0791 13.2762 64.8182 7.99948C77.5574 2.72273 91.2112 0.00683594 105 0.00683594C118.789 0.00683594 132.443 2.72275 145.182 7.99948C157.921 13.2762 169.496 21.0105 179.246 30.7606C188.996 40.5108 196.731 52.0859 202.007 64.8251C207.284 77.5643 210 91.218 210 105.007L105 105.007L0 105.007Z" fill="#D0EAFB"/>
<path d="M420 0L420 210L210 210V200C210 89.5431 299.543 0 410 0L420 0Z" fill="#F2DCA6"/>
<path d="M210 410C210 299.543 299.543 210 410 210H420V220C420 330.457 330.457 420 220 420H210V410Z" fill="#FFBA93"/>
<path d="M0 157.507C0 128.512 23.5051 105.007 52.5 105.007C81.4949 105.007 105 128.512 105 157.507C105 186.502 81.4949 210.007 52.5 210.007C23.5051 210.007 0 186.502 0 157.507Z" fill="#FFEDAD"/>
<path d="M105 157.507C105 128.512 128.505 105.007 157.5 105.007C186.495 105.007 210 128.512 210 157.507C210 186.502 186.495 210.007 157.5 210.007C128.505 210.007 105 186.502 105 157.507Z" fill="#FFBA93"/>
</svg>
