<svg width="421" height="420" viewBox="0 0 421 420" fill="none" xmlns="http://www.w3.org/2000/svg">
<path d="M210.5 105C210.5 91.2112 213.216 77.5574 218.493 64.8182C223.769 52.0791 231.504 40.5039 241.254 30.7538C251.004 21.0036 262.579 13.2694 275.318 7.99265C288.057 2.7159 301.711 0 315.5 0C329.289 0 342.943 2.71591 355.682 7.99265C368.421 13.2694 379.996 21.0036 389.746 30.7538C399.496 40.504 407.231 52.0791 412.507 64.8183C417.784 77.5574 420.5 91.2112 420.5 105L315.5 105L210.5 105Z" fill="#F2DCA6"/>
<path d="M315.5 210V105L210.5 210H315.5Z" fill="#FFEDAD"/>
<path d="M420.5 210V105L315.5 210H420.5Z" fill="#FFBA93"/>
<rect x="0.5" width="210" height="210" rx="20" fill="#D0EAFB"/>
<path d="M315.5 420C257.51 420 210.5 372.99 210.5 315C210.5 257.01 257.51 210 315.5 210C373.49 210 420.5 257.01 420.5 315V420L315.5 420Z" fill="#D0EAFB"/>
<path d="M0.5 315C0.5 257.01 47.5101 210 105.5 210C163.49 210 210.5 257.01 210.5 315C210.5 372.99 163.49 420 105.5 420C47.5101 420 0.5 372.99 0.5 315Z" fill="#FFBA93"/>
</svg>
