<svg width="140" height="43" viewBox="0 0 140 43" fill="none" xmlns="http://www.w3.org/2000/svg">
<path fill-rule="evenodd" clip-rule="evenodd" d="M11.2745 43H14.508V25.8H11.2745V43ZM23.1273 42.742H26.0234V31.8899L38.2135 43V26.058H35.3256V36.7247L23.1273 25.8V42.742ZM44.8248 38.5764C46.401 39.7992 48.2931 40.506 50.3214 40.506C52.2971 40.506 53.683 39.8288 53.683 38.3332C53.683 37.0297 52.7991 36.5191 51.2512 35.948L48.7451 35.0813C46.4348 34.2643 44.6777 33.071 44.6777 30.3284C44.6777 27.395 47.3376 25.8 50.5184 25.8C52.4671 25.8 54.2431 26.2878 55.6304 27.1518V30.061C54.1877 28.9995 52.6088 28.2685 50.5805 28.2685C48.8342 28.2685 47.5292 28.9175 47.5292 30.2707C47.5292 31.4935 48.3484 31.9826 49.791 32.4744L52.5832 33.45C55.2889 34.3973 56.5305 35.866 56.5305 38.2821C56.5305 41.3217 53.845 43 50.3214 43C48.0056 43 46.0367 42.355 44.8248 41.5407V38.5764ZM64.0743 43H67.3064V25.8H64.0743V43ZM82.4695 40.3972C86.1132 40.3972 88.0606 38.0698 88.0606 34.396C88.0606 30.6953 86.1119 28.376 82.4695 28.376H78.8663V40.3972H82.4695ZM75.9244 25.8H82.5775C87.6989 25.8 91.0106 29.1594 91.0106 34.396C91.0106 39.6366 87.6989 43 82.5775 43H75.9244V25.8ZM107.175 25.8V28.376H99.3519V32.5147H106.368V35.0611H99.3506V40.3972H107.175V43H96.3992V25.8H107.175ZM118.649 33.5884H121.856C123.755 33.5884 124.825 32.551 124.825 30.956C124.825 29.3609 123.755 28.3222 121.856 28.3222H118.649V33.5897V33.5884ZM118.649 36.0206V43H115.794V25.8H121.91C125.398 25.8 127.654 27.5885 127.654 30.956C127.654 33.8356 126.402 35.4898 123.734 35.9144L129.802 43H126.555L120.68 36.0219H118.65L118.649 36.0206ZM10.145 8.85531C11.4095 8.39441 12.3946 7.01169 12.3946 5.11028C12.3946 1.94172 10.145 0.299656 6.54583 0.299656H0.5V17.9874H7.10722C10.7064 17.9874 12.956 16.2298 12.956 12.9175C12.956 11.0443 11.7752 9.40222 10.145 8.85531ZM3.33938 7.73194V2.89309H6.51884C8.51612 2.89309 9.58358 3.61334 9.58358 5.28363C9.58358 6.95391 8.51477 7.73194 6.51884 7.73194H3.33938ZM3.33938 10.2098H7.05054C9.02083 10.2098 10.0883 11.1881 10.0883 12.8019C10.0883 14.3862 9.01949 15.3953 7.05189 15.3953H3.34073V10.2085L3.33938 10.2098ZM26.1475 18.275C30.2811 18.275 33.0651 15.7971 33.0651 10.9583V0.299656H30.1407V10.6116C30.1407 14.0113 28.7345 15.5969 26.1475 15.5969C23.5605 15.5969 22.1557 14.0113 22.1557 10.6116V0.299656H19.2313V10.9287C19.2313 15.7971 22.0423 18.275 26.1475 18.275ZM39.9504 16.7189C41.1595 17.5843 43.1285 18.275 45.4334 18.275C48.9489 18.275 51.6196 16.4878 51.6196 13.2628C51.6196 10.6989 50.3835 9.14287 47.6831 8.13506L44.9004 7.09769C43.4658 6.58034 42.6507 6.06166 42.6507 4.76494C42.6507 3.32444 43.9436 2.63375 45.6871 2.63375C47.7114 2.63375 49.2863 3.41044 50.7208 4.53516V1.45125C49.343 0.530781 47.5711 0.0120937 45.6305 0.0120937C42.4537 0.0120937 39.81 1.71194 39.81 4.82272C39.81 7.73194 41.5536 8.99909 43.8586 9.86312L46.3619 10.7849C47.9085 11.3896 48.7802 11.9379 48.7802 13.3206C48.7802 14.9049 47.4024 15.6251 45.4334 15.6251C43.4092 15.6251 41.5252 14.8753 39.9504 13.5799V16.7189ZM62.0689 0.299656H59.1459V17.9861H62.0689V0.299656ZM70.4116 17.9646H73.2294V6.45806L85.0889 18.2387V0.272781H82.2792V11.5831L70.4116 0V17.9646ZM103.363 0.303687V2.95222H95.7703V7.20922H102.579V9.82819H95.7703V15.3147H103.363V17.9915H92.904V0.303687H103.363ZM110.171 16.7068C111.38 17.5722 113.348 18.2629 115.654 18.2629C119.168 18.2629 121.84 16.4771 121.84 13.2507C121.84 10.6868 120.603 9.13212 117.904 8.12297L115.12 7.08694C113.685 6.56825 112.87 6.04956 112.87 4.75284C112.87 3.31234 114.163 2.62166 115.906 2.62166C117.931 2.62166 119.506 3.39969 120.94 4.52306V1.4405C119.562 0.518688 117.79 0 115.85 0C112.673 0 110.029 1.69984 110.029 4.81063C110.029 7.71984 111.773 8.987 114.078 9.85103L116.581 10.7728C118.128 11.3775 119 11.9258 119 13.3085C119 14.8928 117.623 15.613 115.653 15.613C113.628 15.613 111.745 14.8646 110.171 13.5678V16.7068ZM127.831 16.7068C129.04 17.5722 131.009 18.2629 133.314 18.2629C136.829 18.2629 139.5 16.4771 139.5 13.2507C139.5 10.6868 138.262 9.13212 135.563 8.12297L132.779 7.08694C131.346 6.56825 130.53 6.04956 130.53 4.75284C130.53 3.31234 131.824 2.62166 133.566 2.62166C135.59 2.62166 137.167 3.39969 138.6 4.52306V1.4405C137.223 0.518688 135.451 0 133.511 0C130.333 0 127.69 1.69984 127.69 4.81063C127.69 7.71984 129.434 8.987 131.739 9.85103L134.242 10.7728C135.789 11.3775 136.661 11.9258 136.661 13.3085C136.661 14.8928 135.283 15.613 133.314 15.613C131.29 15.613 129.406 14.8646 127.831 13.5678V16.7068Z" fill="#1D0A43"/>
</svg>
