<svg width="444" height="608" viewBox="0 0 444 608" fill="none" xmlns="http://www.w3.org/2000/svg">
<rect width="444" height="608" fill="#FAF8F5"/>
<path d="M259.901 269H183.474C181.555 269 180 270.545 180 272.45V334.55C180 336.455 181.555 338 183.474 338H259.901C261.82 338 263.375 336.455 263.375 334.55V272.45C263.375 270.545 261.82 269 259.901 269Z" stroke="#EDEBE1" stroke-width="3" stroke-linecap="round" stroke-linejoin="round"/>
<path d="M263 335C263 336.657 261.657 338 260 338H188C183.582 338 180 334.418 180 330V321L201.842 298.799C202.166 298.467 202.551 298.203 202.976 298.023C203.401 297.843 203.857 297.75 204.317 297.75C204.778 297.75 205.234 297.843 205.659 298.023C206.084 298.203 206.469 298.467 206.793 298.799L226.16 318.4C226.483 318.733 226.869 318.996 227.293 319.177C227.718 319.357 228.175 319.449 228.635 319.449C229.096 319.449 229.552 319.357 229.977 319.177C230.402 318.996 230.787 318.733 231.11 318.4L240.056 309.347C240.379 309.015 240.764 308.751 241.189 308.571C241.614 308.391 242.07 308.298 242.531 308.298C242.992 308.298 243.448 308.391 243.873 308.571C244.298 308.751 244.683 309.015 245.006 309.347L263 327.5V335Z" fill="#EDEBE1" stroke="#EDEBE1" stroke-width="2" stroke-linecap="round" stroke-linejoin="round"/>
<path d="M238.875 291.281C238.875 294.025 236.65 296.25 233.906 296.25C231.162 296.25 228.938 294.025 228.938 291.281C228.938 288.537 231.162 286.312 233.906 286.312C236.65 286.312 238.875 288.537 238.875 291.281Z" fill="#EDEBE1" stroke="#EDEBE1" stroke-width="0.125"/>
</svg>
