<svg width="91" height="90" viewBox="0 0 91 90" fill="none" xmlns="http://www.w3.org/2000/svg">
<path d="M54.014 63.9232C52.6888 64.2109 51.3746 64.3562 50.1085 64.3562C45.6764 64.3562 42.8624 62.6386 42.3541 60.1823L42.354 60.1821L51.5181 51.9312C52.8433 51.6434 54.1573 51.4981 55.4234 51.4981C59.855 51.4981 62.6691 53.2155 63.1778 55.6715L63.6664 55.5705L63.1779 55.6716C63.2313 55.9299 63.2583 56.1954 63.2583 56.4614C63.2583 57.9851 62.3806 59.536 60.749 60.8819C59.1222 62.2238 56.7901 63.3202 54.014 63.9232ZM54.014 63.9232L54.1201 64.4118L54.014 63.9232C54.014 63.9232 54.014 63.9232 54.014 63.9232ZM20.401 54.6838L20.4008 54.6838C18.1722 54.0884 16.666 51.4867 16.666 47.3382C16.666 45.815 16.8733 44.2237 17.2849 42.6084L17.2849 42.6083C17.9817 39.8728 19.133 37.5733 20.4909 35.9684C21.855 34.3561 23.3794 33.4961 24.8288 33.4961C25.1526 33.4961 25.4733 33.5381 25.7817 33.6207L25.7819 33.6207C28.0105 34.2161 29.5168 36.8177 29.5168 40.9665C29.5168 42.4893 29.3095 44.0806 28.898 45.6962C28.2013 48.4316 27.0499 50.7311 25.692 52.3361C24.3278 53.9483 22.8035 54.8084 21.3541 54.8084C21.0302 54.8084 20.7096 54.7664 20.401 54.6838ZM30.2116 62.469L30.2118 62.4691C32.0786 62.9679 33.358 65.0934 33.358 68.5159C33.358 69.7345 33.1924 71.0074 32.8635 72.2991C32.2981 74.5191 31.3515 76.3814 30.2324 77.6781C29.108 78.9809 27.8539 79.6671 26.6643 79.6671C26.3858 79.6671 26.1094 79.6308 25.8429 79.5598C23.9746 79.0605 22.6953 76.9351 22.6953 73.5124C22.6953 72.2938 22.8608 71.0211 23.1898 69.7294C23.7553 67.5094 24.7019 65.6472 25.8211 64.3504C26.9454 63.0476 28.1996 62.3613 29.3891 62.3613C29.6686 62.3613 29.9453 62.3977 30.2116 62.469ZM58.9053 18.9622L58.9053 18.9623C59.1857 20.3158 59.3272 21.6586 59.3272 22.9526C59.3272 25.1916 58.9083 27.059 58.1835 28.4222C57.4615 29.7799 56.4502 30.6175 55.2462 30.8788L55.2462 30.8788C54.9911 30.9342 54.7284 30.9623 54.4664 30.9623C52.9834 30.9623 51.4659 30.0713 50.1447 28.3992C48.8286 26.7334 47.7541 24.3445 47.1651 21.5001C46.8847 20.1455 46.7432 18.8031 46.7432 17.5101C46.7432 15.271 47.1621 13.4035 47.8869 12.0403C48.6089 10.6826 49.6201 9.84494 50.8241 9.58349C51.0793 9.52809 51.3416 9.5 51.604 9.5C53.087 9.5 54.6046 10.391 55.9257 12.0632C57.2418 13.7289 58.3163 16.1178 58.9053 18.9622ZM29.1613 19.0294L29.1611 19.0294C27.14 18.5338 25.6992 16.1233 25.6992 12.3604C25.6992 11.1304 25.852 9.84915 26.1549 8.55233C26.7217 6.12762 27.7046 4.09313 28.8838 2.6759C30.0681 1.25259 31.4052 0.5 32.6894 0.5C32.9583 0.5 33.2256 0.532191 33.4839 0.595629L33.4841 0.595677C35.5054 1.09131 36.9463 3.50184 36.9463 7.26469C36.9463 8.49465 36.7935 9.77591 36.4907 11.0727C35.9238 13.4974 34.9408 15.5319 33.7615 16.9491C32.5771 18.3725 31.2399 19.1251 29.9557 19.1251C29.6868 19.1251 29.4195 19.0929 29.1613 19.0294ZM22.7834 17.4739L22.7835 17.4739C25.1495 18.054 27.1355 19.0566 28.5196 20.2585C29.9084 21.4646 30.6503 22.831 30.6503 24.1504C30.6503 24.4224 30.6192 24.693 30.5581 24.9543C30.0725 27.0316 27.7082 28.4952 24.0308 28.4952C22.8262 28.4952 21.5718 28.3384 20.3026 28.0272C17.9364 27.447 15.9504 26.4444 14.5663 25.2425C13.1774 24.0365 12.4355 22.6701 12.4355 21.3507C12.4355 21.079 12.4667 20.8084 12.5277 20.5469C13.0135 18.4693 15.3778 17.0059 19.0553 17.0059C20.2598 17.0059 21.5142 17.1625 22.7834 17.4739ZM60.5782 46.029L60.5781 46.0289C58.212 45.4488 56.2259 44.4463 54.8417 43.2443C53.4528 42.0383 52.7109 40.6719 52.7109 39.3524C52.7109 39.0803 52.7421 38.8094 52.8034 38.5481L52.8035 38.5477C53.289 36.4715 55.6533 35.0078 59.3308 35.0078C60.5354 35.0078 61.7896 35.1646 63.0588 35.4759C65.425 36.0561 67.411 37.0587 68.7952 38.2606C70.1842 39.4667 70.926 40.8331 70.926 42.1524C70.926 42.4244 70.8949 42.6952 70.8336 42.9566L70.8335 42.9569C70.3479 45.0335 67.9835 46.497 64.3061 46.497C63.1016 46.497 61.8474 46.3404 60.5782 46.029ZM78.7593 7.70056L78.6532 7.21195L78.7594 7.70055C80.0841 7.41271 81.3979 7.26758 82.6643 7.26758C87.0961 7.26758 89.9104 8.98514 90.419 11.4412C90.4726 11.7003 90.4996 11.9656 90.4996 12.2308C90.4996 13.7543 89.622 15.3053 87.9904 16.6511C86.3635 17.9931 84.0314 19.0896 81.2552 19.6927C79.9302 19.9804 78.6162 20.1257 77.3501 20.1257C72.9182 20.1257 70.1039 18.4081 69.5953 15.9519C69.5417 15.6931 69.5146 15.4276 69.5146 15.1625C69.5146 13.6389 70.3923 12.0879 72.0239 10.7421C73.6508 9.40013 75.983 8.30367 78.7593 7.70056ZM2.88205 56.0408L2.88208 56.0407C3.43034 55.3573 4.50206 54.5019 6.50666 54.5019C8.97119 54.5019 12.1279 55.8602 14.9243 58.2129C18.2512 61.0122 20.2259 64.4514 20.2259 67.1365C20.2259 68.2026 19.9112 69.1348 19.338 69.8493L19.338 69.8494C18.7899 70.5327 17.7181 71.3881 15.7134 71.3881C13.2489 71.3881 10.092 70.0298 7.29564 67.677C3.96872 64.8776 1.99423 61.4386 1.99423 58.7536C1.99423 57.6873 2.30888 56.7551 2.88205 56.0408ZM57.5734 81.9981C54.7819 81.9981 52.502 79.7031 52.502 76.8731C52.502 74.043 54.7819 71.748 57.5734 71.748C60.3648 71.748 62.6448 74.043 62.6448 76.8731C62.6448 79.7031 60.3648 81.9981 57.5734 81.9981ZM78.499 31.6776C78.499 29.9911 79.8573 28.627 81.5158 28.627C83.1744 28.627 84.5326 29.9911 84.5326 31.6776C84.5326 33.3638 83.1744 34.7282 81.5158 34.7282C79.8573 34.7282 78.499 33.3638 78.499 31.6776ZM5.5724 12.6309C2.78096 12.6309 0.500977 10.3359 0.500977 7.50586C0.500977 4.67586 2.78096 2.38086 5.5724 2.38086C8.36385 2.38086 10.6438 4.67585 10.6438 7.50586C10.6438 10.3359 8.36385 12.6309 5.5724 12.6309Z" stroke="#1D0A43"/>
<path d="M22.594 87.9819C22.7171 86.2803 22.7795 84.5482 22.7795 82.8341C22.7795 66.098 16.8246 51.7325 11.8289 42.6283C6.38429 32.7059 0.859845 26.6924 0.804688 26.6328" stroke="#1D0A43"/>
<path d="M35.6152 81.3027C37.2088 71.8193 39.9871 62.5634 43.873 53.7914C46.9811 46.7751 50.8013 40.0514 55.2269 33.8067C62.7827 23.1458 69.4219 17.6264 69.7009 17.3965" stroke="#1D0A43"/>
<path d="M34.3971 47.5848C35.1888 45.2083 35.0601 41.5253 35.0601 39C35.0601 21.8109 16.5232 4.19815 14.1748 2.25" stroke="#1D0A43"/>
</svg>
