<svg width="101" height="100" viewBox="0 0 101 100" fill="none" xmlns="http://www.w3.org/2000/svg">
<path fill-rule="evenodd" clip-rule="evenodd" d="M52.5258 17.7319C53.1391 16.9068 53.5 15.862 53.5 15C53.5 13.2148 52.8189 11.1238 51.9806 9.44721C51.5653 8.6167 51.132 7.92929 50.7638 7.46563C50.6647 7.3409 50.5763 7.23988 50.5 7.16028C50.4237 7.23988 50.3353 7.3409 50.2362 7.46563C49.868 7.92929 49.4347 8.6167 49.0194 9.44721C48.1811 11.1238 47.5 13.2148 47.5 15C47.5 15.862 47.8609 16.9068 48.4742 17.7319C49.0948 18.5669 49.8318 19 50.5 19C51.1682 19 51.9052 18.5669 52.5258 17.7319ZM50.7443 6.9471C50.7443 6.94755 50.7393 6.95076 50.7297 6.95539C50.7396 6.94898 50.7444 6.94666 50.7443 6.9471ZM50.2703 6.95539C50.2607 6.95076 50.2557 6.94755 50.2557 6.9471C50.2556 6.94666 50.2604 6.94898 50.2703 6.95539ZM50.5 20C52.7091 20 54.5 17.2091 54.5 15C54.5 11 51.5 6 50.5 6C49.5 6 46.5 11 46.5 15C46.5 17.2091 48.2909 20 50.5 20Z" fill="#1D0A43"/>
<path fill-rule="evenodd" clip-rule="evenodd" d="M56.6635 26.2496L56.6408 26.2684C53.8596 28.5861 52.5671 31.6132 51.9734 34.1068C51.6773 35.3505 51.5589 36.4466 51.5146 37.2286C51.5142 37.2364 51.5137 37.2442 51.5133 37.2519C52.1433 37.0861 52.9858 36.8291 53.9417 36.4467C56.0405 35.6072 58.6424 34.1811 60.7573 31.8312C63.8346 28.412 65.21 23.702 65.7375 21.3131C63.6904 21.8701 59.8715 23.2393 56.6849 26.2294L56.6635 26.2496ZM51.4932 38.2891C50.8698 38.4434 50.5006 38.5002 50.5006 38.5002C50.5006 38.5002 50.4771 38.1243 50.5014 37.4846C50.5892 35.173 51.3012 29.4164 56.0006 25.5002C59.7046 22.0245 64.1923 20.6458 66.0867 20.1913C66.5417 20.0822 66.9313 20.4619 66.841 20.921C66.4172 23.076 65.0439 28.5631 61.5006 32.5002C58.0731 36.3085 53.4854 37.7963 51.4932 38.2891Z" fill="#1D0A43"/>
<path fill-rule="evenodd" clip-rule="evenodd" d="M44.5397 26.2496L44.5623 26.2684C47.3435 28.5861 48.636 31.6132 49.2297 34.1068C49.5258 35.3505 49.6443 36.4466 49.6885 37.2286C49.689 37.2364 49.6894 37.2442 49.6898 37.2519C49.0598 37.0861 48.2174 36.8291 47.2614 36.4467C45.1626 35.6072 42.5608 34.1811 40.4458 31.8312C37.3686 28.412 35.9931 23.702 35.4656 21.3131C37.5127 21.8701 41.3316 23.2393 44.5182 26.2294L44.5397 26.2496ZM49.7099 38.2891C50.3333 38.4434 50.7026 38.5002 50.7026 38.5002C50.7026 38.5002 50.7261 38.1243 50.7017 37.4846C50.6139 35.173 49.9019 29.4164 45.2025 25.5002C41.4985 22.0245 37.0108 20.6458 35.1164 20.1913C34.6615 20.0822 34.2719 20.4619 34.3621 20.921C34.7859 23.076 36.1592 28.5631 39.7026 32.5002C43.13 36.3085 47.7177 37.7963 49.7099 38.2891Z" fill="#1D0A43"/>
<path fill-rule="evenodd" clip-rule="evenodd" d="M63.0289 39.8473L63.0035 39.8622C58.1295 42.7189 55.201 46.9051 53.4864 50.4103C52.6303 52.1604 52.0826 53.7295 51.7498 54.8572C51.687 55.0698 51.632 55.2665 51.584 55.4455C51.7091 55.44 51.8427 55.4333 51.9844 55.425C53.0306 55.3637 54.5114 55.2178 56.2344 54.8791C59.6894 54.1999 64.0652 52.7565 67.8742 49.7177C73.8313 44.9652 76.9849 37.3188 78.0992 34.1143C75.3125 34.5106 69.0809 35.8038 63.0534 39.8309L63.0289 39.8473ZM51.3412 56.4555C50.6896 56.4766 50.321 56.4629 50.321 56.4629C50.321 56.4629 50.384 56.0989 50.5449 55.4669C51.288 52.5475 54.1213 43.9091 62.4978 38.9995C69.1717 34.5404 76.0737 33.3447 78.5584 33.0452C79.0331 32.988 79.3855 33.42 79.2361 33.8742C78.3128 36.682 75.0747 45.2525 68.4979 50.4994C62.0554 55.6392 54.1217 56.3651 51.3412 56.4555Z" fill="#1D0A43"/>
<path fill-rule="evenodd" clip-rule="evenodd" d="M37.7445 39.8473L37.7699 39.8622C42.6439 42.7189 45.5724 46.9051 47.287 50.4103C48.1431 52.1604 48.6909 53.7295 49.0237 54.8572C49.0864 55.0698 49.1415 55.2665 49.1894 55.4455C49.0643 55.44 48.9307 55.4333 48.7891 55.425C47.7428 55.3637 46.262 55.2178 44.539 54.8791C41.084 54.1999 36.7082 52.7565 32.8992 49.7177C26.9421 44.9652 23.7886 37.3188 22.6743 34.1143C25.4609 34.5106 31.6926 35.8038 37.7201 39.8309L37.7445 39.8473ZM49.4322 56.4555C50.0838 56.4766 50.4524 56.4629 50.4524 56.4629C50.4524 56.4629 50.3895 56.0989 50.2286 55.4669C49.4854 52.5475 46.6522 43.9091 38.2756 38.9995C31.6017 34.5404 24.6997 33.3447 22.215 33.0452C21.7404 32.988 21.388 33.42 21.5373 33.8742C22.4607 36.682 25.6987 45.2525 32.2756 50.4994C38.7181 55.6392 46.6518 56.3651 49.4322 56.4555Z" fill="#1D0A43"/>
<path fill-rule="evenodd" clip-rule="evenodd" d="M49.9026 46.4906C49.8827 37.9858 49.8616 28.9862 49.9992 19.4933L50.9991 19.5077C50.8622 28.9536 50.8831 37.9314 50.9028 46.4285C50.9392 62.1341 50.9718 76.1975 49.9976 88.5398L49.0007 88.4612C49.9719 76.157 49.9392 62.1639 49.9026 46.4906Z" fill="#1D0A43"/>
<path fill-rule="evenodd" clip-rule="evenodd" d="M37.0585 80.6878C29.2471 80.6254 19.7731 80.7509 13.0553 81.4973C12.7808 81.5278 12.5336 81.33 12.5031 81.0556C12.4726 80.7811 12.6704 80.5339 12.9448 80.5034C19.727 79.7499 29.253 79.6254 37.0665 79.6879C40.9769 79.7192 44.4647 79.7974 46.975 79.8677C48.2302 79.9029 49.2411 79.9362 49.9385 79.9606C50.2871 79.9729 50.5574 79.9829 50.7406 79.9899L50.9491 79.9979L51.0023 80L51.015 80.0006L51.0282 80.0008L51.2843 80.0066C51.4637 80.0108 51.7283 80.0171 52.0696 80.0259C52.7521 80.0435 53.7414 80.0709 54.9691 80.11C57.4243 80.1882 60.8335 80.3133 64.6496 80.501C72.2754 80.876 81.5481 81.5019 88.0761 82.5062C88.349 82.5482 88.5362 82.8035 88.4942 83.0764C88.4522 83.3493 88.1969 83.5365 87.924 83.4945C81.452 82.4988 72.2247 81.8747 64.6005 81.4998C60.7915 81.3124 57.3883 81.1875 54.9373 81.1095C53.7118 81.0705 52.7245 81.0431 52.0438 81.0256C51.7034 81.0168 51.4397 81.0105 51.2612 81.0063L50.9907 81.0003C50.9905 81.0003 50.9896 81.0003 51 80.5004C50.9797 80.9999 50.9796 80.9999 50.9794 80.9999L50.9096 80.9971L50.7026 80.9891C50.5203 80.9822 50.251 80.9722 49.9034 80.96C49.2082 80.9356 48.1996 80.9025 46.947 80.8674C44.4416 80.7971 40.9607 80.7191 37.0585 80.6878ZM51 80.5004L50.9794 80.9999L50.9896 81.0003L51 80.5004Z" fill="#1D0A43"/>
<path fill-rule="evenodd" clip-rule="evenodd" d="M41.0802 89.1872C35.7698 89.3746 29.2958 89.749 24.5781 90.4939C24.3053 90.5369 24.0493 90.3507 24.0062 90.078C23.9631 89.8052 24.1493 89.5492 24.4221 89.5061C29.2043 88.751 35.7304 88.3754 41.0449 88.1878C43.7056 88.0939 46.0686 88.047 47.7666 88.0235C48.6156 88.0117 49.2986 88.0059 49.7694 88.0029C50.0048 88.0015 50.1873 88.0007 50.311 88.0004L50.4517 88L50.4992 88C50.4994 88 50.5001 88 50.5001 88.5L50.4992 88L50.5092 88L50.5002 88.4931C50.5092 88.0001 50.509 88 50.5092 88L50.7258 88.0043C50.8677 88.0071 51.077 88.0114 51.3469 88.0173C51.8866 88.029 52.6686 88.0471 53.6381 88.0723C55.5771 88.1229 58.2667 88.2023 61.2693 88.3178C67.2695 88.5487 74.5365 88.9242 79.5574 89.5033C79.8317 89.5349 80.0284 89.783 79.9968 90.0573C79.9651 90.3316 79.7171 90.5283 79.4428 90.4967C74.4637 89.9224 67.2307 89.5479 61.2309 89.3171C58.2334 89.2018 55.548 89.1225 53.612 89.072C52.6441 89.0468 51.8636 89.0287 51.3251 89.017C51.0559 89.0112 50.8472 89.0069 50.7059 89.0041L50.4956 89L50.4532 89L50.3139 89.0004C50.1913 89.0007 50.0099 89.0015 49.7757 89.0029C49.3071 89.0058 48.6267 89.0117 47.7804 89.0234C46.0878 89.0468 43.7321 89.0936 41.0802 89.1872Z" fill="#1D0A43"/>
<path fill-rule="evenodd" clip-rule="evenodd" d="M51.3702 94.4367C44.876 94.3743 37.2696 94.4994 31.5433 94.9973C31.2682 95.0213 31.0258 94.8176 31.0019 94.5425C30.978 94.2674 31.1816 94.025 31.4567 94.0011C37.2305 93.499 44.8741 93.3742 51.3798 93.4368C54.6344 93.468 57.609 93.5463 59.9282 93.6482C62.2279 93.7492 63.9272 93.8748 64.5981 94.0089C64.8689 94.0631 65.0445 94.3265 64.9903 94.5973C64.9362 94.8681 64.6728 95.0437 64.402 94.9895C63.8228 94.8737 62.2096 94.7493 59.8843 94.6472C57.5786 94.5459 54.6156 94.4679 51.3702 94.4367Z" fill="#1D0A43"/>
</svg>
