<svg width="220" height="43" viewBox="0 0 220 43" fill="none" xmlns="http://www.w3.org/2000/svg">
<path d="M30.7357 13.1459C29.5424 13.1459 28.4906 13.4696 27.6007 14.0359C26.5894 10.5368 23.5353 8.55469 18.9036 8.55469H11.5819V11.1031H19.1059C22.9488 11.1031 25.214 13.1864 25.214 16.827C25.214 20.4677 22.9488 22.5509 19.1059 22.5509H19.0452L19.4699 21.9239C20.4003 20.5283 21.2498 19.153 21.2498 17.8585C21.2498 15.1887 19.5508 13.1662 16.2338 13.1662C13.3617 13.1662 11.1976 15.3708 11.1976 17.9597H13.9281C13.9281 16.6652 14.7775 15.7146 16.2338 15.7146C17.7912 15.7146 18.5193 16.6248 18.5193 17.9394C18.5193 18.9507 17.8721 19.962 17.1642 20.9935L16.072 22.5711H11.5819V25.1196H14.3326L9.53906 32.1379H21.0273V29.5693H14.2517L17.3058 25.0994H18.9036C19.1665 25.0994 19.4295 25.0994 19.6924 25.0791L27.722 35.5561H31.1806L28.5311 32.1177L33.5673 24.7555C34.8617 22.9352 36.3787 20.9531 36.3787 18.6676C36.3584 15.6539 34.0527 13.1459 30.7357 13.1459ZM26.8321 29.9333L22.6858 24.5735C24.2028 24.0881 25.4365 23.2791 26.3265 22.1666C27.3175 23.4206 28.8749 24.2094 30.7559 24.2094C30.7761 24.2094 30.8773 24.2094 30.8975 24.2094L26.8321 29.9333ZM30.7357 21.6812C28.9963 21.6812 27.8636 20.3665 27.8636 18.6878C27.8636 18.5462 27.8636 18.4249 27.8838 18.2833C27.8838 18.2631 27.8838 18.2428 27.8838 18.2024C28.0861 16.7663 29.1581 15.6944 30.7155 15.6944C32.4549 15.6944 33.5875 17.0091 33.5875 18.6878C33.6077 20.3665 32.4751 21.6812 30.7357 21.6812Z" fill="#1D0A43"/>
<path d="M22.1211 0C10.2688 0 0.621094 9.6477 0.621094 21.5C0.621094 33.3523 10.2688 43 22.1211 43C33.9734 43 43.6211 33.3523 43.6211 21.4798C43.6211 9.62747 33.9734 0 22.1211 0ZM22.1211 40.4515C11.6644 40.4515 3.16954 31.9567 3.16954 21.5C3.16954 11.0433 11.6644 2.54845 22.1211 2.54845C32.5778 2.54845 41.0726 11.0433 41.0726 21.5C41.0726 31.9365 32.5778 40.4515 22.1211 40.4515Z" fill="#1D0A43"/>
<path d="M67.6726 20.4138C68.7109 19.4384 69.3716 18.0541 69.3716 16.5124C69.3716 14.9708 68.7109 13.5864 67.6726 12.6111C66.7287 11.7302 65.4702 11.1953 63.5196 11.1953H56.5664V30.2615H60.2475V21.8296H61.5689L68.3648 30.2615H72.8954L65.7534 21.515C66.54 21.2633 67.1692 20.8857 67.6726 20.4138ZM65.1556 17.9912C64.841 18.3373 64.3691 18.5575 63.2993 18.5575H60.2475V14.4674H63.2993C64.3691 14.4674 64.841 14.7191 65.1556 15.0652C65.4702 15.4113 65.6905 15.9776 65.6905 16.5439C65.6905 17.0788 65.4702 17.6136 65.1556 17.9912Z" fill="#1D0A43"/>
<path d="M79.0952 21.6723H84.9471V18.4002H79.0952V14.4674H86.8349V11.1953H75.4141V30.2615H87.118V26.9894H79.0952V21.6723Z" fill="#1D0A43"/>
<path d="M91.9297 30.2615H95.6108V21.6723H101.463V18.4002H95.6108V14.4674H103.351V11.1953H91.9297V30.2615Z" fill="#1D0A43"/>
<path d="M110.9 11.1953H107.219V30.2615H110.9V11.1953Z" fill="#1D0A43"/>
<path d="M129.37 23.6229L118.736 11.1953H116.156V30.2615H119.837V17.8339L130.472 30.2615H133.052V11.1953H129.37V23.6229Z" fill="#1D0A43"/>
<path d="M142.333 21.6723H148.185V18.4002H142.333V14.4674H150.073V11.1953H138.652V30.2615H150.356V26.9894H142.333V21.6723Z" fill="#1D0A43"/>
<path d="M166.274 20.4138C167.312 19.4384 167.973 18.0541 167.973 16.5124C167.973 14.9708 167.312 13.5864 166.274 12.6111C165.33 11.7302 164.072 11.1953 162.121 11.1953H155.168V30.2615H158.849V21.8296H160.17L166.935 30.2615H171.497L164.355 21.515C165.142 21.2633 165.739 20.8857 166.274 20.4138ZM163.726 17.9912C163.411 18.3373 162.939 18.5575 161.869 18.5575H158.818V14.4674H161.869C162.939 14.4674 163.411 14.7191 163.726 15.0652C164.04 15.4113 164.261 15.9776 164.261 16.5439C164.292 17.0788 164.072 17.6136 163.726 17.9912Z" fill="#1D0A43"/>
<path d="M179.143 17.8968L174.927 11.1953H170.742L177.286 21.6408V30.2615H180.967V21.6408L187.48 11.1953H183.296L179.143 17.8968Z" fill="#1D0A43"/>
<path d="M200.096 22.1133C201.417 20.3829 202.172 18.9041 202.172 16.5445C202.172 13.0522 199.215 10.5352 195.943 10.5352H195.817C192.545 10.5352 189.808 12.9578 189.587 16.4815H193.268C193.268 15.1287 194.464 13.8702 195.88 13.8702C197.327 13.8702 198.491 15.1287 198.491 16.4815C198.491 17.4883 198.365 18.5266 196.981 20.2885L188.801 30.262H202.864V26.927H196.1L200.096 22.1133Z" fill="#1D0A43"/>
<path d="M212.397 10.5352C208.685 10.5352 205.633 13.587 205.633 17.3625C205.633 21.2638 208.685 24.064 212.303 24.064H212.555L208.936 30.262H212.995L217.494 22.5538C218.501 20.8233 219.382 19.1244 219.382 17.2052C219.382 13.1151 215.952 10.5352 212.397 10.5352ZM212.492 20.7604C210.604 20.7604 209.062 19.2188 209.062 17.331C209.062 15.4433 210.604 13.9016 212.492 13.9016C214.379 13.9016 215.921 15.4433 215.921 17.331C215.921 19.2188 214.379 20.7604 212.492 20.7604Z" fill="#1D0A43"/>
</svg>
