<svg width="144" height="35" viewBox="0 0 144 35" fill="none" xmlns="http://www.w3.org/2000/svg">
<path d="M5.19787 1.34382H16.9612C17.0302 1.34382 17.0018 1.69382 16.9612 1.69382H14.5274C14.5274 1.69382 13.8379 1.67371 14.061 2.04382C14.1015 2.11221 22.3683 24.5122 22.3683 24.5122C22.3683 24.5122 22.5022 24.9145 22.6361 24.9145C22.6361 24.9145 29.9659 2.42601 29.9902 2.38578C30.0592 2.16451 30.3228 1.65762 29.8807 1.65762H27.2076C27.167 1.65762 27.167 1.30762 27.2076 1.30762H33.5192C33.5598 1.30762 33.5598 1.65762 33.5192 1.65762H31.1787C30.5419 1.65762 30.5419 1.83463 30.4242 2.16451C30.3553 2.34153 20.2063 33.7289 20.2063 33.7289L20.1171 33.4634C15.789 21.153 9.1244 4.02313 8.59302 2.18463C8.43482 1.64555 8.34558 1.64555 8.0373 1.64555H5.21815C5.12891 1.68176 5.12891 1.34382 5.19787 1.34382Z" fill="#1D0A43"/>
<path d="M35.7747 17.1536C35.7747 8.17024 37.5068 0.836338 43.9482 0.836338C50.844 0.836338 52.211 8.48002 52.211 17.1576C52.211 26.1409 50.9008 33.8973 43.9929 33.8973C36.5982 33.8731 35.7747 26.5915 35.7747 17.1536ZM43.8631 34.1346C50.7264 34.1547 58.1211 26.6237 58.1414 17.3306C58.1616 7.57484 51.0347 0.635188 43.9726 0.566798C36.7401 0.50243 29.8281 8.38749 29.8281 17.3306C29.8281 26.5835 36.3751 34.1145 43.859 34.1386L43.8631 34.1346Z" fill="#1D0A43"/>
<path d="M77.5494 20.2842H80.2347C80.2347 20.2842 80.7255 20.244 80.7255 20.4814V28.0808C80.7255 33.9423 74.8438 33.9946 73.1766 33.7934C67.0232 33.1095 66.8934 20.5176 66.869 17.2066C66.7839 8.22332 68.2076 0.398604 74.3935 0.712397C81.7477 1.08653 83.6542 11.5262 83.788 11.9768C84.0314 12.0653 84.0314 11.8681 84.0314 11.8681L84.0517 0.466994C84.0517 0.466994 84.0111 0.378489 83.8529 0.507224L83.6745 0.684236C80.4294 3.99113 78.8068 0.527339 74.0772 0.374466C68.2563 0.197454 61.0157 8.19516 60.9306 17.4239C60.8454 26.6526 66.9948 33.89 73.704 34.1193C77.3547 34.2521 77.2817 33.2745 81.768 31.8745C84.5222 31.0296 85.8243 32.8681 85.9217 33.6365C85.9386 33.6525 85.9599 33.6632 85.983 33.6671C86.006 33.671 86.0297 33.6681 86.051 33.6586C86.0724 33.6491 86.0904 33.6335 86.1027 33.6138C86.1151 33.5941 86.1212 33.5712 86.1204 33.548V20.5176C86.1204 20.2521 86.4733 20.2963 86.4733 20.2963H88.9599C89.0288 20.2963 89.0288 19.9463 88.9599 19.9463H77.5494C77.4399 19.9342 77.4399 20.2842 77.5494 20.2842Z" fill="#1D0A43"/>
<path d="M137.822 1.34455V13.0394C137.822 13.1078 137.599 13.1078 137.599 13.0394C137.599 12.971 137.822 1.68248 127.231 1.68248H123.256C123.033 1.68248 122.903 1.72271 122.903 1.8796V16.4589C122.903 16.5917 123.037 16.6802 123.256 16.6802H124.591C130.874 16.6802 130.387 10.4244 130.387 10.348C130.387 10.2716 130.631 10.2796 130.631 10.348C130.631 10.4164 130.631 23.4951 130.631 23.5434C130.631 23.5917 130.452 23.6118 130.452 23.5434C130.452 23.475 130.294 17.0262 124.453 17.0262H123.313C123.114 17.0262 122.96 17.0945 122.96 17.2474V32.9894C122.96 33.098 123.094 33.2106 123.313 33.2106C124.201 33.2106 126.489 33.2106 127.11 33.2308C138.467 33.2509 138.329 21.1618 138.329 21.0974C138.329 21.0331 138.617 21.029 138.617 21.0974V33.6089H114.62C114.551 33.6089 114.551 33.2589 114.62 33.2589H117.017C117.241 33.2589 117.37 33.1905 117.37 33.0377V1.87156C117.37 1.67443 117.103 1.65029 117.017 1.65029H111.712C111.712 1.65029 111.359 1.65029 111.359 1.84742V25.4624C111.359 32.0721 106.252 34.2083 102.585 34.2727C98.2569 34.2928 90.4809 33.5687 90.4809 24.0503C90.4809 24.0503 90.4606 2.39857 90.4606 2.09282C90.4403 1.63018 89.8603 1.69052 89.8603 1.69052H87.3291C87.2399 1.69052 87.2601 1.34052 87.3291 1.34052H99.2953C99.3643 1.34052 99.3359 1.69052 99.2953 1.69052H96.7398C96.7398 1.69052 95.961 1.65029 95.961 2.15317C95.961 2.88133 95.9813 26.3152 95.9813 27.1319C95.9813 30.7888 98.0662 34.0273 102.601 33.9388C106.13 33.8704 111.063 31.8026 111.038 25.4624V1.8273C111.038 1.65029 110.661 1.63018 110.661 1.63018H107.327C107.258 1.63018 107.258 1.30029 107.327 1.30029C107.355 1.34455 137.822 1.34455 137.822 1.34455Z" fill="#1D0A43"/>
<path d="M6.08356 3.25782C6.01848 3.3037 5.94029 3.32767 5.86046 3.32621C5.75342 3.32431 5.6503 3.28596 5.5684 3.21759C5.52922 3.17649 5.49921 3.12766 5.48034 3.07429C5.46146 3.02091 5.45415 2.96419 5.45888 2.90782C5.45744 2.79499 5.49623 2.68528 5.5684 2.59805C5.59983 2.55486 5.64133 2.51986 5.68937 2.49604C5.7374 2.47222 5.79054 2.46029 5.84423 2.46127C5.9122 2.46426 5.97928 2.47784 6.04299 2.5015C6.09556 2.52176 6.13974 2.55895 6.16843 2.6071C6.19712 2.65526 6.20866 2.71158 6.20119 2.76702H6.08356C6.08175 2.7414 6.07471 2.71642 6.06285 2.6936C6.051 2.67077 6.03458 2.65058 6.0146 2.63426C5.99511 2.6118 5.97076 2.59399 5.94338 2.58215C5.91599 2.57031 5.88626 2.56474 5.8564 2.56587C5.81036 2.56479 5.76496 2.5767 5.72547 2.6002C5.68597 2.6237 5.65402 2.65783 5.6333 2.69863C5.6094 2.75481 5.59567 2.81473 5.59274 2.87564C5.59177 2.96101 5.61572 3.04484 5.6617 3.11702C5.68416 3.14769 5.71433 3.17199 5.7492 3.18752C5.78407 3.20304 5.82242 3.20925 5.86046 3.20552C5.90812 3.20563 5.95473 3.19162 5.99432 3.16529C6.03946 3.13699 6.07153 3.09218 6.08356 3.04058H6.21742C6.19457 3.12416 6.14813 3.19953 6.08356 3.25782ZM5.39804 2.45322C5.3428 2.50513 5.29856 2.56745 5.26791 2.63653C5.23727 2.70561 5.22083 2.78006 5.21956 2.85552C5.22094 3.02602 5.28432 3.19029 5.39804 3.31817C5.45038 3.37295 5.51321 3.41682 5.58286 3.44722C5.65252 3.47761 5.72758 3.49392 5.80367 3.49518C5.88358 3.49678 5.96302 3.48275 6.03746 3.45389C6.1119 3.42504 6.17988 3.38192 6.23751 3.327C6.29514 3.27208 6.3413 3.20644 6.37335 3.13383C6.4054 3.06121 6.42271 2.98305 6.42429 2.9038V2.85552C6.41674 2.70421 6.3532 2.56097 6.24581 2.45322C6.19347 2.39844 6.13064 2.35456 6.06098 2.32417C5.99133 2.29377 5.91626 2.27747 5.84018 2.27621C5.76378 2.27555 5.68812 2.29099 5.61819 2.3215C5.54826 2.35202 5.48566 2.39692 5.43454 2.45322H5.39804ZM6.37561 3.42276C6.30846 3.49422 6.22665 3.55059 6.13569 3.58806C6.04473 3.62553 5.94673 3.64325 5.84829 3.64C5.64852 3.63895 5.45723 3.55977 5.31597 3.41967C5.17471 3.27957 5.09488 3.08986 5.09381 2.89173C5.09252 2.7934 5.11166 2.69586 5.15004 2.60519C5.18843 2.51452 5.24523 2.43266 5.31691 2.36472C5.38415 2.29201 5.46645 2.23458 5.55818 2.19639C5.6499 2.1582 5.74887 2.14014 5.84829 2.14345C5.94743 2.14217 6.04578 2.16116 6.1372 2.19922C6.22863 2.23729 6.31116 2.29363 6.37967 2.36472C6.45299 2.4314 6.51088 2.51303 6.54939 2.604C6.5879 2.69497 6.60611 2.79312 6.60277 2.89173C6.60311 2.98992 6.58354 3.08718 6.54521 3.17772C6.50689 3.26825 6.45059 3.35022 6.37967 3.41874L6.37561 3.42276Z" fill="#1D0A43"/>
<path d="M37.7531 17.3305C37.5788 17.4533 37.3655 17.5091 37.1528 17.4874H36.8201V18.292H36.5078V16.0914H37.1487C37.3682 16.0637 37.59 16.1198 37.7693 16.2483C37.8507 16.3153 37.9166 16.3988 37.9628 16.4931C38.009 16.5875 38.0343 16.6906 38.037 16.7954C38.0287 16.899 37.9992 16.9998 37.9504 17.0918C37.9016 17.1838 37.8345 17.265 37.7531 17.3305ZM37.5097 16.4856C37.3841 16.4241 37.2431 16.4003 37.1041 16.4172H36.7877V17.2218H37.1C37.2298 17.2353 37.3607 17.2116 37.4773 17.1534C37.5345 17.1198 37.5814 17.0713 37.6128 17.0132C37.6443 16.955 37.6591 16.8895 37.6558 16.8236C37.6662 16.7552 37.6569 16.6852 37.6289 16.6218C37.6009 16.5585 37.5553 16.5043 37.4976 16.4655L37.5097 16.4856Z" fill="#1D0A43"/>
<path d="M39.3117 18.3441C39.0073 18.3409 38.7164 18.2183 38.5029 18.0031C38.2893 17.7879 38.1703 17.4975 38.1719 17.1956C38.1735 16.8936 38.2956 16.6046 38.5114 16.3916C38.7273 16.1786 39.0194 16.0591 39.3239 16.0591C39.6284 16.0591 39.9204 16.1786 40.1363 16.3916C40.3522 16.6046 40.4743 16.8936 40.4759 17.1956C40.4775 17.4975 40.3585 17.7879 40.1449 18.0031C39.9313 18.2183 39.6405 18.3409 39.336 18.3441H39.3117ZM39.3117 16.3607C39.1432 16.3607 38.9785 16.4103 38.8385 16.5031C38.6984 16.596 38.5892 16.7279 38.5247 16.8823C38.4602 17.0366 38.4434 17.2065 38.4762 17.3704C38.5091 17.5343 38.5902 17.6848 38.7094 17.803C38.8285 17.9211 38.9803 18.0016 39.1455 18.0342C39.3108 18.0668 39.482 18.05 39.6377 17.9861C39.7933 17.9221 39.9264 17.8139 40.02 17.6749C40.1136 17.536 40.1635 17.3727 40.1635 17.2056C40.1635 16.9815 40.0738 16.7666 39.914 16.6082C39.7543 16.4498 39.5376 16.3607 39.3117 16.3607Z" fill="#1D0A43"/>
<path d="M41.7802 17.4667L42.3115 18.3115H41.9059L41.4151 17.5069H41.1028V18.3115H40.7539V16.0908H41.3745C41.5876 16.0694 41.8024 16.107 41.9952 16.1995C42.0958 16.2638 42.1788 16.3519 42.2369 16.4557C42.2949 16.5596 42.3261 16.6761 42.3278 16.7949C42.3324 16.9532 42.2797 17.108 42.1792 17.2312C42.0788 17.3544 41.9373 17.438 41.7802 17.4667ZM41.8207 16.473C41.6974 16.4041 41.5562 16.3733 41.4151 16.3845H41.1028V17.2294H41.48C41.8329 17.2294 41.9911 17.0322 41.9911 16.8271C42.0011 16.7576 41.9894 16.6868 41.9575 16.6242C41.9256 16.5615 41.875 16.5102 41.8126 16.4771L41.8207 16.473Z" fill="#1D0A43"/>
<path d="M43.2351 16.4056V18.3205H42.8822V16.4056H42.3711V16.0918H43.734V16.4016L43.2351 16.4056Z" fill="#1D0A43"/>
<path d="M45.3494 18.1033C45.2783 18.1871 45.1895 18.2544 45.0893 18.3003C44.989 18.3462 44.8797 18.3696 44.7693 18.3688C44.6588 18.3702 44.5494 18.347 44.449 18.3011C44.3487 18.2552 44.2599 18.1876 44.1893 18.1033C44.0457 17.9311 43.9745 17.7107 43.9905 17.4878V16.0918H44.3231V17.4556C44.3051 17.5987 44.3445 17.7432 44.4326 17.8579C44.469 17.9161 44.5198 17.9641 44.5801 17.9975C44.6405 18.0308 44.7084 18.0483 44.7774 18.0483C44.8465 18.0483 44.9144 18.0308 44.9747 17.9975C45.0351 17.9641 45.0858 17.9161 45.1222 17.8579C45.1948 17.7368 45.2261 17.5957 45.2115 17.4556V16.0918H45.5441V17.4556C45.5681 17.6885 45.4981 17.9214 45.3494 18.1033Z" fill="#1D0A43"/>
<path d="M48.2153 17.2997C48.1903 17.5813 48.0632 17.8443 47.8574 18.0398C47.6516 18.2353 47.3813 18.3502 47.0966 18.3629C46.8119 18.3757 46.5323 18.2855 46.3096 18.1091C46.0869 17.9328 45.9363 17.6823 45.8858 17.4041C45.8353 17.1259 45.8884 16.8391 46.0351 16.5968C46.1818 16.3545 46.4122 16.1732 46.6835 16.0867C46.9548 16.0002 47.2485 16.0144 47.5101 16.1265C47.7717 16.2386 47.9834 16.4411 48.1058 16.6963H47.7002C47.6238 16.5856 47.5207 16.4955 47.4002 16.4344C47.2798 16.3733 47.1459 16.343 47.0106 16.3463C46.7847 16.3463 46.568 16.4353 46.4083 16.5937C46.2485 16.7522 46.1588 16.9671 46.1588 17.1911C46.1588 17.4152 46.2485 17.6301 46.4083 17.7885C46.568 17.9469 46.7847 18.0359 47.0106 18.0359C47.1876 18.0447 47.3621 17.9921 47.5043 17.8871C47.6464 17.7822 47.7472 17.6314 47.7894 17.4607H47.0147V17.175H48.191C48.2128 17.2128 48.2213 17.2566 48.2153 17.2997Z" fill="#1D0A43"/>
<path d="M49.9454 18.3066L49.702 17.7594H48.7691L48.5257 18.3066H48.1484L49.2112 16.0376H49.2518L50.2983 18.3066H49.9454ZM49.2355 16.6974L48.8299 17.502H49.5641L49.2355 16.6974Z" fill="#1D0A43"/>
<path d="M50.4573 18.3044V16.0918H50.79V18.0067H51.6012V18.3165H50.4492L50.4573 18.3044Z" fill="#1D0A43"/>
</svg>
