<svg width="20" height="16" viewBox="0 0 20 16" fill="none" xmlns="http://www.w3.org/2000/svg">
<path d="M19 7.99991C19 7.44763 18.5523 6.99991 18 6.99991H1.00001C0.447721 6.99991 5.72205e-06 7.44763 5.72205e-06 7.99991C5.72205e-06 8.5522 0.447721 8.99991 1.00001 8.99991H18C18.5523 8.99991 19 8.5522 19 7.99991Z" fill="#1D0A43"/>
<path fill-rule="evenodd" clip-rule="evenodd" d="M11.2929 0.292898C10.9024 0.683425 10.9024 1.31659 11.2929 1.70711L17.5858 7.99992L11.2929 14.2928C10.9024 14.6833 10.9024 15.3165 11.2929 15.707C11.6834 16.0975 12.3166 16.0975 12.7071 15.707L19.7071 8.70702C19.8946 8.51948 20 8.26513 20 7.99991C20 7.73469 19.8946 7.48034 19.7071 7.2928L12.7071 0.292889C12.3166 -0.0976331 11.6834 -0.097629 11.2929 0.292898Z" fill="#1D0A43"/>
</svg>
