<svg width="22" height="22" viewBox="0 0 22 22" fill="none" xmlns="http://www.w3.org/2000/svg">
<path fill-rule="evenodd" clip-rule="evenodd" d="M4 8C4 4.68629 6.68629 2 10 2C13.3137 2 16 4.68629 16 8H19C19.5523 8 20 8.44772 20 9V18C20 20.2091 18.2091 22 16 22H4C1.79086 22 0 20.2091 0 18V9C0 8.44772 0.447715 8 1 8H4ZM10 4C12.2091 4 14 5.79086 14 8H6C6 5.79086 7.79086 4 10 4ZM2 10V18C2 19.1046 2.89543 20 4 20H16C17.1046 20 18 19.1046 18 18V10H2Z" fill="#1D0A43"/>
<path d="M22 6.5C22 10.0899 19.0899 13 15.5 13C11.9101 13 9 10.0899 9 6.5C9 2.91015 11.9101 0 15.5 0C19.0899 0 22 2.91015 22 6.5Z" fill="#1D0A43"/>
</svg>
