<svg viewBox="0 0 20 16" fill="none" xmlns="http://www.w3.org/2000/svg">
<path d="M0 1C0 0.447715 0.447715 0 1 0H19C19.5523 0 20 0.447715 20 1C20 1.55228 19.5523 2 19 2H1C0.447716 2 0 1.55228 0 1Z" fill="currentColor" />
<path d="M0 8C0 7.44772 0.447715 7 1 7H19C19.5523 7 20 7.44772 20 8C20 8.55228 19.5523 9 19 9H1C0.447716 9 0 8.55228 0 8Z" fill="currentColor" />
<path d="M0 15C0 14.4477 0.447715 14 1 14H12C12.5523 14 13 14.4477 13 15C13 15.5523 12.5523 16 12 16H1C0.447715 16 0 15.5523 0 15Z" fill="currentColor" />
</svg>
