<svg viewBox="0 0 20 20" fill="none" xmlns="http://www.w3.org/2000/svg">
<path d="M0.292943 0.292957C0.683532 -0.0976519 1.3168 -0.0976525 1.70739 0.292956L10.0008 8.58677L18.292 0.295147C18.6828 -0.0955916 19.3162 -0.095591 19.707 0.295148C20.0977 0.685887 20.0977 1.3194 19.707 1.71014L11.4157 10.0018L19.6973 18.2838C20.0879 18.6744 20.0879 19.3077 19.6973 19.6983C19.3068 20.0889 18.6735 20.0889 18.2829 19.6983L10.0013 11.4163L1.71102 19.7069C1.3203 20.0977 0.68682 20.0977 0.2961 19.7069C-0.0946203 19.3162 -0.0946202 18.6827 0.2961 18.292L8.58636 10.0013L0.292942 1.70748C-0.0976476 1.31687 -0.0976472 0.683565 0.292943 0.292957Z" fill="currentColor"/>
</svg>
