<svg width="20" height="20" viewBox="0 0 20 20" fill="none" xmlns="http://www.w3.org/2000/svg">
<path d="M0 3C0 2.44772 0.447715 2 1 2H5C5.55228 2 6 2.44772 6 3C6 3.55228 5.55228 4 5 4H1C0.447715 4 0 3.55228 0 3Z" fill="#1D0A43"/>
<path d="M10 3C10 2.44772 10.4477 2 11 2H19C19.5523 2 20 2.44772 20 3C20 3.55228 19.5523 4 19 4H11C10.4477 4 10 3.55228 10 3Z" fill="#1D0A43"/>
<path d="M0 10C0 9.44772 0.447715 9 1 9H12C12.5523 9 13 9.44772 13 10C13 10.5523 12.5523 11 12 11H1C0.447715 11 0 10.5523 0 10Z" fill="#1D0A43"/>
<path d="M17 10C17 9.44772 17.4477 9 18 9H19C19.5523 9 20 9.44772 20 10C20 10.5523 19.5523 11 19 11H18C17.4477 11 17 10.5523 17 10Z" fill="#1D0A43"/>
<path d="M7 17C7 16.4477 7.44772 16 8 16H19C19.5523 16 20 16.4477 20 17C20 17.5523 19.5523 18 19 18H8C7.44772 18 7 17.5523 7 17Z" fill="#1D0A43"/>
<path d="M0 17C0 16.4477 0.447715 16 1 16H2C2.55228 16 3 16.4477 3 17C3 17.5523 2.55228 18 2 18H1C0.447715 18 0 17.5523 0 17Z" fill="#1D0A43"/>
<path fill-rule="evenodd" clip-rule="evenodd" d="M5 18C5.55228 18 6 17.5523 6 17C6 16.4477 5.55228 16 5 16C4.44772 16 4 16.4477 4 17C4 17.5523 4.44772 18 5 18ZM5 20C6.65685 20 8 18.6569 8 17C8 15.3431 6.65685 14 5 14C3.34315 14 2 15.3431 2 17C2 18.6569 3.34315 20 5 20Z" fill="#1D0A43"/>
<path fill-rule="evenodd" clip-rule="evenodd" d="M15 11C15.5523 11 16 10.5523 16 10C16 9.44772 15.5523 9 15 9C14.4477 9 14 9.44772 14 10C14 10.5523 14.4477 11 15 11ZM15 13C16.6569 13 18 11.6569 18 10C18 8.34315 16.6569 7 15 7C13.3431 7 12 8.34315 12 10C12 11.6569 13.3431 13 15 13Z" fill="#1D0A43"/>
<path fill-rule="evenodd" clip-rule="evenodd" d="M8 4C8.55228 4 9 3.55228 9 3C9 2.44772 8.55228 2 8 2C7.44772 2 7 2.44772 7 3C7 3.55228 7.44772 4 8 4ZM8 6C9.65685 6 11 4.65685 11 3C11 1.34315 9.65685 0 8 0C6.34315 0 5 1.34315 5 3C5 4.65685 6.34315 6 8 6Z" fill="#1D0A43"/>
</svg>
