<svg width="18" height="20" viewBox="0 0 18 20" fill="none" xmlns="http://www.w3.org/2000/svg">
<path d="M8 1C8 0.447715 8.44772 0 9 0C9.55228 0 10 0.447715 10 1V8C10 8.55228 9.55228 9 9 9C8.44772 9 8 8.55228 8 8V1Z" fill="#1D0A43"/>
<path fill-rule="evenodd" clip-rule="evenodd" d="M6.34192 3.55895C6.58551 4.05462 6.38117 4.6539 5.8855 4.89749C3.57624 6.03235 2 8.38274 2 11.0888C2 14.8953 5.12345 18 9 18C12.8766 18 16 14.8953 16 11.0888C16 8.38274 14.4238 6.03235 12.1145 4.89749C11.6188 4.6539 11.4145 4.05462 11.6581 3.55895C11.9017 3.06329 12.5009 2.85894 12.9966 3.10253C15.9557 4.55674 18 7.58253 18 11.0888C18 16.0208 13.96 20 9 20C4.03999 20 0 16.0208 0 11.0888C0 7.58253 2.04431 4.55674 5.00339 3.10253C5.49905 2.85894 6.09833 3.06329 6.34192 3.55895Z" fill="#1D0A43"/>
</svg>
