<svg viewBox="0 0 202 31" fill="none" xmlns="http://www.w3.org/2000/svg">
<path d="M0 0.967745V30.5213H5.89388V17.739H19.0663V30.5213H24.9602V0.967745H19.0663V12.621H5.89388V0.967745H0Z" fill="currentColor"/>
<path d="M57.2832 16.247H63.177V15.7445C63.177 11.1441 61.5206 7.19992 58.6451 4.40622C55.7706 1.61347 51.7087 0 46.9489 0C42.2088 0 38.1571 1.61384 35.2879 4.40655C32.4178 7.20014 30.7614 11.1441 30.7614 15.7445V16.247H36.6553V15.7445C36.6553 12.6376 37.7325 10.016 39.5414 8.17313C41.3497 6.33084 43.9163 5.23895 46.9489 5.23895C50.0027 5.23895 52.5794 6.33144 54.3924 8.1736C56.206 10.0163 57.2832 12.6376 57.2832 15.7445V16.247Z" fill="currentColor"/>
<path fill-rule="evenodd" clip-rule="evenodd" d="M96.4672 27.9908L96.7067 27.6945L94.2098 24.1797L93.8133 24.8337C93.5374 25.2889 93.1931 25.6708 92.8349 25.9345C92.4731 26.2009 92.1273 26.3256 91.8394 26.3256C91.3033 26.3256 90.8645 25.9374 90.6093 25.1499L89.3487 20.7226C88.9898 19.4632 88.3321 18.7074 87.4727 17.9237C91.4172 16.8197 94.053 13.8815 94.053 9.97836C94.053 4.63675 89.2292 0.967745 82.7544 0.967745H68.9706V30.5213H74.8645V19.0293H80.2285C81.5523 19.0293 83.0175 19.802 83.5781 21.5335L85.2059 27.0116L85.2078 27.0176C85.5574 28.1423 86.1668 29.1419 87.064 29.8613C87.9655 30.5842 89.128 31 90.5357 31C92.9605 31 95.0905 29.6941 96.4672 27.9908ZM74.8645 14.1533V5.96476H82.5507C85.9224 5.96476 88.1999 7.80134 88.1999 10.0993C88.1999 11.2459 87.6348 12.2433 86.6433 12.9703C85.645 13.7021 84.2167 14.1533 82.5507 14.1533H74.8645Z" fill="currentColor"/>
<path d="M106.923 0.967745H101.029V30.5213H106.923V0.967745Z" fill="currentColor"/>
<path d="M111.919 25.5198V30.5213H136.128L134.865 25.6049H118.965L135.575 6.00946V0.967745H112.18L113.444 5.88412H128.569L111.919 25.5198Z" fill="currentColor"/>
<path d="M170.961 15.2555V14.753H165.067V15.2555C165.067 18.3624 163.99 20.9837 162.176 22.8264C160.363 24.6686 157.787 25.761 154.733 25.761C151.7 25.761 149.134 24.6692 147.325 22.8269C145.517 20.984 144.439 18.3624 144.439 15.2555V14.753H138.545V15.2555C138.545 19.8756 140.202 23.8199 143.072 26.6089C145.942 29.3968 149.994 31 154.733 31C159.492 31 163.554 29.3972 166.429 26.6092C169.305 23.8202 170.961 19.8756 170.961 15.2555Z" fill="currentColor"/>
<path d="M183.53 0.967745H176.755V30.5213H182.526V9.44732L195.225 30.5213H202V0.967745H200.751C198.253 0.967745 196.228 2.99269 196.228 5.49058V22.0417L183.53 0.967745Z" fill="currentColor"/>
</svg>
