<svg width="40" height="40" viewBox="0 0 40 40" fill="none" xmlns="http://www.w3.org/2000/svg">
<path fill-rule="evenodd" clip-rule="evenodd" d="M31.825 3.01636C29.9741 0.904545 26.6314 0 22.3532 0H9.93775C9.06411 0 8.31956 0.636364 8.1832 1.50182L3.0132 34.3273C2.98902 34.4795 2.99813 34.6352 3.03991 34.7836C3.08169 34.9319 3.15514 35.0695 3.2552 35.1868C3.35526 35.304 3.47956 35.3982 3.61952 35.4628C3.75948 35.5274 3.91178 35.5608 4.06593 35.5609H11.7314L11.2023 38.92C11.1811 39.0532 11.1891 39.1894 11.2257 39.3193C11.2622 39.4491 11.3264 39.5695 11.414 39.6721C11.5015 39.7748 11.6102 39.8572 11.7326 39.9138C11.8551 39.9704 11.9883 39.9998 12.1232 40H18.5841C18.9544 39.9997 19.3125 39.8672 19.5938 39.6264C19.8752 39.3856 20.0613 39.0522 20.1187 38.6864L20.1823 38.3573L21.3987 30.63L21.4777 30.2027C21.5351 29.8369 21.7212 29.5035 22.0026 29.2627C22.2839 29.0219 22.642 28.8894 23.0123 28.8891H23.9787C30.2377 28.8891 35.1387 26.3436 36.5714 18.98C37.1687 15.9027 36.8605 13.3345 35.2777 11.5282C34.7987 10.9827 34.2041 10.5309 33.5096 10.1618C33.9959 7.05091 33.5059 4.93455 31.825 3.01636Z" fill="#009CDE"/>
<path fill-rule="evenodd" clip-rule="evenodd" d="M31.825 3.01636C29.9741 0.904545 26.6314 0 22.3532 0H9.93775C9.06411 0 8.31956 0.636364 8.1832 1.50182L3.0132 34.3273C2.98902 34.4795 2.99813 34.6352 3.03991 34.7836C3.08169 34.9319 3.15514 35.0695 3.2552 35.1867C3.35526 35.304 3.47956 35.3982 3.61952 35.4628C3.75948 35.5274 3.91178 35.5608 4.06593 35.5609H11.7314L13.655 23.3364L13.5959 23.72C13.66 23.3022 13.8715 22.921 14.1921 22.6456C14.5127 22.3701 14.9214 22.2185 15.3441 22.2182H18.9868C26.1414 22.2182 31.7441 19.3082 33.3814 10.8909C33.428 10.6486 33.4704 10.4056 33.5087 10.1618C33.995 7.05091 33.505 4.93455 31.8241 3.01636H31.825Z" fill="#012169"/>
<path fill-rule="evenodd" clip-rule="evenodd" d="M16.5887 9.04273C16.7932 8.94454 17.0205 8.89 17.2605 8.89H26.9914C28.1441 8.89 29.2187 8.96545 30.2023 9.12455C30.4832 9.17 30.7568 9.22182 31.0223 9.28C31.4071 9.36609 31.7876 9.47076 32.1623 9.59364C32.6257 9.7455 33.0757 9.93555 33.5078 10.1618C33.995 7.05091 33.505 4.93455 31.8241 3.01636C29.9741 0.904545 26.6314 0 22.3532 0H9.93775C9.06411 0 8.31956 0.636364 8.1832 1.50182L3.0132 34.3273C2.98902 34.4795 2.99813 34.6352 3.03991 34.7836C3.08169 34.9319 3.15514 35.0695 3.2552 35.1867C3.35526 35.304 3.47956 35.3982 3.61952 35.4628C3.75948 35.5274 3.91178 35.5608 4.06593 35.5609H11.7314L15.725 10.2027C15.8068 9.68273 16.1405 9.25727 16.5887 9.04182V9.04273Z" fill="#003087"/>
</svg>
