<svg width="40" height="40" viewBox="0 0 40 40" fill="none" xmlns="http://www.w3.org/2000/svg">
<path d="M29.3617 9H10.6383C4.78723 9 0 13.725 0 19.5C0 25.275 4.78723 30 10.6383 30H29.3617C35.2128 30 40 25.275 40 19.5C40 13.725 35.2128 9 29.3617 9Z" fill="white"/>
<path d="M29.3617 9.8505C30.6755 9.8505 31.9521 10.1077 33.1543 10.6117C34.3191 11.1 35.3617 11.7982 36.266 12.6855C37.1649 13.5727 37.8723 14.607 38.367 15.7568C38.8777 16.9433 39.1383 18.2032 39.1383 19.5C39.1383 20.7968 38.8777 22.0567 38.367 23.2432C37.8723 24.393 37.1649 25.422 36.266 26.3145C35.367 27.2017 34.3191 27.9 33.1543 28.3882C31.9521 28.8922 30.6755 29.1495 29.3617 29.1495H10.6383C9.32447 29.1495 8.04787 28.8922 6.84574 28.3882C5.68085 27.9 4.6383 27.2017 3.73404 26.3145C2.83511 25.4272 2.12766 24.393 1.63298 23.2432C1.12234 22.0567 0.861702 20.7968 0.861702 19.5C0.861702 18.2032 1.12234 16.9433 1.63298 15.7568C2.12766 14.607 2.83511 13.578 3.73404 12.6855C4.63298 11.7982 5.68085 11.1 6.84574 10.6117C8.04787 10.1077 9.32447 9.8505 10.6383 9.8505H29.3617ZM29.3617 9H10.6383C4.78723 9 0 13.725 0 19.5C0 25.275 4.78723 30 10.6383 30H29.3617C35.2128 30 40 25.275 40 19.5C40 13.725 35.2128 9 29.3617 9Z" fill="#3C4043"/>
<path d="M19.0745 20.2455V23.4218H18.0532V15.5782H20.7607C21.4468 15.5782 22.0319 15.804 22.5107 16.2555C23 16.707 23.2447 17.2583 23.2447 17.9093C23.2447 18.576 23 19.1273 22.5107 19.5735C22.0373 20.0198 21.4522 20.2403 20.7607 20.2403H19.0745V20.2455ZM19.0745 16.5443V19.2795H20.7819C21.1862 19.2795 21.5266 19.143 21.7926 18.8753C22.0639 18.6075 22.2022 18.282 22.2022 17.9145C22.2022 17.5523 22.0639 17.232 21.7926 16.9643C21.5266 16.686 21.1915 16.5495 20.7819 16.5495H19.0745V16.5443Z" fill="#3C4043"/>
<path d="M25.9149 17.8778C26.6703 17.8778 27.266 18.0773 27.7022 18.4763C28.1383 18.8753 28.3564 19.4213 28.3564 20.1143V23.4218H27.383V22.6763H27.3405C26.9203 23.2905 26.3564 23.595 25.6543 23.595C25.0532 23.595 24.5532 23.4218 24.149 23.07C23.7447 22.7183 23.5426 22.2825 23.5426 21.7575C23.5426 21.201 23.7554 20.76 24.1809 20.4345C24.6064 20.1037 25.1756 19.941 25.883 19.941C26.4894 19.941 26.9894 20.0513 27.3777 20.2718V20.0407C27.3777 19.689 27.2394 19.395 26.9575 19.1482C26.6756 18.9015 26.3458 18.7807 25.9681 18.7807C25.399 18.7807 24.9469 19.017 24.6171 19.4947L23.7181 18.9382C24.2128 18.2295 24.9469 17.8778 25.9149 17.8778ZM24.5958 21.7732C24.5958 22.0357 24.7075 22.2562 24.9362 22.4295C25.1596 22.6027 25.4256 22.692 25.7288 22.692C26.1596 22.692 26.5426 22.5345 26.8777 22.2195C27.2128 21.9045 27.383 21.537 27.383 21.1118C27.0639 20.865 26.6224 20.739 26.0532 20.739C25.6383 20.739 25.2926 20.8388 25.016 21.033C24.7341 21.2378 24.5958 21.4845 24.5958 21.7732Z" fill="#3C4043"/>
<path d="M33.9096 18.051L30.5053 25.779H29.4521L30.7181 23.0753L28.4734 18.051H29.5851L31.2021 21.9045H31.2234L32.7979 18.051H33.9096Z" fill="#3C4043"/>
<path d="M15.0123 19.605C15.0123 19.2764 14.9825 18.9619 14.9272 18.6595H10.6464V20.392L13.1118 20.3925C13.0118 20.969 12.69 21.4604 12.1969 21.788V22.912H13.6644C14.5214 22.1292 15.0123 20.9721 15.0123 19.605Z" fill="#4285F4"/>
<path d="M12.1974 21.7879C11.7889 22.0599 11.2628 22.219 10.6474 22.219C9.45858 22.219 8.45007 21.4283 8.0889 20.3626H6.57507V21.5218C7.32507 22.9907 8.86656 23.9987 10.6474 23.9987C11.8783 23.9987 12.9123 23.5992 13.665 22.9114L12.1974 21.7879Z" fill="#34A853"/>
<path d="M7.9463 19.5026C7.9463 19.2034 7.99684 18.9141 8.08886 18.6422V17.483H6.57503C6.26492 18.0904 6.09045 18.776 6.09045 19.5026C6.09045 20.2292 6.26545 20.9149 6.57503 21.5223L8.08886 20.3631C7.99684 20.0912 7.9463 19.8019 7.9463 19.5026Z" fill="#FABB05"/>
<path d="M10.6474 16.7857C11.3192 16.7857 11.9208 17.0141 12.3958 17.4604L13.6964 16.1778C12.9065 15.4517 11.8767 15.006 10.6474 15.006C8.86709 15.006 7.32507 16.014 6.57507 17.4829L8.0889 18.6422C8.45007 17.5764 9.45858 16.7857 10.6474 16.7857Z" fill="#E94235"/>
</svg>
