<svg width="40" height="40" viewBox="0 0 40 40" fill="none" xmlns="http://www.w3.org/2000/svg">
<path d="M25.4077 10.6289H14.5908V29.9514H25.4077V10.6289Z" fill="#FF5F00"/>
<path d="M15.281 20.2899C15.281 16.364 17.1353 12.8818 19.9855 10.6287C17.8908 8.99002 15.2467 8 12.3622 8C5.52864 8 0 13.4963 0 20.2899C0 27.0835 5.52864 32.5798 12.3622 32.5798C15.2467 32.5798 17.8908 31.5898 19.9855 29.9511C17.1353 27.7321 15.281 24.2158 15.281 20.2899Z" fill="#EB001B"/>
<path d="M40.0004 20.2899C40.0004 27.0835 34.4718 32.5798 27.6382 32.5798C24.7537 32.5798 22.1096 31.5898 20.0149 29.9511C22.8994 27.698 24.7194 24.2158 24.7194 20.2899C24.7194 16.364 22.8651 12.8818 20.0149 10.6287C22.1096 8.99002 24.7537 8 27.6382 8C34.4718 8 40.0004 13.5305 40.0004 20.2899Z" fill="#F79E1B"/>
</svg>
