<svg width="40" height="40" viewBox="0 0 40 40" fill="none" xmlns="http://www.w3.org/2000/svg">
<path d="M7.30875 14.0628C6.83995 14.6032 6.08987 15.0295 5.33978 14.9686C5.24602 14.2379 5.61325 13.4615 6.04298 12.9819C6.51179 12.4263 7.33219 12.0304 7.99633 12C8.07447 12.7612 7.76974 13.5071 7.30875 14.0628ZM7.98852 15.1132C6.90246 15.0523 5.97266 15.7146 5.45698 15.7146C4.93348 15.7146 4.14433 15.1437 3.28486 15.1589C2.16754 15.1741 1.12836 15.7907 0.557982 16.7726C-0.614028 18.7364 0.253259 21.6441 1.3862 23.2426C1.94095 24.0343 2.60509 24.902 3.48019 24.8716C4.30841 24.8411 4.63657 24.3463 5.63669 24.3463C6.64462 24.3463 6.93371 24.8716 7.80881 24.8563C8.71517 24.8411 9.28554 24.0647 9.84029 23.2731C10.4732 22.3749 10.731 21.4995 10.7466 21.4539C10.731 21.4386 8.99645 20.7916 8.98082 18.843C8.96519 17.2141 10.3482 16.4377 10.4107 16.392C9.62933 15.2655 8.41044 15.1437 7.98852 15.1132ZM14.2627 12.9058V24.7726H16.1535V20.7155H18.771C21.1619 20.7155 22.8418 19.117 22.8418 16.803C22.8418 14.4891 21.1932 12.9058 18.8335 12.9058H14.2627ZM16.1535 14.4586H18.3335C19.9743 14.4586 20.9119 15.3111 20.9119 16.8107C20.9119 18.3102 19.9743 19.1703 18.3256 19.1703H16.1535V14.4586ZM26.2953 24.8639C27.4829 24.8639 28.5846 24.2778 29.0847 23.3492H29.1238V24.7726H30.874V18.8658C30.874 17.1532 29.4675 16.0495 27.3032 16.0495C25.2952 16.0495 23.8106 17.1684 23.756 18.706H25.4593C25.5999 17.9753 26.2953 17.4957 27.2485 17.4957C28.4049 17.4957 29.0534 18.0209 29.0534 18.9876V19.6422L26.6938 19.7793C24.4982 19.9087 23.3106 20.784 23.3106 22.3064C23.3106 23.844 24.5373 24.8639 26.2953 24.8639ZM26.8032 23.4558C25.7952 23.4558 25.1545 22.9838 25.1545 22.2607C25.1545 21.5147 25.7718 21.0809 26.9516 21.0124L29.0534 20.883V21.5528C29.0534 22.6641 28.0846 23.4558 26.8032 23.4558ZM33.2102 28C35.0541 28 35.9214 27.3149 36.6793 25.2369L40 16.1637H38.0779L35.8511 23.1741H35.812L33.5852 16.1637H31.6084L34.8119 24.803L34.64 25.3283C34.3509 26.2188 33.8821 26.5614 33.0461 26.5614C32.8976 26.5614 32.6085 26.5461 32.4913 26.5309V27.9543C32.6007 27.9848 33.0695 28 33.2102 28Z" fill="black"/>
</svg>
