<svg width="40" height="40" viewBox="0 0 40 40" fill="none" xmlns="http://www.w3.org/2000/svg">
    <path
        d="M13.75 18.75C14.413 18.75 15.0489 18.4866 15.5178 18.0178C15.9866 17.5489 16.25 16.913 16.25 16.25C16.25 15.587 15.9866 14.9511 15.5178 14.4822C15.0489 14.0134 14.413 13.75 13.75 13.75C13.087 13.75 12.4511 14.0134 11.9822 14.4822C11.5134 14.9511 11.25 15.587 11.25 16.25C11.25 16.913 11.5134 17.5489 11.9822 18.0178C12.4511 18.4866 13.087 18.75 13.75 18.75Z"
        fill="currentColor" />
    <path
        d="M28.75 16.25C28.75 16.913 28.4866 17.5489 28.0178 18.0178C27.5489 18.4866 26.913 18.75 26.25 18.75C25.587 18.75 24.9511 18.4866 24.4822 18.0178C24.0134 17.5489 23.75 16.913 23.75 16.25C23.75 15.587 24.0134 14.9511 24.4822 14.4822C24.9511 14.0134 25.587 13.75 26.25 13.75C26.913 13.75 27.5489 14.0134 28.0178 14.4822C28.4866 14.9511 28.75 15.587 28.75 16.25Z"
        fill="currentColor" />
    <path
        d="M28.9052 28.475C28.6477 28.6808 28.3194 28.7766 27.9916 28.7414C27.6639 28.7063 27.3633 28.5432 27.1552 28.2875L27.1477 28.28C27.0394 28.1601 26.9251 28.0458 26.8052 27.9375C26.4155 27.5867 25.9907 27.2767 25.5377 27.0125C24.3852 26.3375 22.5702 25.625 20.0052 25.625C17.4402 25.625 15.6227 26.335 14.4652 27.015C14.0115 27.2793 13.586 27.5893 13.1952 27.94C13.0745 28.0483 12.9594 28.1626 12.8502 28.2825L12.8427 28.29C12.7393 28.4175 12.6118 28.5235 12.4674 28.6017C12.3231 28.68 12.1647 28.7291 12.0014 28.7461C11.8381 28.7632 11.673 28.7479 11.5156 28.7012C11.3582 28.6544 11.2115 28.5772 11.084 28.4737C10.9564 28.3703 10.8505 28.2428 10.7723 28.0985C10.694 27.9541 10.6449 27.7957 10.6279 27.6324C10.6108 27.4691 10.6261 27.304 10.6728 27.1466C10.7195 26.9892 10.7968 26.8425 10.9002 26.715L11.8752 27.5L10.9002 26.7175V26.715L10.9052 26.7125L10.9102 26.7075L10.9227 26.6925L10.9577 26.6475L11.0802 26.5125C11.1802 26.405 11.3252 26.2575 11.5152 26.0875C11.8952 25.7425 12.4527 25.2975 13.2002 24.86C14.7002 23.9775 16.9502 23.125 20.0052 23.125C23.0577 23.125 25.3052 23.975 26.8052 24.86C27.5552 25.3 28.1102 25.7425 28.4877 26.085C28.6829 26.2631 28.8681 26.4517 29.0427 26.65L29.0802 26.6925L29.0927 26.7075L29.0977 26.715C29.0977 26.715 29.1002 26.72 28.1252 27.5L29.1002 26.72C29.3067 26.9787 29.4022 27.3088 29.3656 27.6378C29.3291 27.9668 29.1635 28.2679 28.9052 28.475Z"
        fill="currentColor" />
    <path
        d="M20 0C14.6957 0 9.60859 2.10714 5.85786 5.85786C2.10714 9.60859 0 14.6957 0 20C0 25.3043 2.10714 30.3914 5.85786 34.1421C9.60859 37.8929 14.6957 40 20 40C25.3043 40 30.3914 37.8929 34.1421 34.1421C37.8929 30.3914 40 25.3043 40 20C40 14.6957 37.8929 9.60859 34.1421 5.85786C30.3914 2.10714 25.3043 0 20 0ZM2.5 20C2.5 17.7019 2.95265 15.4262 3.83211 13.303C4.71157 11.1798 6.00061 9.25066 7.62563 7.62563C9.25066 6.00061 11.1798 4.71157 13.303 3.83211C15.4262 2.95265 17.7019 2.5 20 2.5C22.2981 2.5 24.5738 2.95265 26.697 3.83211C28.8202 4.71157 30.7493 6.00061 32.3744 7.62563C33.9994 9.25066 35.2884 11.1798 36.1679 13.303C37.0474 15.4262 37.5 17.7019 37.5 20C37.5 24.6413 35.6563 29.0925 32.3744 32.3744C29.0925 35.6563 24.6413 37.5 20 37.5C15.3587 37.5 10.9075 35.6563 7.62563 32.3744C4.34374 29.0925 2.5 24.6413 2.5 20Z"
        fill="currentColor" />
</svg>