<svg viewBox="0 0 18 18" fill="none" xmlns="http://www.w3.org/2000/svg">
<path d="M8.44275 0.424266C8.61815 -0.141423 9.38185 -0.141421 9.55725 0.424267L11.2802 5.981C11.3586 6.23398 11.5836 6.40527 11.8374 6.40527H17.4129C17.9806 6.40527 18.2165 7.1664 17.7573 7.51601L13.2467 10.9503C13.0413 11.1066 12.9554 11.3838 13.0338 11.6367L14.7567 17.1935C14.9321 17.7592 14.3143 18.2296 13.8551 17.8799L9.3444 14.4457C9.13904 14.2893 8.86096 14.2893 8.6556 14.4457L4.14491 17.88C3.68571 18.2296 3.06786 17.7592 3.24326 17.1935L4.96619 11.6367C5.04463 11.3838 4.9587 11.1066 4.75334 10.9503L0.242651 7.51601C-0.216549 7.1664 0.0194496 6.40527 0.587051 6.40527H6.16257C6.41641 6.40527 6.64138 6.23398 6.71982 5.981L8.44275 0.424266Z" fill="currentColor"/>
</svg>
