<svg width="180" height="180" viewBox="0 0 180 180" fill="none" xmlns="http://www.w3.org/2000/svg">
<g clip-path="url(#clip0_12820_45985)">
<path fill-rule="evenodd" clip-rule="evenodd" d="M93.3199 37.0806C94.3256 35.7276 94.9175 34.014 94.9175 32.6003C94.9175 29.6726 93.8005 26.2434 92.4256 23.4938C91.7446 22.1317 91.0339 21.0044 90.4301 20.244C90.2676 20.0394 90.1226 19.8737 89.9975 19.7432C89.8724 19.8737 89.7274 20.0394 89.5649 20.244C88.9611 21.0044 88.2504 22.1317 87.5694 23.4938C86.1945 26.2434 85.0775 29.6726 85.0775 32.6003C85.0775 34.014 85.6694 35.7276 86.6751 37.0806C87.693 38.4501 88.9017 39.1603 89.9975 39.1603C91.0933 39.1603 92.302 38.4501 93.3199 37.0806ZM90.3982 19.3936C90.3981 19.3943 90.39 19.3996 90.3743 19.4072C90.3905 19.3967 90.3983 19.3929 90.3982 19.3936ZM89.6207 19.4072C89.605 19.3996 89.5969 19.3943 89.5968 19.3936C89.5967 19.3929 89.6045 19.3967 89.6207 19.4072ZM89.9975 40.8003C93.6205 40.8003 96.5575 36.2233 96.5575 32.6003C96.5575 26.0403 91.6375 17.8403 89.9975 17.8403C88.3575 17.8403 83.4375 26.0403 83.4375 32.6003C83.4375 36.2233 86.3745 40.8003 89.9975 40.8003Z" fill="#1D0A43"/>
<path fill-rule="evenodd" clip-rule="evenodd" d="M100.106 51.0495L100.069 51.0804C95.5075 54.8813 93.3878 59.8459 92.414 63.9354C91.9284 65.9751 91.7342 67.7727 91.6616 69.0551C91.6609 69.0679 91.6602 69.0807 91.6595 69.0934C92.6927 68.8214 94.0743 68.3999 95.642 67.7728C99.084 66.396 103.351 64.0572 106.82 60.2034C111.866 54.5959 114.122 46.8715 114.987 42.9536C111.63 43.8671 105.367 46.1126 100.141 51.0164L100.106 51.0495ZM91.6265 70.7944C90.6041 71.0473 89.9986 71.1405 89.9986 71.1405C89.9986 71.1405 89.96 70.5241 89.9999 69.4749C90.144 65.6839 91.3117 56.2431 99.0187 49.8205C105.093 44.1204 112.453 41.8593 115.56 41.114C116.306 40.935 116.945 41.5578 116.797 42.3106C116.102 45.8448 113.85 54.8437 108.039 61.3005C102.418 67.5461 94.8937 69.9861 91.6265 70.7944Z" fill="#1D0A43"/>
<path fill-rule="evenodd" clip-rule="evenodd" d="M80.2224 51.0495L80.2595 51.0804C84.8206 54.8813 86.9404 59.8459 87.9141 63.9354C88.3997 65.9751 88.5939 67.7727 88.6665 69.0551C88.6672 69.0679 88.668 69.0807 88.6687 69.0934C87.6355 68.8214 86.2538 68.3999 84.6861 67.7728C81.2441 66.396 76.977 64.0572 73.5085 60.2034C68.4618 54.5959 66.206 46.8715 65.3409 42.9536C68.6982 43.8671 74.9612 46.1126 80.1872 51.0164L80.2224 51.0495ZM88.7016 70.7944C89.724 71.0473 90.3295 71.1405 90.3295 71.1405C90.3295 71.1405 90.3681 70.5241 90.3282 69.4749C90.1841 65.6839 89.0165 56.2431 81.3094 49.8205C75.2349 44.1204 67.8751 41.8593 64.7682 41.114C64.0222 40.935 63.3832 41.5578 63.5312 42.3106C64.2262 45.8448 66.4784 54.8437 72.2895 61.3005C77.9105 67.5461 85.4344 69.9861 88.7016 70.7944Z" fill="#1D0A43"/>
<path fill-rule="evenodd" clip-rule="evenodd" d="M110.554 73.3498L110.512 73.3742C102.519 78.0592 97.7163 84.9246 94.9043 90.6731C93.5003 93.5433 92.602 96.1166 92.0562 97.966C91.9533 98.3146 91.863 98.6372 91.7844 98.9308C91.9895 98.9219 92.2086 98.9108 92.441 98.8972C94.1568 98.7967 96.5853 98.5573 99.411 98.0019C105.077 96.8881 112.254 94.5208 118.5 89.5373C128.27 81.7431 133.442 69.2031 135.269 63.9476C130.699 64.5976 120.479 66.7184 110.594 73.3229L110.554 73.3498ZM91.3862 100.587C90.3175 100.622 89.7131 100.599 89.7131 100.599C89.7131 100.599 89.8163 100.002 90.0801 98.9658C91.299 94.1781 95.9455 80.0111 109.683 71.9593C120.628 64.6465 131.947 62.6855 136.022 62.1944C136.801 62.1006 137.379 62.8091 137.134 63.5539C135.619 68.1588 130.309 82.2143 119.523 90.8193C108.957 99.2485 95.9461 100.439 91.3862 100.587Z" fill="#1D0A43"/>
<path fill-rule="evenodd" clip-rule="evenodd" d="M69.0788 73.3498L69.1205 73.3742C77.1138 78.0592 81.9166 84.9246 84.7286 90.6731C86.1325 93.5433 87.0308 96.1166 87.5766 97.966C87.6795 98.3146 87.7698 98.6372 87.8485 98.9308C87.6433 98.9219 87.4242 98.9108 87.1919 98.8972C85.476 98.7967 83.0475 98.5573 80.2218 98.0019C74.5556 96.8881 67.3792 94.5208 61.1325 89.5373C51.3628 81.7431 46.191 69.2031 44.3636 63.9476C48.9338 64.5976 59.1536 66.7184 69.0387 73.3229L69.0788 73.3498ZM88.2466 100.587C89.3153 100.622 89.9198 100.599 89.9198 100.599C89.9198 100.599 89.8166 100.002 89.5527 98.9658C88.3339 94.1781 83.6873 80.0111 69.9498 71.9593C59.0047 64.6465 47.6853 62.6855 43.6104 62.1944C42.832 62.1006 42.2541 62.8091 42.499 63.5539C44.0133 68.1588 49.3237 82.2143 60.1097 90.8193C70.6754 99.2485 83.6867 100.439 88.2466 100.587Z" fill="#1D0A43"/>
<path fill-rule="evenodd" clip-rule="evenodd" d="M89.0207 84.2448C88.9881 70.2969 88.9536 55.5376 89.1792 39.9692L90.819 39.9929C90.5945 55.4842 90.6287 70.2077 90.661 84.143C90.7208 109.9 90.7743 132.964 89.1766 153.206L87.5416 153.076C89.1344 132.898 89.0808 109.949 89.0207 84.2448Z" fill="#1D0A43"/>
<path fill-rule="evenodd" clip-rule="evenodd" d="M67.9557 140.329C55.145 140.226 39.6076 140.432 28.5903 141.656C28.1402 141.706 27.7348 141.382 27.6848 140.932C27.6348 140.481 27.9591 140.076 28.4092 140.026C39.5319 138.79 55.1546 138.586 67.9688 138.689C74.3818 138.74 80.1018 138.868 84.2187 138.984C86.2772 139.041 87.9351 139.096 89.0788 139.136C89.6506 139.156 90.0938 139.172 90.3943 139.184L90.7362 139.197L90.8235 139.201L90.8443 139.201L90.8659 139.202L91.286 139.211C91.5802 139.218 92.0141 139.229 92.5738 139.243C93.6932 139.272 95.3156 139.317 97.329 139.381C101.356 139.509 106.947 139.714 113.205 140.022C125.711 140.637 140.919 141.664 151.624 143.311C152.072 143.379 152.379 143.798 152.31 144.246C152.241 144.693 151.823 145 151.375 144.931C140.761 143.299 125.628 142.275 113.124 141.66C106.878 141.353 101.296 141.148 97.2768 141.02C95.267 140.956 93.6479 140.911 92.5315 140.882C91.9733 140.868 91.5408 140.858 91.248 140.851L90.8044 140.841C90.8041 140.841 90.8027 140.841 90.8198 140.021C90.7863 140.84 90.7862 140.84 90.7859 140.84L90.6715 140.836L90.3319 140.823C90.033 140.811 89.5914 140.795 89.0213 140.775C87.8811 140.735 86.227 140.681 84.1727 140.623C80.0639 140.508 74.3552 140.38 67.9557 140.329ZM90.8198 140.021L90.7859 140.84L90.8027 140.841L90.8198 140.021Z" fill="#1D0A43"/>
<path fill-rule="evenodd" clip-rule="evenodd" d="M74.5506 154.267C65.8415 154.575 55.2242 155.189 47.4871 156.41C47.0397 156.481 46.6198 156.176 46.5492 155.728C46.4786 155.281 46.784 154.861 47.2313 154.79C55.0742 153.552 65.7769 152.936 74.4928 152.628C78.8562 152.474 82.7316 152.397 85.5163 152.359C86.9087 152.34 88.0287 152.33 88.8009 152.325C89.187 152.323 89.4862 152.322 89.689 152.321L89.9199 152.32L89.9978 152.32C89.998 152.32 89.9992 152.32 89.9992 153.14L89.9978 152.32L90.0141 152.32L89.9994 153.129C90.0141 152.32 90.0139 152.32 90.0141 152.32L90.3694 152.327C90.6021 152.332 90.9454 152.339 91.388 152.349C92.2731 152.368 93.5555 152.398 95.1455 152.439C98.3255 152.522 102.737 152.652 107.661 152.842C117.501 153.22 129.419 153.836 137.653 154.786C138.103 154.838 138.426 155.244 138.374 155.694C138.322 156.144 137.915 156.467 137.465 156.415C129.299 155.473 117.437 154.859 107.598 154.48C102.682 154.291 98.2778 154.161 95.1028 154.078C93.5154 154.037 92.2353 154.007 91.3523 153.988C90.9108 153.979 90.5685 153.972 90.3368 153.967L89.9918 153.96L89.9223 153.96L89.6939 153.961C89.4928 153.962 89.1954 153.963 88.8111 153.965C88.0426 153.97 86.9268 153.979 85.5389 153.999C82.763 154.037 78.8997 154.114 74.5506 154.267Z" fill="#1D0A43"/>
<path fill-rule="evenodd" clip-rule="evenodd" d="M91.4306 162.877C80.78 162.774 68.3056 162.98 58.9145 163.796C58.4634 163.835 58.0658 163.501 58.0266 163.05C57.9873 162.599 58.3213 162.202 58.7724 162.162C68.2414 161.339 80.777 161.134 91.4464 161.237C96.7839 161.288 101.662 161.416 105.466 161.583C109.237 161.749 112.024 161.955 113.124 162.175C113.568 162.264 113.856 162.696 113.768 163.14C113.679 163.584 113.247 163.872 112.803 163.783C111.853 163.593 109.207 163.389 105.394 163.222C101.612 163.056 96.7531 162.928 91.4306 162.877Z" fill="#1D0A43"/>
</g>
<defs>
<clipPath id="clip0_12820_45985">
<rect width="127.92" height="147.6" fill="white" transform="translate(26.0391 16.2002)"/>
</clipPath>
</defs>
</svg>
