<svg width="180" height="180" viewBox="0 0 180 180" fill="none" xmlns="http://www.w3.org/2000/svg">
<path fill-rule="evenodd" clip-rule="evenodd" d="M33.2101 18.4197H132.172V147.154H33.2101V18.4197ZM30.9609 16.2002H134.422V28.4077H149.041V163.8H43.3312V149.373H30.9609V16.2002ZM45.5804 149.373V161.581H146.792V30.6273H134.422V149.373H45.5804ZM62.4489 36.1761H48.9541V49.4934H62.4489V36.1761ZM46.7049 33.9566V51.713H64.6981V33.9566H46.7049ZM48.9541 62.8107H62.4489V76.128H48.9541V62.8107ZM46.7049 60.5912H64.6981V78.3476H46.7049V60.5912ZM62.4489 89.4453H48.9541V102.763H62.4489V89.4453ZM46.7049 87.2258V104.982H64.6981V87.2258H46.7049ZM48.9541 116.08H62.4489V129.397H48.9541V116.08ZM46.7049 113.86H64.6981V131.617H46.7049V113.86ZM116.428 38.3957H73.6947V36.1761H116.428V38.3957ZM73.6947 65.0303H116.428V62.8107H73.6947V65.0303ZM116.428 91.6649H73.6947V89.4453H116.428V91.6649ZM73.6947 118.299H116.428V116.08H73.6947V118.299ZM111.93 49.4934H73.6947V47.2739H111.93V49.4934ZM73.6947 76.128H111.93V73.9085H73.6947V76.128ZM111.93 102.763H73.6947V100.543H111.93V102.763ZM73.6947 129.397H111.93V127.178H73.6947V129.397Z" fill="#1D0A43"/>
</svg>
