<svg width="180" height="180" viewBox="0 0 180 180" fill="none" xmlns="http://www.w3.org/2000/svg">
<path fill-rule="evenodd" clip-rule="evenodd" d="M72.0959 93.7099C69.0627 95.9594 65.1842 98.1182 59.9884 99.9807L57.7487 100.784L57.7953 98.4048C57.8636 94.9207 58.454 89.8201 59.9624 84.6422C61.4655 79.4823 63.9246 74.0922 67.8312 70.1855C73.15 64.8668 80.4683 62.8868 86.5618 62.3292C89.6287 62.0485 92.4454 62.122 94.6455 62.3366C95.7456 62.4439 96.7052 62.5878 97.4758 62.745C98.1976 62.8922 98.8889 63.0771 99.3621 63.3137L100.269 63.767V64.7806L100.269 64.8963L100.269 65.0145C100.275 66.4574 100.294 71.2963 99.3698 76.8403C98.3981 82.6721 96.3329 89.6242 91.8014 94.1557C88.1339 97.8231 83.0381 100.207 78.0912 101.725C73.1237 103.248 68.1565 103.943 64.597 104.138L58.4561 104.475L63.614 101.125C65.9245 99.6249 69.1276 97.0412 72.0959 93.7099ZM67.1001 100.638C70.739 97.7936 75.2804 93.3131 78.3307 87.8559C79.3352 86.0589 80.1779 84.1559 80.7735 82.1706C80.4014 82.6358 80.0261 83.119 79.6394 83.6168C78.8272 84.6627 77.965 85.7728 76.9776 86.9146C73.8067 90.581 69.3438 94.5742 61.0936 97.8145C60.557 98.0253 60.0043 98.2328 59.435 98.4369C59.4458 97.8868 59.4702 97.2935 59.5099 96.6639C59.9546 89.6168 62.3194 78.0167 68.9909 71.3452C78.8598 61.4763 96.4971 63.7148 98.6287 64.7806C98.6287 64.8444 98.629 64.9221 98.6293 65.0132C98.6404 67.9696 98.704 84.9337 90.6417 92.996C84.8046 98.8331 74.8152 101.374 67.7408 102.216C66.5729 102.355 65.4844 102.447 64.5072 102.501C65.2842 101.996 66.1622 101.372 67.1001 100.638Z" fill="#1D0A43"/>
<path fill-rule="evenodd" clip-rule="evenodd" d="M54.232 94.3781C53.5923 92.3068 52.8769 90.5071 52.1111 88.9275C53.0565 90.1111 53.8169 91.2285 54.3588 92.1506L57.4751 97.4529L57.4126 91.303C57.3861 88.6879 57.0401 85.0306 56.0867 81.3425C55.1387 77.6754 53.5519 73.8274 50.9441 70.9757C47.7099 67.439 42.6236 65.694 38.4082 64.7967C34.3842 63.9401 30.8462 63.7958 29.798 63.7531L29.6285 63.746L28.6159 63.7007L28.1226 64.5862C27.905 64.9768 27.7373 65.5213 27.6062 66.0438C27.463 66.6146 27.3249 67.3206 27.2098 68.1266C26.9796 69.7386 26.8333 71.8049 26.9388 74.0663C27.1479 78.5487 28.3597 84.0359 32.1409 88.1707C34.9158 91.2051 38.8199 93.1926 42.545 94.4606C46.2878 95.7347 50.0027 96.3342 52.5597 96.4987L54.9341 96.6514L54.232 94.3781ZM47.5883 82.1909C50.234 84.1917 52.4266 86.5966 54.0039 88.6934C54.7287 89.6569 55.3235 90.5553 55.7727 91.3197C55.7631 90.3707 55.7092 89.2754 55.5962 88.0882C55.113 83.0108 53.5479 76.2532 49.7338 72.0824C44.155 65.9819 31.8662 65.4791 29.7245 65.3914L29.5553 65.3843C28.7143 66.8938 26.5223 79.5964 33.3512 87.0639C37.8216 91.9524 45.7703 94.0652 50.8907 94.6936C51.5304 94.772 52.1259 94.8274 52.665 94.862C52.4841 94.2764 52.2973 93.7141 52.1051 93.174C50.4808 88.6094 48.4755 85.6226 46.4804 83.4099C45.1373 81.9202 43.7988 80.7814 42.5843 79.7481C42.2363 79.452 41.8983 79.1644 41.5735 78.8799C43.7559 79.6423 45.7781 80.822 47.5883 82.1909Z" fill="#1D0A43"/>
<path fill-rule="evenodd" clip-rule="evenodd" d="M98.7927 99.2692C90.2058 107.735 78.4149 112.96 65.4038 112.96C39.1371 112.96 17.8438 91.6665 17.8438 65.3998C17.8438 39.1332 39.1371 17.8398 65.4038 17.8398C91.6704 17.8398 112.964 39.1332 112.964 65.3998C112.964 78.1146 107.974 89.664 99.8466 98.1969L99.9432 98.1003L108.056 106.213L110.758 103.451C112.658 101.509 115.749 101.5 117.661 103.43L125.749 111.595L111.721 125.93L103.633 117.766C101.721 115.836 101.711 112.696 103.612 110.754L106.909 107.385L98.7927 99.2692ZM111.324 65.3998C111.324 90.7608 90.7647 111.32 65.4038 111.32C40.0428 111.32 19.4837 90.7608 19.4837 65.3998C19.4837 40.0389 40.0428 19.4798 65.4038 19.4798C90.7647 19.4798 111.324 40.0389 111.324 65.3998ZM123.448 111.602L116.514 104.602C115.239 103.315 113.179 103.322 111.912 104.616L104.766 111.919C103.499 113.214 103.505 115.307 104.78 116.594L111.714 123.593L123.448 111.602Z" fill="#1D0A43"/>
<path fill-rule="evenodd" clip-rule="evenodd" d="M115.316 129.56L129.345 115.224L160.628 146.803C162.54 148.734 162.55 151.873 160.649 153.815L153.503 161.118C151.603 163.06 148.512 163.07 146.6 161.139L115.316 129.56ZM129.352 117.561L159.481 147.975C160.755 149.262 160.762 151.355 159.495 152.65L152.349 159.953C151.082 161.248 149.021 161.254 147.747 159.967L117.618 129.553L129.352 117.561Z" fill="#1D0A43"/>
</svg>
