<svg width="80" height="80" viewBox="0 0 80 80" fill="none" xmlns="http://www.w3.org/2000/svg">
<path d="M28.3415 13.9104C29.5456 13.1532 30.9423 12.9567 32.2273 13.25C33.5042 13.5413 34.6695 14.3155 35.4267 15.5046C35.4396 15.5216 35.4506 15.5396 35.4606 15.5585C36.2028 16.7567 36.3954 18.1414 36.1041 19.4163C35.8128 20.6933 35.0386 21.8585 33.8494 22.6158C33.8325 22.6287 33.8145 22.6397 33.7955 22.6497C32.5974 23.3919 31.2127 23.5844 29.9377 23.2931C28.6518 22.9998 27.4785 22.2167 26.7213 21.0126C25.9641 19.8084 25.7676 18.4117 26.0609 17.1278C26.3542 15.8418 27.1374 14.6686 28.3415 13.9114V13.9104ZM19.7349 61.5932C19.7479 61.7239 19.6531 61.8406 19.5224 61.8546C19.3918 61.8675 19.275 61.7728 19.2611 61.6421L19.2561 61.5972C19.1473 60.6484 18.7732 59.984 18.2365 59.581C17.6988 59.1759 16.9895 59.0253 16.2143 59.1071C16.2063 59.1081 16.2083 59.1081 16.1754 59.1121C16.0447 59.127 15.927 59.0333 15.912 58.9026C15.897 58.7719 15.9908 58.6542 16.1215 58.6392L16.1664 58.6342C17.0583 58.5404 17.8833 58.721 18.5218 59.2019C19.1613 59.6827 19.6052 60.4559 19.7299 61.5443L19.7349 61.5952V61.5932ZM61.407 45.5144C61.4658 45.3966 61.6095 45.3498 61.7262 45.4086C61.8439 45.4675 61.8908 45.6111 61.832 45.7279L61.811 45.7688C61.387 46.6237 61.3411 47.3859 61.5726 48.0164C61.805 48.6479 62.3178 49.1597 63.0112 49.5119L63.0471 49.5298C63.1648 49.5877 63.2137 49.7304 63.1548 49.8481C63.097 49.9658 62.9543 50.0147 62.8366 49.9558L62.7967 49.9359C61.9956 49.5298 61.4 48.9293 61.1246 48.179C60.8493 47.4288 60.8972 46.5389 61.383 45.5563L61.406 45.5114L61.407 45.5144ZM30.8066 21.3647C30.675 21.3687 30.5652 21.266 30.5612 21.1343C30.5572 21.0026 30.66 20.8928 30.7917 20.8889L30.8376 20.8869C31.7903 20.847 32.4807 20.5217 32.9226 20.0149C33.3646 19.5081 33.5671 18.8118 33.5421 18.0336L33.5401 17.9927C33.5352 17.861 33.6369 17.7513 33.7686 17.7453C33.9003 17.7403 34.01 17.8421 34.016 17.9738L34.018 18.0177C34.0469 18.9145 33.8065 19.7256 33.2818 20.3272C32.756 20.9298 31.9529 21.3158 30.8575 21.3617L30.8076 21.3637L30.8066 21.3647ZM68.6637 45.8236C69.0209 47.2004 68.7864 48.5911 68.119 49.7274C67.4506 50.8637 66.3492 51.7456 64.9735 52.1037C63.5968 52.4609 62.2061 52.2264 61.0698 51.559C59.9335 50.8906 59.0516 49.7892 58.6934 48.4135C58.3363 47.0368 58.5707 45.6461 59.2381 44.5098C59.9065 43.3735 61.0079 42.4915 62.3836 42.1334C63.7604 41.7762 65.1511 42.0107 66.2874 42.6781C67.4237 43.3465 68.3056 44.4479 68.6637 45.8236ZM67.4636 49.3423C68.0332 48.3736 68.2328 47.1874 67.9275 46.0142C67.6232 44.841 66.871 43.9022 65.9033 43.3335C64.9346 42.7639 63.7484 42.5644 62.5752 42.8696C61.402 43.1739 60.4632 43.9261 59.8946 44.8938C59.3249 45.8625 59.1254 47.0487 59.4307 48.2219C59.7349 49.3952 60.4872 50.3339 61.4549 50.9026C62.4236 51.4722 63.6097 51.6717 64.7829 51.3665C65.9562 51.0622 66.8949 50.31 67.4636 49.3423ZM57.5661 48.7058C57.7337 49.3493 57.9941 49.9438 58.3303 50.4856C58.6834 51.0552 59.1214 51.567 59.6222 52.0149C59.8946 52.2593 60.0691 52.4519 60.1769 52.7013C60.2866 52.9547 60.3106 53.2231 60.2786 53.6091C60.0272 56.6499 58.8131 59.3455 56.8757 61.4954C54.9144 63.6732 52.2118 65.2874 49.0184 66.1294C49.0124 66.1314 49.0064 66.1324 49.0004 66.1334L48.9695 66.1424C48.0876 66.3718 47.2386 66.2461 46.5532 65.865C45.8629 65.4809 45.3411 64.8375 45.1196 64.0334C45.1167 64.0224 45.1127 64.0074 45.1077 63.9885C45.0927 63.9296 45.1107 64.0045 45.0997 63.9616C44.8962 63.1465 45.0378 62.3234 45.4578 61.6441C45.8739 60.9717 46.5612 60.4439 47.4511 60.2125C47.507 60.1975 47.4451 60.2135 47.483 60.2035C47.491 60.2015 47.499 60.1995 47.507 60.1985C49.8783 59.583 51.7509 58.1045 52.8842 56.207C54.0155 54.3115 54.4086 51.997 53.82 49.7044L53.814 49.6805L53.808 49.6565C53.2064 47.368 51.7369 45.5363 49.8265 44.4309C47.914 43.3246 45.5586 42.9455 43.1872 43.561L43.1623 43.567V43.568C43.1154 43.581 43.1912 43.56 43.1304 43.576C42.2405 43.8074 41.3845 43.6807 40.6942 43.2956C39.9968 42.9066 39.4721 42.2561 39.2536 41.444C39.2416 41.4011 39.2646 41.4829 39.2476 41.4171C39.2436 41.4021 39.2396 41.3872 39.2366 41.3722C39.0391 40.5631 39.1818 39.7471 39.5978 39.0757C40.0108 38.4082 40.6922 37.8855 41.5741 37.656C41.59 37.652 41.606 37.648 41.6239 37.6431V37.6421C44.8224 36.824 47.9679 36.9198 50.7423 37.8675C53.4808 38.8033 55.8532 40.5671 57.5531 43.1021C57.7696 43.4253 57.8803 43.6717 57.9073 43.9451C57.9342 44.2164 57.8764 44.4688 57.7576 44.813C57.5372 45.4505 57.4035 46.111 57.3725 46.7784C57.3426 47.4149 57.4045 48.0613 57.5711 48.7048L57.5661 48.7058ZM57.6828 50.8846C57.3077 50.28 57.0164 49.6156 56.8298 48.8963C56.6433 48.177 56.5734 47.4548 56.6074 46.7435C56.6423 45.9972 56.7899 45.267 57.0314 44.5656C57.1162 44.3202 57.1591 44.1546 57.1451 44.0199C57.1321 43.8872 57.0603 43.7406 56.9156 43.5261C55.3124 41.1358 53.0748 39.4727 50.4929 38.5898C47.8581 37.6899 44.8623 37.6012 41.8075 38.3823V38.3813L41.8035 38.3823C41.7906 38.3853 41.7766 38.3893 41.7616 38.3933C41.0782 38.5709 40.5545 38.9689 40.2412 39.4757C39.931 39.9775 39.8242 40.5881 39.9719 41.1946L39.9799 41.2275C39.9928 41.2774 39.9699 41.1896 39.9858 41.2485C40.1495 41.8561 40.5405 42.3419 41.0603 42.6322C41.586 42.9255 42.2455 43.0203 42.9358 42.8407C42.9777 42.8297 42.8959 42.8507 42.9618 42.8327V42.8337L42.9917 42.8258C45.5656 42.1573 48.1245 42.5704 50.2036 43.7735C52.2846 44.9776 53.8848 46.9719 54.5403 49.464L54.5473 49.4909L54.5542 49.5179C55.1947 52.0139 54.7677 54.5349 53.5347 56.599C52.3036 58.6611 50.2694 60.2673 47.6955 60.9357C47.6856 60.9387 47.6756 60.9417 47.6656 60.9447C47.6087 60.9587 47.6766 60.9407 47.6397 60.9507C46.9493 61.1303 46.4196 61.5333 46.1033 62.0451C45.7911 62.5509 45.6853 63.1664 45.8379 63.778C45.8529 63.8369 45.832 63.756 45.8429 63.7989L45.8519 63.8319V63.8329C46.0175 64.4334 46.4066 64.9143 46.9224 65.2006C47.4431 65.4909 48.0946 65.5837 48.778 65.4061L48.8029 65.4001C48.8099 65.3981 48.8169 65.3961 48.8239 65.3942C51.8706 64.5901 54.4455 63.0547 56.3091 60.9866C58.1357 58.9594 59.28 56.4165 59.5185 53.5473C59.5404 53.2869 59.5314 53.1243 59.4795 53.0036C59.4257 52.8789 59.308 52.7542 59.1154 52.5826C58.5617 52.0868 58.0769 51.5191 57.6838 50.8866L57.6828 50.8846ZM13.801 66.0207C12.6168 65.2335 11.8626 64.0414 11.6022 62.7484C11.3419 61.4565 11.5733 60.0648 12.3595 58.8806C13.1466 57.6964 14.3388 56.9422 15.6327 56.6808C16.9246 56.4205 18.3163 56.6519 19.5005 57.438C20.6847 58.2252 21.4389 59.4173 21.7003 60.7113C21.9606 62.0032 21.7292 63.3949 20.9431 64.5791C20.1559 65.7633 18.9638 66.5175 17.6708 66.7779C16.3789 67.0382 14.9872 66.8068 13.803 66.0207H13.802H13.801ZM12.3475 62.5988C12.568 63.6922 13.2044 64.7018 14.2031 65.3732C14.216 65.3812 14.229 65.3892 14.241 65.3981C15.2476 66.0586 16.4258 66.2531 17.5192 66.0326C18.6126 65.8122 19.6222 65.1757 20.2936 64.177C20.3016 64.1641 20.3096 64.1511 20.3185 64.1391C20.979 63.1325 21.1735 61.9543 20.953 60.8609C20.7306 59.7605 20.0881 58.7449 19.0785 58.0745C18.0679 57.4031 16.8817 57.2056 15.7803 57.4281C14.6799 57.6505 13.6644 58.293 12.9939 59.3026C12.3225 60.3132 12.125 61.4994 12.3475 62.6008V62.5988ZM20.145 56.4684C19.5903 56.1002 18.9997 55.8309 18.3901 55.6523C17.7457 55.4637 17.0782 55.374 16.4058 55.374C16.0387 55.374 15.7803 55.346 15.5349 55.2333C15.2855 55.1186 15.088 54.934 14.8535 54.6237C13.0129 52.1915 12.119 49.3742 12.127 46.4811C12.135 43.551 13.0698 40.5462 14.8845 37.7897H14.8835C14.8914 37.7767 14.9014 37.7618 14.9134 37.7438C15.4182 36.9846 16.1345 36.5107 16.8997 36.3372C17.6708 36.1626 18.4889 36.2933 19.1902 36.7442C19.2012 36.7512 19.2132 36.7592 19.2281 36.7691C19.266 36.7941 19.2351 36.7731 19.2511 36.7841C19.2601 36.7901 19.269 36.7971 19.278 36.8041C19.9604 37.2759 20.3944 37.9753 20.532 38.7494C20.6707 39.5276 20.5111 40.3786 20.0023 41.1447C19.9764 41.1837 20.0003 41.1487 19.9843 41.1727C19.9813 41.1767 19.9784 41.1807 19.9754 41.1847L19.9704 41.1926C18.6146 43.2338 18.2056 45.5852 18.6286 47.754C19.0506 49.9199 20.3016 51.9052 22.2679 53.2201L22.3118 53.249C24.2871 54.5519 26.6026 54.936 28.7635 54.4841C30.9254 54.0321 32.9326 52.7432 34.2884 50.702L34.3043 50.6781L34.3113 50.6671C34.3213 50.6522 34.3123 50.6651 34.3203 50.6532C34.8291 49.887 35.5514 49.4091 36.3235 49.2355C37.1007 49.0599 37.9257 49.1946 38.6301 49.6535C38.661 49.6735 38.635 49.6565 38.654 49.6685C38.668 49.6775 38.6809 49.6865 38.6919 49.6944C39.3803 50.1663 39.8192 50.8706 39.9579 51.6488C40.0946 52.42 39.936 53.263 39.4322 54.0232C39.4212 54.0391 39.4112 54.0551 39.4012 54.0681C39.3982 54.072 39.3952 54.077 39.3923 54.081C37.5566 56.8165 35.1533 58.8387 32.4597 59.982C29.795 61.1123 26.852 61.3817 23.8961 60.6285C23.5209 60.5327 23.2745 60.423 23.07 60.2354C22.8695 60.0518 22.7438 59.8254 22.6021 59.4882C22.3417 58.8687 22.0006 58.288 21.5766 57.7673C21.1745 57.2734 20.6976 56.8345 20.144 56.4664L20.145 56.4684ZM18.6016 54.922C19.287 55.1226 19.9474 55.4238 20.565 55.8339C21.1835 56.2449 21.7172 56.7367 22.1672 57.2894C22.637 57.866 23.0151 58.5095 23.3035 59.1949C23.4032 59.4333 23.483 59.5849 23.5838 59.6767C23.6806 59.7655 23.8322 59.8264 24.0846 59.8902C26.876 60.6015 29.6534 60.3481 32.1644 59.2827C34.7213 58.1972 37.0089 56.2688 38.7617 53.657C38.7647 53.651 38.7687 53.6461 38.7727 53.6401C38.7817 53.6271 38.7897 53.6141 38.7977 53.6042C39.1877 53.0165 39.3114 52.3691 39.2077 51.7815C39.1049 51.2009 38.7777 50.6771 38.2639 50.3249L38.235 50.305C38.2031 50.284 38.235 50.304 38.217 50.293C37.6893 49.9498 37.0728 49.8491 36.4921 49.9798C35.9055 50.1115 35.3518 50.4806 34.9568 51.0752L34.9468 51.0901L34.9408 51.1001L34.9249 51.124C33.4534 53.3398 31.2715 54.7395 28.9201 55.2303C26.5667 55.7221 24.0437 55.3041 21.8928 53.8845L21.8489 53.8556L21.8469 53.8546C19.704 52.423 18.3402 50.2591 17.8803 47.8987C17.4214 45.5413 17.8654 42.9884 19.3359 40.7736L19.3419 40.7646C19.3449 40.7587 19.3489 40.7537 19.3528 40.7477C19.3798 40.7078 19.3538 40.7477 19.3678 40.7257C19.7619 40.1321 19.8876 39.4777 19.7818 38.8851C19.6781 38.3065 19.3558 37.7847 18.849 37.4326C18.8411 37.4276 18.8331 37.4236 18.8251 37.4176C18.7952 37.3976 18.8321 37.4216 18.8081 37.4056L18.7792 37.3867C18.2545 37.0495 17.6429 36.9507 17.0673 37.0804C16.4866 37.2121 15.939 37.5772 15.5489 38.1648C15.5419 38.1748 15.5339 38.1868 15.5249 38.2017H15.5239L15.5219 38.2047C13.7881 40.8375 12.8952 43.6987 12.8872 46.4821C12.8792 49.2116 13.7232 51.8693 15.4611 54.1658C15.6167 54.3723 15.7324 54.4871 15.8532 54.5429C15.9789 54.6008 16.1485 54.6148 16.4048 54.6148C17.1481 54.6148 17.8873 54.7135 18.6006 54.923L18.6016 54.922ZM32.0607 13.9912C30.9643 13.7408 29.7741 13.9084 28.7475 14.5539C27.721 15.1994 27.0536 16.199 26.8031 17.2934C26.5527 18.3888 26.7203 19.58 27.3658 20.6065C28.0113 21.6331 29.0109 22.3005 30.1053 22.5509C31.2007 22.8013 32.3919 22.6337 33.4184 21.9882C34.445 21.3428 35.1124 20.3431 35.3628 19.2487C35.6132 18.1533 35.4456 16.9622 34.8002 15.9356C34.1547 14.9091 33.1551 14.2416 32.0607 13.9912ZM34.443 23.6184C35.0057 23.2652 35.4935 22.8372 35.9085 22.3534C36.3445 21.8446 36.6996 21.2729 36.977 20.6594C37.1266 20.3262 37.2583 20.1017 37.4648 19.9231C37.6713 19.7436 37.9207 19.6398 38.3008 19.553C41.2758 18.8746 44.2108 19.2168 46.8446 20.413C49.5142 21.6261 51.8706 23.7141 53.6374 26.5025C53.6414 26.5085 53.6454 26.5155 53.6494 26.5225L53.6644 26.5454C54.1492 27.3176 54.2869 28.1646 54.1302 28.9337C53.9726 29.7089 53.5167 30.4003 52.8174 30.8542C52.8004 30.8652 52.7874 30.8731 52.7785 30.8791C52.7625 30.8891 52.7824 30.8761 52.7545 30.8941C52.0372 31.336 51.2102 31.4498 50.438 31.2552C49.6708 31.0617 48.9605 30.5659 48.4717 29.7877C48.4647 29.7767 48.4717 29.7877 48.4547 29.7588C48.4517 29.7538 48.4487 29.7498 48.4467 29.7448L48.4418 29.7378H48.4408C47.1369 27.6638 45.1625 26.3249 43.0127 25.8181C40.8638 25.3123 38.5383 25.6376 36.53 26.8906C36.5231 26.8946 36.5161 26.8986 36.5091 26.9026L36.4872 26.9165C34.4869 28.1815 33.186 30.1349 32.7091 32.2908C32.2323 34.4476 32.5824 36.808 33.8863 38.8821L33.8993 38.9031C33.9073 38.916 33.8983 38.9011 33.9173 38.931C34.4061 39.7092 34.5448 40.5641 34.3861 41.3393C34.2265 42.1204 33.7646 42.8178 33.0573 43.2707C33.0433 43.2797 33.0643 43.2657 33.0334 43.2857C33.0244 43.2916 33.0294 43.2877 32.9944 43.3096V43.3106C32.2811 43.7446 31.4601 43.8553 30.6949 43.6618C29.9337 43.4692 29.2304 42.9774 28.7445 42.2062C28.7405 42.2002 28.7395 42.1982 28.7176 42.1623L28.7166 42.1633C26.9707 39.362 26.1118 36.3342 26.1766 33.4031C26.2415 30.509 27.2052 27.7146 29.1067 25.3293C29.3501 25.024 29.5516 24.8445 29.803 24.7357C30.0504 24.629 30.3098 24.608 30.676 24.618C31.3474 24.635 32.0168 24.5621 32.6672 24.3895C33.2828 24.2259 33.8793 23.9715 34.442 23.6184H34.443ZM36.4872 22.8482C36.0243 23.3889 35.4785 23.8668 34.849 24.2628C34.2185 24.6589 33.5511 24.9432 32.8628 25.1258C32.1445 25.3163 31.4032 25.3971 30.66 25.3782C30.4036 25.3712 30.233 25.3812 30.1053 25.4371C29.9826 25.4899 29.8649 25.6027 29.7033 25.8042C27.9085 28.0558 26.9977 30.6916 26.9368 33.4191C26.875 36.2025 27.696 39.0856 29.3631 41.7613L29.3621 41.7623L29.3641 41.7663C29.371 41.7772 29.3651 41.7683 29.387 41.8022C29.7621 42.3998 30.3008 42.7779 30.8785 42.9245C31.4511 43.0692 32.0647 42.9864 32.5974 42.6631V42.6641L32.5984 42.6631C32.6124 42.6542 32.5944 42.6651 32.6263 42.6452C32.6433 42.6342 32.6163 42.6512 32.6443 42.6332C33.175 42.293 33.5202 41.7733 33.6389 41.1906C33.7596 40.601 33.6509 39.9446 33.2708 39.34C33.2628 39.3271 33.2748 39.347 33.2558 39.3181L33.2389 39.2911C31.8242 37.0395 31.4451 34.4756 31.9629 32.1302C32.4817 29.7827 33.8993 27.6538 36.0771 26.2761L36.0991 26.2621C36.1071 26.2561 36.115 26.2511 36.123 26.2461C38.3088 24.8814 40.8408 24.5272 43.1803 25.0779C45.5187 25.6286 47.6646 27.0821 49.0792 29.3338H49.0782L49.0832 29.3428C49.0872 29.3488 49.0912 29.3547 49.0952 29.3607C49.1022 29.3727 49.0922 29.3557 49.1092 29.3837C49.4883 29.9872 50.033 30.3703 50.6166 30.517C51.1952 30.6626 51.8138 30.5778 52.3485 30.2486C52.3624 30.2406 52.3365 30.2556 52.3664 30.2367L52.3964 30.2177C52.9201 29.8785 53.2603 29.3607 53.378 28.7831C53.4968 28.1995 53.389 27.55 53.0139 26.9525L53.0029 26.9355C52.9979 26.9285 52.992 26.9205 52.987 26.9125C51.3 24.2499 49.0583 22.2596 46.5253 21.1093C44.0392 19.98 41.2688 19.6568 38.4625 20.2973C38.2111 20.3551 38.0584 20.412 37.9577 20.5008C37.8559 20.5896 37.7731 20.7392 37.6673 20.9746C37.3621 21.652 36.968 22.2845 36.4832 22.8512L36.4872 22.8482Z" fill="#1D0A43"/>
</svg>
