<svg width="81" height="80" viewBox="0 0 81 80" fill="none" xmlns="http://www.w3.org/2000/svg">
<path fill-rule="evenodd" clip-rule="evenodd" d="M35.2461 13.155C33.3252 11.7581 30.6005 12.6255 29.8408 14.8758L28.6232 18.4821C28.1069 20.0111 26.753 21.1036 25.1494 21.285L20.0315 21.864C17.8818 22.1072 16.4582 24.2137 17.0342 26.2989L18.1448 30.319C18.5992 31.9643 18.0026 33.7202 16.6398 34.748L13.5757 37.0588C11.7668 38.423 11.699 41.1159 13.437 42.5694L17.1149 45.6453C18.3986 46.7189 18.914 48.4572 18.423 50.057L17.3593 53.5226C16.6647 55.7856 18.3571 58.0754 20.7243 58.0754H24.6823C26.5193 58.0754 28.1387 59.2802 28.6668 61.0396L29.8024 64.8238C30.538 67.2748 33.5602 68.1467 35.4883 66.4641L37.8588 64.3954C39.4052 63.0459 41.7049 63.0259 43.2745 64.3485L45.9598 66.611C47.8966 68.243 50.8713 67.3568 51.5993 64.931L52.7203 61.1957C53.2721 59.3571 55.0104 58.1348 56.9274 58.2375L60.9388 58.4524C63.4223 58.5855 65.2568 56.1711 64.4631 53.8141L63.1386 49.8811C62.5726 48.2002 63.1345 46.3453 64.5382 45.2611L67.9228 42.6469C69.8 41.1971 69.7351 38.3434 67.7939 36.9804L64.6678 34.7853C63.1931 33.7499 62.5527 31.8827 63.0814 30.1601L64.2508 26.3504C64.8947 24.2526 63.4831 22.0835 61.3043 21.8225L56.7304 21.2746C55.2518 21.0975 53.9806 20.1436 53.3974 18.7733L51.6987 14.7822C50.8491 12.786 48.4134 12.0261 46.5794 13.1851L42.9237 15.4952C41.4831 16.4056 39.6329 16.3453 38.2547 15.343L35.2461 13.155ZM29.2344 14.6711C30.1323 12.0116 33.3524 10.9865 35.6225 12.6374L38.6311 14.8254C39.7973 15.6735 41.3628 15.7245 42.5818 14.9542L46.2375 12.644C48.405 11.2743 51.2835 12.1724 52.2876 14.5315L53.9863 18.5227C54.4798 19.6821 55.5554 20.4893 56.8065 20.6392L61.3805 21.1871C63.9554 21.4955 65.6236 24.059 64.8626 26.5382L63.6933 30.3479C63.2459 31.8055 63.7877 33.3854 65.0356 34.2616L68.1617 36.4566C70.4558 38.0674 70.5325 41.44 68.314 43.1534L64.9294 45.7676C63.7417 46.685 63.2662 48.2545 63.7452 49.6768L65.0696 53.6098C66.0077 56.3954 63.8396 59.2488 60.9046 59.0915L56.8931 58.8766C55.2711 58.7896 53.8002 59.8239 53.3333 61.3797L52.2123 65.115C51.3519 67.9818 47.8363 69.0291 45.5474 67.1005L42.8621 64.8379C41.534 63.7188 39.5881 63.7357 38.2796 64.8776L35.9091 66.9463C33.6305 68.9348 30.0588 67.9044 29.1894 65.0077L28.0538 61.2236C27.607 59.7349 26.2367 58.7154 24.6823 58.7154H20.7243C17.9267 58.7154 15.9265 56.0093 16.7474 53.3348L17.8111 49.8693C18.2266 48.5155 17.7905 47.0447 16.7043 46.1362L13.0264 43.0603C10.9725 41.3426 11.0526 38.1601 13.1903 36.5479L16.2544 34.237C17.4076 33.3674 17.9124 31.8815 17.5279 30.4894L16.4174 26.4694C15.7366 24.0049 17.4191 21.5154 19.9596 21.228L25.0774 20.6491C26.4343 20.4956 27.58 19.5712 28.0168 18.2774L29.2344 14.6711ZM40.8839 59.1036C51.4878 59.1036 60.0839 50.5075 60.0839 39.9036C60.0839 29.2997 51.4878 20.7036 40.8839 20.7036C30.28 20.7036 21.6839 29.2997 21.6839 39.9036C21.6839 50.5075 30.28 59.1036 40.8839 59.1036ZM40.8839 59.7436C51.8412 59.7436 60.7239 50.8609 60.7239 39.9036C60.7239 28.9463 51.8412 20.0636 40.8839 20.0636C29.9266 20.0636 21.0439 28.9463 21.0439 39.9036C21.0439 50.8609 29.9266 59.7436 40.8839 59.7436ZM45.3351 30.7565C45.4085 30.5957 45.3376 30.4059 45.1768 30.3325C45.016 30.2592 44.8262 30.3301 44.7528 30.4909L36.4328 48.7309C36.3595 48.8917 36.4304 49.0815 36.5912 49.1548C36.752 49.2282 36.9418 49.1573 37.0151 48.9965L45.3351 30.7565ZM48.8839 41.5036C46.7631 41.5036 45.0439 43.2228 45.0439 45.3436C45.0439 47.4644 46.7631 49.1836 48.8839 49.1836C51.0047 49.1836 52.7239 47.4644 52.7239 45.3436C52.7239 43.2228 51.0047 41.5036 48.8839 41.5036ZM44.4039 45.3436C44.4039 42.8694 46.4097 40.8636 48.8839 40.8636C51.3581 40.8636 53.3639 42.8694 53.3639 45.3436C53.3639 47.8178 51.3581 49.8236 48.8839 49.8236C46.4097 49.8236 44.4039 47.8178 44.4039 45.3436ZM29.6839 34.4636C29.6839 32.3428 31.4031 30.6236 33.5239 30.6236C35.6447 30.6236 37.3639 32.3428 37.3639 34.4636C37.3639 36.5844 35.6447 38.3036 33.5239 38.3036C31.4031 38.3036 29.6839 36.5844 29.6839 34.4636ZM33.5239 29.9836C31.0497 29.9836 29.0439 31.9894 29.0439 34.4636C29.0439 36.9378 31.0497 38.9436 33.5239 38.9436C35.9981 38.9436 38.0039 36.9378 38.0039 34.4636C38.0039 31.9894 35.9981 29.9836 33.5239 29.9836Z" fill="#1D0A43"/>
</svg>
