<svg width="81" height="80" viewBox="0 0 81 80" fill="none" xmlns="http://www.w3.org/2000/svg">
<g clip-path="url(#clip0_12787_30705)">
<path d="M58.949 59.688C60.6098 57.8403 61.2766 54.6109 61.635 52.8759C61.7016 52.5546 61.7547 52.2947 61.8002 52.1181C62.0165 51.2887 62.7294 49.7667 63.0258 49.1504C63.0949 49.0064 63.1019 48.8387 63.0437 48.689C62.9854 48.5392 62.8664 48.4189 62.7166 48.3587L62.1163 48.1194C61.171 47.7437 60.1451 47.9965 59.4808 48.6819C59.5627 46.6103 59.653 44.1917 59.7202 42.3703C59.7477 41.6247 59.2082 40.9949 58.4645 40.9053L58.2642 40.8816C58.2194 40.2947 57.8149 39.7789 57.2274 39.6157C57.0027 39.5536 56.7736 39.5536 56.5528 39.6003C57.1019 37.7898 57.4891 35.9498 57.6958 34.1117C57.9403 34.1661 58.1854 34.2205 58.4344 34.2679C58.4549 34.2717 58.4747 34.2736 58.4952 34.2736C58.6456 34.2736 58.7794 34.1667 58.8088 34.0131C58.8421 33.8397 58.7275 33.672 58.5547 33.6394C49.2011 31.8595 42.949 24.6192 42.021 23.4877C42.7934 22.0624 43.2152 20.5911 43.4418 19.3111C43.445 19.3034 43.4494 19.2963 43.4526 19.2887C43.4731 19.2394 43.4763 19.1888 43.4718 19.1389C43.8021 17.1517 43.6651 15.6688 43.6613 15.633C43.6434 15.457 43.4706 15.3335 43.3106 15.3475C43.1346 15.3655 43.0066 15.5229 43.0251 15.6989C43.0283 15.7335 43.1608 17.1773 42.8344 19.0999C41.4072 22.4464 36.0504 24.4445 29.2728 26.9699L29.1563 27.0128C28.9906 27.0749 28.9061 27.2592 28.9682 27.425C29.0162 27.5536 29.1384 27.633 29.2683 27.633C29.3054 27.633 29.3432 27.6266 29.3803 27.6131L29.4968 27.5696C35.3125 25.4026 40.0978 23.6131 42.3909 20.9616C41.667 23.2906 40.1784 25.8551 37.1454 27.4397C35.9378 28.0701 34.4056 28.6544 32.7832 29.2727C29.0635 30.6896 25.2184 32.1546 24.5835 34.4944C24.325 35.4499 24.6283 36.4746 25.4866 37.5415C25.5365 37.6035 25.6062 37.6343 25.6786 37.6483C25.8437 38.4714 26.0421 39.281 26.2635 40.0797C25.987 39.9786 25.6882 39.9645 25.397 40.0451C24.8088 40.2083 24.405 40.7242 24.3602 41.3104L24.1586 41.3341C23.4155 41.4237 22.876 42.0535 22.9035 42.7991C22.9707 44.6205 23.0616 47.0384 23.1429 49.1107C22.4779 48.4247 21.4514 48.1725 20.508 48.5482L19.9077 48.7882C19.7586 48.8477 19.6389 48.968 19.5806 49.1178C19.5224 49.2675 19.5294 49.4352 19.5986 49.5792C19.8955 50.1962 20.6091 51.72 20.8242 52.5469C20.8696 52.7235 20.9234 52.9853 20.9906 53.3072C21.3496 55.041 22.0165 58.2691 23.6754 60.1162C25.3554 61.9863 26.9944 62.8746 27.4597 63.1043C27.637 63.6253 28.2981 65.7053 28.0152 67.0224C27.9781 67.1952 28.0882 67.3648 28.2616 67.4026C28.284 67.4071 28.3064 67.4096 28.3288 67.4096C28.476 67.4096 28.6091 67.3072 28.6411 67.1562C29.0027 65.4672 28.0581 62.872 28.0171 62.7619L27.9704 62.6352L27.8469 62.5802C27.829 62.5719 25.9979 61.7443 24.1515 59.6887C22.6078 57.9703 21.9384 54.7338 21.6171 53.1773C21.548 52.8419 21.491 52.5693 21.4437 52.3856C21.221 51.5299 20.5227 50.0259 20.2034 49.3591L20.7461 49.1434C21.6472 48.7824 22.6565 49.1984 23.0456 50.0861L23.196 50.4298C23.2626 52.0586 23.3163 53.2669 23.3368 53.4109C23.3982 53.8448 23.6248 54.929 23.635 54.9751C23.6664 55.1255 23.7995 55.2291 23.9474 55.2291C23.9691 55.2291 23.9915 55.2272 24.0139 55.2221C24.1874 55.1856 24.2974 55.0167 24.2616 54.8432C24.259 54.8317 24.0299 53.7335 23.971 53.3207C23.9544 53.1959 23.9064 52.1533 23.8341 50.3543C23.8341 50.353 23.8341 50.3523 23.8341 50.3511C23.7605 48.5392 23.6619 45.9607 23.5448 42.776C23.5294 42.3658 23.8264 42.0189 24.2354 41.9696L24.4165 41.9479L26.1701 53.7648C26.1931 53.9235 26.3301 54.0381 26.4856 54.0381C26.501 54.0381 26.5176 54.0368 26.533 54.0343C26.7077 54.0087 26.8286 53.8461 26.8024 53.6714L25.0014 41.5338C24.9432 41.1427 25.187 40.7677 25.5691 40.6621C25.7784 40.6039 25.996 40.6339 26.181 40.7447C26.3672 40.8554 26.4965 41.0327 26.5445 41.2439L29.187 52.7952C29.2261 52.9667 29.3957 53.0762 29.5704 53.0359C29.7432 52.9962 29.8507 52.8247 29.811 52.6525L27.2011 41.2432L27.5704 41.1242C27.9806 40.9917 28.4222 41.2176 28.5573 41.6259L32.0389 52.1635C32.083 52.2979 32.2085 52.3831 32.3429 52.3831C32.3762 52.3831 32.4094 52.3779 32.4434 52.3671C32.611 52.3114 32.7019 52.1309 32.6462 51.9626L29.4354 42.2448L29.6709 42.1642C30.0568 42.0343 30.4741 42.2115 30.6405 42.5827C31.4136 44.3114 32.9618 47.7091 34.6437 51.0371C36.6514 55.009 36.0894 59.0032 35.82 60.9226C35.7816 61.1901 35.7502 61.4192 35.7304 61.6035C35.5659 63.1632 36.4094 67.8346 36.4446 68.033C36.4728 68.1879 36.6078 68.296 36.7589 68.296C36.7781 68.296 36.7979 68.2941 36.8165 68.2909C36.9906 68.2589 37.1058 68.0925 37.0744 67.9191C37.0654 67.8711 36.2117 63.1389 36.3666 61.6707C36.3851 61.4915 36.4165 61.2701 36.4536 61.0115C36.6296 59.7597 36.924 57.6541 36.5918 55.2285C38.1899 56.1744 39.7694 56.6743 41.1934 56.6743C42.6245 56.6743 44.2827 56.0637 46.0203 54.9085C45.7112 57.2893 45.9998 59.3514 46.1733 60.5853C46.2104 60.8439 46.2411 61.0653 46.2603 61.2445C46.4152 62.7127 45.5608 67.4448 45.5525 67.4928C45.5211 67.6663 45.6363 67.8327 45.8104 67.8647C45.829 67.8679 45.8488 67.8698 45.868 67.8698C46.019 67.8698 46.1541 67.7616 46.1822 67.6067C46.2181 67.4083 47.0616 62.737 46.8965 61.1773C46.8773 60.993 46.8453 60.7639 46.8069 60.4963C46.5374 58.577 45.9755 54.5827 47.9832 50.6109C49.7419 47.1306 51.3688 43.5389 51.9864 42.1565C52.1528 41.7859 52.5675 41.6061 52.9566 41.7386L53.1915 41.8186L49.9813 51.5357C49.9256 51.704 50.0171 51.8845 50.1842 51.9402C50.2181 51.9517 50.2514 51.9562 50.2846 51.9562C50.419 51.9562 50.5438 51.8711 50.5886 51.7367L53.8974 41.7219C53.8974 41.7213 53.8981 41.7213 53.8981 41.7213C53.8987 41.72 53.8981 41.72 53.8987 41.7194L54.0702 41.1997C54.2053 40.7907 54.6475 40.5687 55.0571 40.6979L55.4264 40.817L52.8171 52.2256C52.7774 52.3984 52.885 52.5693 53.0578 52.609C53.2312 52.6506 53.4021 52.5399 53.4411 52.3683L56.083 40.817C56.1003 40.7427 56.1387 40.6787 56.1752 40.6141C56.2296 40.5763 56.2731 40.5219 56.2962 40.4541C56.3435 40.4055 56.387 40.3523 56.4472 40.3165C56.6341 40.2058 56.851 40.177 57.059 40.2346C57.4411 40.3402 57.685 40.7152 57.6274 41.1075L55.8258 53.2445C55.7995 53.4192 55.9198 53.5818 56.0952 53.6074C56.1106 53.6099 56.1272 53.6112 56.1426 53.6112C56.2981 53.6112 56.435 53.4967 56.4581 53.3379L58.2123 41.521L58.3922 41.5427C58.8018 41.592 59.0987 41.9389 59.0834 42.3491C58.8491 48.7011 58.6898 52.6429 58.6565 52.8938C58.5982 53.3072 58.3685 54.4055 58.3659 54.417C58.3294 54.5898 58.4402 54.7594 58.6136 54.7959C58.6354 54.801 58.6578 54.8029 58.6802 54.8029C58.828 54.8029 58.9605 54.6992 58.9925 54.5488C59.0027 54.5034 59.2299 53.4173 59.2907 52.984C59.3112 52.8407 59.365 51.6336 59.4315 50.0055L59.5826 49.6605C59.9704 48.7728 60.9816 48.3562 61.8821 48.7178L62.4242 48.9335C62.1048 49.5997 61.4072 51.1024 61.1838 51.96C61.1358 52.1437 61.0795 52.4144 61.0104 52.7491C60.6885 54.3056 60.0197 57.5434 58.4747 59.2631C56.6277 61.3187 54.7979 62.1463 54.78 62.1546L54.6558 62.2096L54.6098 62.3363C54.5694 62.4464 53.6242 65.0423 53.9851 66.7306C54.0178 66.881 54.1502 66.984 54.2974 66.984C54.3198 66.984 54.3422 66.9815 54.3646 66.977C54.5381 66.9392 54.6475 66.7696 54.611 66.5968C54.3294 65.2797 54.9899 63.1997 55.1672 62.6787C55.6306 62.4458 57.269 61.5581 58.949 59.688ZM25.2018 34.6615C25.2043 34.6512 25.2101 34.641 25.2133 34.6307C25.2766 35.1959 25.3534 35.7565 25.443 36.3133C25.1435 35.7277 25.061 35.1818 25.2018 34.6615ZM53.4616 40.9981L53.3912 41.2106L53.1627 41.1325C52.4606 40.8919 51.7029 41.2208 51.4021 41.8947C50.7858 43.2727 49.164 46.8535 47.4117 50.3216C46.7749 51.5811 46.3877 52.8375 46.1611 54.0336C44.3461 55.3405 42.6296 56.0349 41.1928 56.0349C39.7477 56.0349 38.1099 55.4634 36.4504 54.3882C36.2219 53.2138 35.8386 51.9831 35.2152 50.7485C33.5397 47.432 31.996 44.0451 31.2248 42.3216C30.924 41.6464 30.1637 41.3207 29.4648 41.5587L29.2357 41.6368L29.1659 41.425C28.9208 40.6851 28.1176 40.2755 27.3752 40.5155L27.0757 40.6122C26.4069 38.3978 25.9621 36.0675 25.7528 33.6829C27.0482 32.1469 30.1835 30.9482 33.013 29.8711C34.6533 29.2458 36.2027 28.6557 37.4437 28.0074C39.4021 26.9847 40.7512 25.5773 41.6811 24.0778C42.9861 25.6215 48.677 31.8474 57.0738 33.9632C56.8485 36.0247 56.3973 38.0912 55.731 40.1123C55.7042 40.1463 55.6805 40.1815 55.6574 40.2179L55.2542 40.0887C54.5131 39.8512 53.7074 40.257 53.4616 40.9981ZM41.189 44.0336C41.3656 44.0336 41.509 43.8903 41.509 43.7136V38.024C41.509 37.8474 41.3656 37.704 41.189 37.704C41.0123 37.704 40.869 37.8474 40.869 38.024V43.7136C40.869 43.8903 41.0123 44.0336 41.189 44.0336ZM53.1525 33.1107C47.7867 31.5472 44.5035 34.0067 44.3659 34.1123C44.2258 34.2199 44.1995 34.4202 44.307 34.5603C44.3704 34.6423 44.4651 34.6858 44.5611 34.6858C44.6283 34.6858 44.6968 34.6647 44.755 34.6199C44.7864 34.5962 47.9346 32.2583 52.9733 33.7251C53.1454 33.7757 53.3202 33.6771 53.3701 33.5075C53.42 33.3373 53.3227 33.16 53.1525 33.1107ZM37.925 34.6199C37.9832 34.664 38.051 34.6858 38.1189 34.6858C38.2149 34.6858 38.3102 34.6429 38.373 34.5603C38.4805 34.4202 38.4542 34.2199 38.3141 34.1123C38.1765 34.0074 34.8946 31.5472 29.5275 33.1107C29.3573 33.16 29.26 33.3373 29.3093 33.5075C29.3586 33.6778 29.5339 33.7757 29.7061 33.7251C34.7467 32.2583 37.8942 34.5962 37.925 34.6199ZM39.5941 44.5751H39.957C40.133 44.5751 40.277 44.4317 40.277 44.2551C40.277 44.0784 40.133 43.9351 39.957 43.9351H39.5941C39.4174 43.9351 39.2741 44.0784 39.2741 44.2551C39.2741 44.4317 39.4168 44.5751 39.5941 44.5751ZM42.3032 44.5751H42.6661C42.8421 44.5751 42.9861 44.4317 42.9861 44.2551C42.9861 44.0784 42.8421 43.9351 42.6661 43.9351H42.3032C42.1266 43.9351 41.9832 44.0784 41.9832 44.2551C41.9832 44.4317 42.1266 44.5751 42.3032 44.5751ZM51.8411 29.3002C51.8853 29.3207 51.932 29.3303 51.9774 29.3303C52.0978 29.3303 52.2123 29.2624 52.2667 29.1459C52.3422 28.9859 52.2738 28.7959 52.1138 28.7203C47.772 26.6813 44.6123 22.4285 44.581 22.3863C44.4754 22.2435 44.2744 22.2141 44.1336 22.3178C43.9909 22.4227 43.9608 22.6224 44.0651 22.7651C44.197 22.945 47.349 27.1901 51.8411 29.3002ZM22.4453 33.5978C22.6142 33.5978 22.7544 33.4666 22.7646 33.2963C22.9458 30.1687 26.4318 28.7555 27.5781 28.2909C27.7419 28.2243 27.8213 28.0375 27.7541 27.8743C27.6875 27.7104 27.5006 27.6311 27.3381 27.6983C26.099 28.2007 22.3307 29.7277 22.1259 33.2599C22.115 33.4359 22.2501 33.5875 22.4267 33.5978C22.4325 33.5978 22.4389 33.5978 22.4453 33.5978ZM13.5301 36.0003C13.1813 35.8154 12.7806 35.7776 12.403 35.8941C12.0254 36.0106 11.7157 36.2666 11.5314 36.6154C11.347 36.9642 11.3093 37.3648 11.4258 37.7424C11.5422 38.1194 11.7982 38.4291 12.1477 38.6135C12.4523 38.7741 13.059 38.8195 13.6408 38.8195C14.2411 38.8195 14.8158 38.7715 15.0027 38.7543L15.491 38.7095L15.2536 38.2807C15.0738 37.9575 14.1477 36.3274 13.5301 36.0003ZM12.4466 38.0483C12.2482 37.9434 12.1035 37.768 12.037 37.5543C11.971 37.3405 11.9928 37.1133 12.0978 36.9149C12.2021 36.7171 12.3781 36.5719 12.5912 36.5059C12.6731 36.4803 12.7563 36.4682 12.8395 36.4682C12.9746 36.4682 13.1083 36.5008 13.2306 36.5655C13.5006 36.7088 14.0318 37.4762 14.4402 38.1533C13.6504 38.1975 12.7173 38.1911 12.4466 38.0483ZM18.2213 34.9885C18.0811 34.8816 17.8808 34.9072 17.7726 35.048C17.6658 35.1882 17.692 35.3891 17.8328 35.4967C18.021 35.6407 18.1413 35.8723 18.2763 36.3504C18.3166 36.4912 18.4446 36.5834 18.5842 36.5834C18.613 36.5834 18.6424 36.5795 18.6712 36.5712C18.8421 36.5232 18.9406 36.3459 18.8926 36.1763C18.7467 35.6599 18.5758 35.2599 18.2213 34.9885ZM69.1685 36.1309C68.8587 35.5453 68.1291 35.3219 67.5448 35.6304C67.0667 35.8832 66.396 37.0461 66.2014 37.3968L65.964 37.8256L66.4523 37.8704C66.6462 37.8883 67.0622 37.921 67.4936 37.921C67.9499 37.921 68.4229 37.8839 68.668 37.7546C69.2536 37.4448 69.4782 36.7165 69.1685 36.1309ZM68.3691 37.1888C68.2034 37.2765 67.6139 37.2957 67.0187 37.2675C67.331 36.76 67.6779 36.2832 67.8437 36.1955C68.1176 36.0509 68.4581 36.1559 68.6034 36.4298C68.7474 36.7037 68.6424 37.0442 68.3691 37.1888ZM67.525 29.4519C68.2462 28.7114 68.2315 27.5216 67.4917 26.8003C67.1384 26.456 66.675 26.2672 66.1829 26.2672C66.1746 26.2672 66.1669 26.2672 66.1592 26.2672C65.6581 26.2736 65.1896 26.4746 64.8395 26.833C64.1918 27.4973 63.6626 30.1059 63.6043 30.4016L63.5096 30.8823L63.9883 30.7754C64.2827 30.7095 66.8779 30.1155 67.525 29.4519ZM65.2984 27.2797C65.5288 27.0435 65.8373 26.9111 66.1669 26.9072C66.1726 26.9072 66.1778 26.9072 66.1822 26.9072C66.5067 26.9072 66.812 27.0314 67.045 27.2579C67.532 27.7335 67.5416 28.5168 67.0661 29.0045C66.7339 29.345 65.3726 29.7725 64.3365 30.0343C64.5726 28.9917 64.9656 27.6208 65.2984 27.2797ZM65.9038 36.0605C66.2514 35.5741 66.389 34.9808 66.2904 34.3907C66.1918 33.8007 65.8699 33.2842 65.3835 32.9367C64.8965 32.5885 64.3026 32.4515 63.7138 32.5495C63.4469 32.5943 63.1986 32.6896 62.9707 32.8202C62.1125 28.5002 61.1192 25.1024 60.0126 22.7357C55.7848 13.6765 46.3698 11.1907 43.3829 11.7399C38.6341 10.4669 27.3253 11.4819 22.1522 22.7383C20.9298 25.4051 19.8603 29.2663 18.9694 34.1981C18.6744 33.9274 18.309 33.7463 17.9045 33.6791C17.3547 33.5875 16.8011 33.7155 16.3461 34.04C15.4091 34.7095 15.1915 36.0176 15.861 36.9552C16.2142 37.4493 16.9336 37.7418 17.6946 38.0522C17.891 38.1322 18.0888 38.2147 18.284 38.2999C18.22 38.7203 18.1605 39.1421 18.1016 39.5651C17.7259 39.4 17.3106 39.3674 16.9125 39.4896C16.4754 39.624 16.117 39.921 15.9038 40.3255C15.6894 40.7299 15.6459 41.1927 15.781 41.6304C15.9154 42.0675 16.2123 42.4253 16.6162 42.6397C16.8491 42.7632 17.2421 42.8247 17.676 42.8547C16.7506 50.6474 16.3704 57.9747 16.293 61.1088C16.2571 62.3536 16.9234 63.4909 18.0318 64.0765L24.2718 67.3725C24.3192 67.3975 24.3704 67.4096 24.421 67.4096C24.5355 67.4096 24.6469 67.3475 24.7038 67.2387C24.7864 67.0826 24.7262 66.8887 24.5701 66.8061L18.3301 63.5101C17.4392 63.0397 16.9035 62.1264 16.9323 61.1261C17.0104 57.9959 17.3893 50.6679 18.3166 42.8791C18.3365 42.8791 18.3557 42.8803 18.3755 42.8803C19.0962 42.8803 19.788 42.8227 20.0133 42.8023L20.5016 42.7575L20.2642 42.3287C20.0926 42.0189 19.349 40.7101 18.6866 40.0035C18.7499 39.5312 18.819 39.0627 18.8888 38.5943C19.1096 38.7139 19.3221 38.8413 19.5051 38.9904L19.9365 39.3411L20.0235 38.792C20.2578 37.3027 19.9525 35.8115 19.4891 34.9072C20.3928 29.736 21.484 25.7315 22.7333 23.0058C27.7624 12.065 38.7512 11.1203 43.285 12.3767L43.3598 12.3971L43.436 12.3811C46.2059 11.7987 55.3157 14.1866 59.4322 23.0071C60.5464 25.3898 61.548 28.8496 62.4107 33.2829C62.3595 33.3405 62.3045 33.393 62.259 33.457C61.6299 34.3383 61.1454 36.2039 61.4386 38.0643L61.5256 38.6135L61.957 38.2627C62.2968 37.9863 62.7134 37.7693 63.1486 37.5728C63.2293 38.0899 63.3067 38.609 63.3816 39.1312C63.1749 39.137 62.9669 39.1831 62.7717 39.2861C62.1944 39.5914 61.3349 41.1031 61.1685 41.4032L60.9304 41.832L61.4194 41.8768C61.5928 41.8922 62.1202 41.9363 62.675 41.9363C63.0558 41.9363 63.4437 41.9133 63.7426 41.8487C64.6571 49.1639 65.1166 56.7344 65.2331 61.0493C65.2613 62.0759 64.6802 63.0275 63.7509 63.4723L57.7349 66.3715C57.5755 66.4483 57.5083 66.6397 57.5858 66.7984C57.6408 66.913 57.7554 66.9795 57.8738 66.9795C57.9205 66.9795 57.9678 66.9693 58.0126 66.9475L64.028 64.049C65.1845 63.4954 65.9083 62.3107 65.8738 61.0314C65.756 56.6583 65.2862 48.9507 64.3506 41.5421C64.5349 41.3763 64.675 41.1671 64.7499 40.9239C64.86 40.5693 64.8242 40.193 64.6507 39.8647C64.5118 39.6016 64.2987 39.4039 64.0517 39.2791C63.957 38.6179 63.8597 37.9639 63.7566 37.3117C63.8136 37.2887 63.8706 37.2643 63.9275 37.2407C64.7486 36.9066 65.525 36.5904 65.9038 36.0605ZM18.0715 42.2339C17.557 42.2218 17.1115 42.177 16.9157 42.0733C16.6622 41.9395 16.4766 41.7149 16.3928 41.4416C16.309 41.1683 16.3358 40.8778 16.4702 40.625C16.604 40.3715 16.8286 40.1859 17.1019 40.1015C17.2062 40.0695 17.3125 40.0535 17.4187 40.0535C17.5915 40.0535 17.7618 40.0957 17.9179 40.1783H17.9186C18.2821 40.3709 18.9701 41.3898 19.4526 42.2032C19.0149 42.2301 18.5176 42.2442 18.0715 42.2339ZM19.4488 38.1719C18.9694 37.88 18.428 37.6592 17.9365 37.4589C17.2632 37.185 16.6277 36.9258 16.3826 36.5827C15.9173 35.9319 16.0683 35.025 16.7186 34.5603C16.9669 34.3831 17.2587 34.2896 17.5582 34.2896C17.6382 34.2896 17.7189 34.2967 17.7995 34.3095C18.1816 34.3735 18.5157 34.5815 18.741 34.8963C19.1806 35.512 19.5422 36.8138 19.4488 38.1719ZM64.1381 40.7357C64.0786 40.9271 63.9486 41.0839 63.7714 41.1773C63.5301 41.3053 62.7 41.313 61.9832 41.2752C62.3557 40.6608 62.8293 39.9792 63.0706 39.8512C63.253 39.7552 63.4565 39.7424 63.6389 39.7975C63.6446 39.8 63.6498 39.8026 63.6555 39.8045C63.8334 39.8627 63.9902 39.985 64.085 40.1635C64.1784 40.3415 64.1976 40.545 64.1381 40.7357ZM62.7806 33.8288C63.0917 33.3923 63.5845 33.16 64.0837 33.16C64.4056 33.16 64.7301 33.2567 65.011 33.4576C65.3586 33.7059 65.589 34.0746 65.6594 34.4963C65.7291 34.9175 65.6312 35.3411 65.3822 35.6887C65.1115 36.0675 64.419 36.3498 63.6856 36.6487C63.5454 36.7056 63.397 36.7715 63.2517 36.8323C63.2446 36.8362 63.237 36.8375 63.2306 36.8413C62.8171 37.016 62.3966 37.2035 62.0107 37.4429C61.8987 35.9472 62.2962 34.5072 62.7806 33.8288ZM64.3966 34.7043C64.4069 34.7651 64.405 34.856 64.3422 34.9437C64.2392 35.0877 64.2725 35.2874 64.4158 35.3904C64.4722 35.4307 64.5368 35.4499 64.6021 35.4499C64.7013 35.4499 64.7998 35.4032 64.8619 35.3162C65.0622 35.0371 65.052 34.7498 65.0283 34.6013C65.004 34.4554 64.9214 34.1802 64.6398 33.9786C64.4965 33.8749 64.2968 33.9082 64.1938 34.0522C64.0907 34.1962 64.124 34.3959 64.2674 34.4989C64.3614 34.5667 64.389 34.6576 64.3966 34.7043ZM37.3995 38.0183C37.5666 37.96 37.6542 37.7776 37.596 37.6106C37.5384 37.4442 37.3566 37.3565 37.1883 37.4141C37.1589 37.4243 34.1758 38.4387 30.5886 37.1824C30.421 37.1223 30.2392 37.2119 30.181 37.3789C30.1221 37.5453 30.2104 37.7283 30.3774 37.7866C30.6034 37.8659 30.8216 37.9223 31.0424 37.985L30.6725 38.1994C30.5195 38.2883 30.4677 38.4842 30.556 38.6371C30.6155 38.7395 30.723 38.7965 30.8331 38.7965C30.8882 38.7965 30.9432 38.7824 30.9938 38.7536L31.9378 38.2051C32.1675 38.2519 32.396 38.2979 32.6168 38.3293L32.0747 38.7101C31.9294 38.8119 31.8949 39.0115 31.9966 39.1555C32.0594 39.2445 32.1579 39.2919 32.2584 39.2919C32.3224 39.2919 32.3864 39.2733 32.4421 39.2336L33.5883 38.4291C33.8315 38.4439 34.0722 38.4554 34.2974 38.4554L33.9416 38.8035C33.8155 38.9271 33.813 39.1299 33.9365 39.256C33.9992 39.32 34.0824 39.352 34.165 39.352C34.2456 39.352 34.3262 39.3219 34.389 39.2605L35.2542 38.4144C36.5195 38.312 37.3349 38.0413 37.3995 38.0183ZM51.9083 37.1824C48.3326 38.4343 45.3387 37.4243 45.308 37.4141C45.1435 37.3565 44.9592 37.4442 44.901 37.6112C44.8427 37.7776 44.9304 37.96 45.0974 38.0183C45.1627 38.0407 45.9774 38.312 47.2434 38.4144L48.108 39.2605C48.1707 39.3213 48.2514 39.352 48.332 39.352C48.4152 39.352 48.4984 39.32 48.5605 39.256C48.684 39.1299 48.6814 38.9271 48.5554 38.8035L48.1995 38.4554C48.4254 38.4554 48.6654 38.4439 48.9086 38.4291L50.0555 39.2336C50.1112 39.2733 50.1758 39.2919 50.2392 39.2919C50.3397 39.2919 50.4389 39.2445 50.501 39.1555C50.6027 39.0109 50.5675 38.8112 50.4229 38.7101L49.8808 38.3293C50.1016 38.2979 50.3294 38.2519 50.5592 38.2051L51.5032 38.7536C51.5538 38.7824 51.6088 38.7965 51.6638 38.7965C51.7739 38.7965 51.8814 38.7395 51.941 38.6371C52.0299 38.4842 51.9781 38.289 51.8245 38.1994L51.4546 37.985C51.6754 37.9223 51.8936 37.8659 52.1195 37.7866C52.2866 37.7283 52.3742 37.5459 52.316 37.3789C52.2578 37.2119 52.0754 37.1229 51.9083 37.1824ZM42.0766 47.7207C41.6446 47.6707 41.3272 47.7962 41.1198 47.88C41.0642 47.9024 40.9874 47.9331 40.9426 47.9357C40.9163 47.9331 40.8395 47.9024 40.7832 47.8794C40.5765 47.7962 40.2648 47.6695 39.8277 47.7207C39.1774 47.7968 37.0802 48.3715 36.9906 48.3959L36.5221 48.5245L36.8261 48.9047C36.8741 48.9648 38.012 50.3792 38.8696 50.9661C39.5627 51.4397 40.2808 51.6759 40.9906 51.6759C41.7029 51.6759 42.4069 51.4378 43.068 50.961C43.9051 50.3575 45.0533 48.9674 45.1013 48.9079L45.4162 48.5251L44.9381 48.3959C44.8478 48.3709 42.7256 47.7962 42.0766 47.7207ZM39.9006 48.3568C40.1765 48.3223 40.3627 48.3997 40.5438 48.4733C40.7851 48.5706 41.0738 48.5904 41.3586 48.4733C41.539 48.4003 41.7266 48.3235 42.0024 48.3568C42.3166 48.3933 43.0494 48.5687 43.6818 48.7287C42.7525 49.0173 41.9646 49.2381 40.9342 49.2381C40.0427 49.2381 39.4482 49.057 38.6251 48.8055C38.5234 48.7747 38.4178 48.7427 38.3083 48.7095C38.9176 48.5546 39.5992 48.3914 39.9006 48.3568ZM42.693 50.4413C41.5774 51.2471 40.4126 51.2445 39.2306 50.4362C38.8434 50.1719 38.3755 49.6976 37.9992 49.2848C38.1522 49.3303 38.3 49.3751 38.4389 49.4173C39.2824 49.6739 39.948 49.8775 40.9349 49.8775C42.0562 49.8775 42.8875 49.6451 43.8642 49.3418C43.4955 49.7386 43.0558 50.1795 42.693 50.4413Z" fill="#1D0A43"/>
</g>
<defs>
<clipPath id="clip0_12787_30705">
<rect width="58.88" height="57.6" fill="white" transform="translate(10.8945 11.2002)"/>
</clipPath>
</defs>
</svg>
