<svg width="81" height="80" viewBox="0 0 81 80" fill="none" xmlns="http://www.w3.org/2000/svg">
<path fill-rule="evenodd" clip-rule="evenodd" d="M63.6968 18.2404C63.607 18.243 63.5217 18.2805 63.4591 18.3449L55.4048 26.3992L51.5 22.4943C51.4677 22.4611 51.4292 22.4347 51.3866 22.4167C51.344 22.3987 51.2982 22.3895 51.252 22.3895C51.1832 22.3895 51.1159 22.41 51.0589 22.4485C51.0018 22.4869 50.9575 22.5415 50.9316 22.6052C50.9058 22.669 50.8995 22.739 50.9136 22.8064C50.9278 22.8737 50.9617 22.9353 51.011 22.9832L55.1109 27.0831C55.1432 27.1321 55.1873 27.1721 55.2393 27.1993C55.2912 27.2265 55.3492 27.2401 55.4078 27.2388C55.4655 27.2391 55.5224 27.2251 55.5732 27.1978C55.6241 27.1706 55.6673 27.1311 55.699 27.0829C55.6993 27.0825 55.6996 27.0822 55.6998 27.0818L63.948 18.8339C63.9979 18.7853 64.032 18.7228 64.0458 18.6545C64.0596 18.5862 64.0524 18.5154 64.0253 18.4512C63.9981 18.3871 63.9523 18.3327 63.8936 18.295C63.835 18.2574 63.7664 18.2384 63.6968 18.2404Z" fill="#1D0A43"/>
<path fill-rule="evenodd" clip-rule="evenodd" d="M15.7846 21.1201H46.1069C46.2836 21.1201 46.4269 21.2634 46.4269 21.4401C46.4269 21.6168 46.2836 21.7601 46.1069 21.7601H16.1412L12.1869 28.1513V68.4801H62.7469V33.2801C62.7469 33.1034 62.8901 32.9601 63.0669 32.9601C63.2436 32.9601 63.3869 33.1034 63.3869 33.2801V69.1201H11.5469V27.9693L15.7846 21.1201Z" fill="#1D0A43"/>
<path fill-rule="evenodd" clip-rule="evenodd" d="M47.3872 28.4803H11.8672V27.8403H47.3872V28.4803Z" fill="#1D0A43"/>
<path fill-rule="evenodd" clip-rule="evenodd" d="M31.3861 27.9204L32.9767 21.5171L32.3555 21.3628L30.7461 27.8421V37.2028L37.4661 35.642L44.1861 37.2028V27.8421L42.5767 21.3628L41.9555 21.5171L43.5461 27.9204V36.3971L37.4661 34.985L31.3861 36.3971V27.9204Z" fill="#1D0A43"/>
<path fill-rule="evenodd" clip-rule="evenodd" d="M22.7461 49.28C22.7461 49.1032 22.8894 48.96 23.0661 48.96H51.2261C51.4028 48.96 51.5461 49.1032 51.5461 49.28C51.5461 49.4567 51.4028 49.6 51.2261 49.6H23.0661C22.8894 49.6 22.7461 49.4567 22.7461 49.28Z" fill="#1D0A43"/>
<path fill-rule="evenodd" clip-rule="evenodd" d="M22.7461 55.0402C22.7461 54.8635 22.8894 54.7202 23.0661 54.7202H51.2261C51.4028 54.7202 51.5461 54.8635 51.5461 55.0402C51.5461 55.2169 51.4028 55.3602 51.2261 55.3602H23.0661C22.8894 55.3602 22.7461 55.2169 22.7461 55.0402Z" fill="#1D0A43"/>
<path fill-rule="evenodd" clip-rule="evenodd" d="M31.0664 61.4401C31.0664 61.2634 31.2097 61.1201 31.3864 61.1201L43.5464 61.1201C43.7231 61.1201 43.8664 61.2634 43.8664 61.4401C43.8664 61.6169 43.7231 61.7601 43.5464 61.7601L31.3864 61.7601C31.2097 61.7601 31.0664 61.6168 31.0664 61.4401Z" fill="#1D0A43"/>
<path fill-rule="evenodd" clip-rule="evenodd" d="M57.6252 34.2402C63.8107 34.2402 68.8252 29.2258 68.8252 23.0402C68.8252 16.8546 63.8107 11.8402 57.6252 11.8402C51.4396 11.8402 46.4252 16.8546 46.4252 23.0402C46.4252 29.2258 51.4396 34.2402 57.6252 34.2402ZM57.6252 34.8802C64.1642 34.8802 69.4652 29.5792 69.4652 23.0402C69.4652 16.5011 64.1642 11.2002 57.6252 11.2002C51.0861 11.2002 45.7852 16.5011 45.7852 23.0402C45.7852 29.5792 51.0861 34.8802 57.6252 34.8802Z" fill="#1D0A43"/>
</svg>
