<svg width="81" height="80" viewBox="0 0 81 80" fill="none" xmlns="http://www.w3.org/2000/svg">
<path d="M15.2507 39.4412C15.3788 25.5893 26.6475 14.3998 40.5296 14.3998C52.5012 14.3998 62.5299 22.7216 65.1451 33.8964L65.7683 33.7506C63.0868 22.2928 52.8051 13.7598 40.5296 13.7598C26.3675 13.7598 14.8582 25.1176 14.6136 39.2213L12.433 36.6064C12.3198 36.4706 12.118 36.4524 11.9823 36.5655C11.8465 36.6787 11.8282 36.8805 11.9414 37.0163L14.6987 40.3226C14.7532 40.388 14.8316 40.429 14.9164 40.4364C15.0012 40.4439 15.0855 40.4172 15.1506 40.3624L18.7888 37.2974C18.924 37.1836 18.9412 36.9817 18.8274 36.8465C18.7135 36.7114 18.5116 36.6941 18.3765 36.808L15.2507 39.4412Z" fill="#1D0A43"/>
<path d="M31.8896 49.9198C31.7129 49.9198 31.5696 50.063 31.5696 50.2398C31.5696 50.4165 31.7129 50.5598 31.8896 50.5598H49.1696C49.3463 50.5598 49.4896 50.4165 49.4896 50.2398C49.4896 50.063 49.3463 49.9198 49.1696 49.9198H31.8896Z" fill="#1D0A43"/>
<path d="M31.5696 54.0798C31.5696 53.903 31.7129 53.7598 31.8896 53.7598H49.1696C49.3463 53.7598 49.4896 53.903 49.4896 54.0798C49.4896 54.2565 49.3463 54.3998 49.1696 54.3998H31.8896C31.7129 54.3998 31.5696 54.2565 31.5696 54.0798Z" fill="#1D0A43"/>
<path d="M37.0096 57.5998C36.8329 57.5998 36.6896 57.743 36.6896 57.9198C36.6896 58.0965 36.8329 58.2398 37.0096 58.2398H44.0496C44.2263 58.2398 44.3696 58.0965 44.3696 57.9198C44.3696 57.743 44.2263 57.5998 44.0496 57.5998H37.0096Z" fill="#1D0A43"/>
<path fill-rule="evenodd" clip-rule="evenodd" d="M65.8064 40.0861C65.687 47.6632 62.234 54.4309 56.8496 58.9868V37.0292L54.1484 32.6398H26.9108L24.2096 37.0292V58.9869C20.3339 55.7076 17.4589 51.2823 16.1075 46.2341L15.4892 46.3995C18.4492 57.4569 28.5381 65.5998 40.5296 65.5998C54.675 65.5998 66.1738 54.2688 66.4447 40.1882L68.7718 42.7738C68.89 42.9052 69.0923 42.9158 69.2237 42.7976C69.3551 42.6794 69.3657 42.4771 69.2475 42.3457L66.3675 39.1457C66.3105 39.0824 66.2307 39.0444 66.1456 39.0402C66.0606 39.0359 65.9774 39.0657 65.9144 39.123L62.3944 42.323C62.2636 42.4419 62.254 42.6442 62.3728 42.775C62.4917 42.9058 62.6941 42.9154 62.8249 42.7965L65.8064 40.0861ZM37.3296 37.0046L38.1623 33.2798H42.8969L43.7296 37.0046V37.1198H37.3296V37.0046ZM44.3696 36.934V37.1198H56.1539L53.7908 33.2798H43.5527L44.3696 36.934ZM56.2096 37.7598H44.3696V42.8798L40.5296 41.8888L36.6896 42.8798V37.7598H24.8496V59.5108C29.159 62.9226 34.6065 64.9598 40.5296 64.9598C46.4529 64.9598 51.9003 62.9226 56.2096 59.5107V37.7598ZM37.3296 42.0536V37.7598H43.7296V42.0536L40.5296 41.2278L37.3296 42.0536ZM36.6896 36.934V37.1198H24.9054L27.2684 33.2798H37.5065L36.6896 36.934Z" fill="#1D0A43"/>
</svg>
