<svg width="80" height="80" viewBox="0 0 80 80" fill="none" xmlns="http://www.w3.org/2000/svg">
<path d="M54.3876 33.1943C54.3403 33.024 54.164 32.9242 53.9937 32.9715C53.8234 33.0187 53.7236 33.1951 53.7709 33.3654L55.8186 40.7475C56.0108 41.4403 56.6414 41.9198 57.3604 41.9198H64.9592C65.1359 41.9198 65.2792 41.7766 65.2792 41.5998C65.2792 41.4231 65.1359 41.2798 64.9592 41.2798H57.3604C56.929 41.2798 56.5506 40.9921 56.4353 40.5764L54.3876 33.1943Z" fill="#1D0A43"/>
<path fill-rule="evenodd" clip-rule="evenodd" d="M19.5192 16.9598C18.6356 16.9598 17.9192 17.6762 17.9192 18.5598V24.2452C17.9192 24.4219 17.7759 24.5652 17.5992 24.5652C17.4225 24.5652 17.2792 24.4219 17.2792 24.2452V18.5598C17.2792 17.3227 18.2821 16.3198 19.5192 16.3198H47.7205C48.9576 16.3198 49.9605 17.3227 49.9605 18.5598V29.2158H60.1757C60.718 29.2158 61.2235 29.4906 61.5184 29.9458L68.862 41.2789C69.0299 41.538 69.1192 41.8402 69.1192 42.1489V54.3998C69.1192 55.6369 68.1163 56.6398 66.8792 56.6398H64.3118C64.1534 60.0258 61.4952 62.7198 58.2392 62.7198C54.9833 62.7198 52.3251 60.0258 52.1667 56.6398H37.4317C37.2734 60.0258 34.6152 62.7198 31.3592 62.7198C28.0992 62.7198 25.4384 60.0191 25.2861 56.6272C25.2577 56.6354 25.2277 56.6398 25.1966 56.6398H19.5192C18.2821 56.6398 17.2792 55.6369 17.2792 54.3998V47.3278C17.2792 46.0907 18.2821 45.0878 19.5192 45.0878H47.7205C48.6042 45.0878 49.3205 44.3715 49.3205 43.4878V18.5598C49.3205 17.6762 48.6042 16.9598 47.7205 16.9598H19.5192ZM66.8792 55.9998H64.3118C64.1534 52.6139 61.4952 49.9198 58.2392 49.9198C54.9833 49.9198 52.3251 52.6139 52.1667 55.9998H37.4317C37.2734 52.6139 34.6152 49.9198 31.3592 49.9198C28.0992 49.9198 25.4384 52.6206 25.2861 56.0125C25.2577 56.0042 25.2277 55.9998 25.1966 55.9998H19.5192C18.6356 55.9998 17.9192 55.2835 17.9192 54.3998V47.3278C17.9192 46.4442 18.6356 45.7278 19.5192 45.7278H47.7205C48.9576 45.7278 49.9605 44.7249 49.9605 43.4878V29.8558H60.1757C60.5011 29.8558 60.8043 30.0207 60.9813 30.2938L68.3249 41.6269C68.4256 41.7824 68.4792 41.9637 68.4792 42.1489V54.3998C68.4792 55.2835 67.7629 55.9998 66.8792 55.9998ZM36.7978 56.1854C36.7788 56.2263 36.7683 56.2718 36.7683 56.3198C36.7683 56.3678 36.7788 56.4134 36.7978 56.4543C36.7301 59.6031 34.2915 62.0798 31.3592 62.0798C28.3853 62.0798 25.9192 59.5323 25.9192 56.3198C25.9192 53.1073 28.3853 50.5598 31.3592 50.5598C34.2915 50.5598 36.7301 53.0365 36.7978 56.1854ZM58.2392 62.0798C61.2131 62.0798 63.6792 59.5323 63.6792 56.3198C63.6792 53.1073 61.2131 50.5598 58.2392 50.5598C55.2653 50.5598 52.7992 53.1073 52.7992 56.3198C52.7992 59.5323 55.2653 62.0798 58.2392 62.0798Z" fill="#1D0A43"/>
<path d="M32.3192 27.5198H13.1192V26.8798H32.3192V27.5198Z" fill="#1D0A43"/>
<path d="M11.1992 33.2798V33.9198H27.8392V33.2798H11.1992Z" fill="#1D0A43"/>
<path d="M36.1592 33.9198H31.0392V33.2798H36.1592V33.9198Z" fill="#1D0A43"/>
<path d="M11.8392 39.6798H17.5992V39.0398H11.8392V39.6798Z" fill="#1D0A43"/>
<path d="M40.6392 39.6798H20.7992V39.0398H40.6392V39.6798Z" fill="#1D0A43"/>
</svg>
