<svg viewBox="0 0 20 20" fill="none" xmlns="http://www.w3.org/2000/svg">
<path fill-rule="evenodd" clip-rule="evenodd" d="M10.0004 10C12.2096 10 14.0004 8.20914 14.0004 6C14.0004 3.79086 12.2096 2 10.0004 2C7.79129 2 6.00043 3.79086 6.00043 6C6.00043 8.20914 7.79129 10 10.0004 10ZM10.0004 12C13.3141 12 16.0004 9.31371 16.0004 6C16.0004 2.68629 13.3141 0 10.0004 0C6.68672 0 4.00043 2.68629 4.00043 6C4.00043 9.31371 6.68672 12 10.0004 12Z" fill="currentColor"/>
<path d="M17.9387 20H19.9511C19.9174 19.6614 19.8669 19.3278 19.8004 19C18.8739 14.4355 14.8383 11 10.0004 11C5.16251 11 1.12701 14.4355 0.200466 19C0.133927 19.3278 0.0834216 19.6614 0.0498047 20H2.06211C2.08741 19.7966 2.12032 19.5958 2.16049 19.3979C2.90155 15.7471 6.13242 13 10.0004 13C13.8684 13 17.0993 15.7471 17.8404 19.3979C17.8805 19.5958 17.9134 19.7966 17.9387 20Z" fill="currentColor"/>
</svg>
