<svg width="20" height="16" viewBox="0 0 20 16" fill="none" xmlns="http://www.w3.org/2000/svg">
<path d="M0.999995 7.99991C0.999995 7.44763 1.44771 6.99991 1.99999 6.99991H19C19.5523 6.99991 20 7.44763 20 7.99991C20 8.5522 19.5523 8.99991 19 8.99991H1.99999C1.44771 8.99991 0.999995 8.5522 0.999995 7.99991Z" fill="#1D0A43"/>
<path fill-rule="evenodd" clip-rule="evenodd" d="M8.70712 0.292898C9.09764 0.683425 9.09763 1.31659 8.70711 1.70711L2.41422 7.99992L8.70711 14.2928C9.09764 14.6833 9.09764 15.3165 8.70711 15.707C8.31659 16.0975 7.68342 16.0975 7.2929 15.707L0.292893 8.70702C0.105356 8.51948 -9.65261e-07 8.26513 0 7.99991C9.65274e-07 7.73469 0.105359 7.48034 0.292897 7.2928L7.2929 0.292889C7.68343 -0.0976331 8.31659 -0.097629 8.70712 0.292898Z" fill="#1D0A43"/>
</svg>
