<svg width="16" height="20" viewBox="0 0 16 20" fill="none" xmlns="http://www.w3.org/2000/svg">
<path d="M8.00009 19C8.55237 19 9.00009 18.5523 9.00009 18L9.00009 1.00001C9.00009 0.447721 8.55237 5.63323e-06 8.00009 5.62665e-06C7.4478 5.62006e-06 7.00009 0.447721 7.00009 1.00001L7.00009 18C7.00009 18.5523 7.4478 19 8.00009 19Z" fill="#1D0A43"/>
<path fill-rule="evenodd" clip-rule="evenodd" d="M15.7071 11.2929C15.3166 10.9024 14.6834 10.9024 14.2929 11.2929L8.00008 17.5858L1.70719 11.2929C1.31667 10.9024 0.683504 10.9024 0.292979 11.2929C-0.0975436 11.6834 -0.0975455 12.3166 0.292979 12.7071L7.29298 19.7071C7.48052 19.8946 7.73487 20 8.00009 20C8.26531 20 8.51966 19.8946 8.7072 19.7071L15.7071 12.7071C16.0976 12.3166 16.0976 11.6834 15.7071 11.2929Z" fill="#1D0A43"/>
</svg>
