<svg width="16" height="20" viewBox="0 0 16 20" fill="none" xmlns="http://www.w3.org/2000/svg">
<path d="M8.00009 0.999995C8.55237 0.999995 9.00009 1.44771 9.00009 1.99999L9.00009 19C9.00009 19.5523 8.55237 20 8.00009 20C7.4478 20 7.00009 19.5523 7.00009 19L7.00009 1.99999C7.00009 1.44771 7.4478 0.999995 8.00009 0.999995Z" fill="#1D0A43"/>
<path fill-rule="evenodd" clip-rule="evenodd" d="M15.7071 8.70712C15.3166 9.09764 14.6834 9.09763 14.2929 8.70711L8.00008 2.41422L1.70719 8.70711C1.31667 9.09764 0.683504 9.09764 0.292979 8.70711C-0.0975436 8.31659 -0.0975455 7.68342 0.292979 7.2929L7.29298 0.292893C7.48052 0.105356 7.73487 -8.667e-07 8.00009 9.54052e-08C8.26531 1.05751e-06 8.51966 0.105359 8.7072 0.292897L15.7071 7.2929C16.0976 7.68343 16.0976 8.31659 15.7071 8.70712Z" fill="#1D0A43"/>
</svg>
