<svg width="20" height="20" viewBox="0 0 20 20" fill="none" xmlns="http://www.w3.org/2000/svg">
<path fill-rule="evenodd" clip-rule="evenodd" d="M17 4H3C2.44772 4 2 4.44772 2 5V17C2 17.5523 2.44772 18 3 18H17C17.5523 18 18 17.5523 18 17V5C18 4.44771 17.5523 4 17 4ZM3 2C1.34315 2 0 3.34315 0 5V17C0 18.6569 1.34315 20 3 20H17C18.6569 20 20 18.6569 20 17V5C20 3.34315 18.6569 2 17 2H3Z" fill="#1D0A43"/>
<path d="M3 1C3 0.447715 3.44772 0 4 0C4.55228 0 5 0.447715 5 1V3C5 3.55228 4.55228 4 4 4C3.44772 4 3 3.55228 3 3V1Z" fill="#1D0A43"/>
<path d="M15 1C15 0.447715 15.4477 0 16 0C16.5523 0 17 0.447715 17 1V3C17 3.55228 16.5523 4 16 4C15.4477 4 15 3.55228 15 3V1Z" fill="#1D0A43"/>
<path d="M2 6H18V8H2V6Z" fill="#1D0A43"/>
<path d="M13 10C13 10.5523 12.5523 11 12 11C11.4477 11 11 10.5523 11 10C11 9.44771 11.4477 9 12 9C12.5523 9 13 9.44771 13 10Z" fill="#1D0A43"/>
<path d="M13 13C13 13.5523 12.5523 14 12 14C11.4477 14 11 13.5523 11 13C11 12.4477 11.4477 12 12 12C12.5523 12 13 12.4477 13 13Z" fill="#1D0A43"/>
<path d="M13 16C13 16.5523 12.5523 17 12 17C11.4477 17 11 16.5523 11 16C11 15.4477 11.4477 15 12 15C12.5523 15 13 15.4477 13 16Z" fill="#1D0A43"/>
<path d="M9 13C9 13.5523 8.55229 14 8 14C7.44772 14 7 13.5523 7 13C7 12.4477 7.44772 12 8 12C8.55229 12 9 12.4477 9 13Z" fill="#1D0A43"/>
<path d="M9 16C9 16.5523 8.55229 17 8 17C7.44772 17 7 16.5523 7 16C7 15.4477 7.44772 15 8 15C8.55229 15 9 15.4477 9 16Z" fill="#1D0A43"/>
<path d="M5 13C5 13.5523 4.55228 14 4 14C3.44772 14 3 13.5523 3 13C3 12.4477 3.44772 12 4 12C4.55228 12 5 12.4477 5 13Z" fill="#1D0A43"/>
<path d="M5 16C5 16.5523 4.55228 17 4 17C3.44772 17 3 16.5523 3 16C3 15.4477 3.44772 15 4 15C4.55228 15 5 15.4477 5 16Z" fill="#1D0A43"/>
<path d="M17 10C17 10.5523 16.5523 11 16 11C15.4477 11 15 10.5523 15 10C15 9.44771 15.4477 9 16 9C16.5523 9 17 9.44771 17 10Z" fill="#1D0A43"/>
<path d="M17 13C17 13.5523 16.5523 14 16 14C15.4477 14 15 13.5523 15 13C15 12.4477 15.4477 12 16 12C16.5523 12 17 12.4477 17 13Z" fill="#1D0A43"/>
</svg>
