<svg width="20" height="20" viewBox="0 0 20 20" fill="none" xmlns="http://www.w3.org/2000/svg">
<path fill-rule="evenodd" clip-rule="evenodd" d="M11.9366 7.62284C10.4782 6.81767 8.83333 5.26348 8.83333 2.91667C8.83333 2.63151 8.85423 2.35067 8.89465 2.07574C4.99947 2.61408 2 5.95676 2 10C2 14.4183 5.58172 18 10 18C13.7418 18 16.8837 15.4311 17.758 11.9607C17.5365 11.9866 17.3113 12 17.0833 12C14.1754 12 12.4652 9.79907 11.9366 7.62284ZM13.1337 5.99186C13.4972 6.16969 13.7549 6.51579 13.8292 6.91362C14.145 8.6061 15.3087 10 17.0833 10C17.7492 10 18.3746 9.82644 18.9166 9.52209C19.3546 9.2762 20 9.49774 20 10C20 15.5228 15.5228 20 10 20C4.47715 20 0 15.5228 0 10C0 4.47715 4.47715 0 10 0C10.2245 0 10.4473 0.00739799 10.6681 0.0219635C11.233 0.0592239 11.4571 0.768965 11.2094 1.278C10.9685 1.77307 10.8333 2.32909 10.8333 2.91667C10.8333 4.31976 11.9068 5.3917 13.1337 5.99186Z" fill="#1D0A43"/>
<path d="M6 8C6 8.55228 5.55228 9 5 9C4.44772 9 4 8.55228 4 8C4 7.44772 4.44772 7 5 7C5.55228 7 6 7.44772 6 8Z" fill="#1D0A43"/>
<path d="M8 13.5C8 14.3284 7.32843 15 6.5 15C5.67157 15 5 14.3284 5 13.5C5 12.6716 5.67157 12 6.5 12C7.32843 12 8 12.6716 8 13.5Z" fill="#1D0A43"/>
<path d="M11 10C11 10.5523 10.5523 11 10 11C9.44772 11 9 10.5523 9 10C9 9.44772 9.44772 9 10 9C10.5523 9 11 9.44772 11 10Z" fill="#1D0A43"/>
<path d="M14 14.5C14 15.3284 13.3284 16 12.5 16C11.6716 16 11 15.3284 11 14.5C11 13.6716 11.6716 13 12.5 13C13.3284 13 14 13.6716 14 14.5Z" fill="#1D0A43"/>
</svg>
