<svg width="20" height="20" viewBox="0 0 20 20" fill="none" xmlns="http://www.w3.org/2000/svg">
<path fill-rule="evenodd" clip-rule="evenodd" d="M13.4674 0.890387C14.6386 -0.292592 16.5486 -0.2974 17.7258 0.879666L19.1203 2.2741C20.2974 3.45114 20.2926 5.36096 19.1096 6.53209L6.09124 19.4202C5.71636 19.7914 5.21017 19.9996 4.68265 19.9996L1.00128 20C0.448306 20.0001 0 19.5518 0 18.9989V15.3168C0 14.7893 0.208204 14.2831 0.579366 13.9082L13.4674 0.890387ZM16.3099 2.29547L17.7044 3.6899C18.0968 4.08225 18.0952 4.71886 17.7009 5.10923L16.33 6.46639L13.5333 3.66986L14.8904 2.29904C15.2808 1.90471 15.9175 1.90311 16.3099 2.29547ZM12.1245 5.09279L2.00236 15.3168L2.00236 17.9977L4.68245 17.9974L14.907 7.87512L12.1245 5.09279Z" fill="#1D0A43"/>
</svg>
