<svg width="20" height="21" viewBox="0 0 20 21" fill="none" xmlns="http://www.w3.org/2000/svg">
<path d="M10.6967 1.28261L10 0.585938L9.30334 1.28259C9.29633 1.28941 9.28941 1.29633 9.28259 1.30334L5.29289 5.29304C4.90237 5.68357 4.90237 6.31673 5.29289 6.70726C5.68342 7.09778 6.31658 7.09778 6.70711 6.70726L9 4.41436V13C9 13.5523 9.44771 14 10 14C10.5523 14 11 13.5523 11 13V4.41436L13.2929 6.70726C13.6834 7.09778 14.3166 7.09778 14.7071 6.70726C15.0976 6.31673 15.0976 5.68357 14.7071 5.29304L10.7174 1.30333C10.7106 1.29632 10.7037 1.28941 10.6967 1.28261Z" fill="#1D0A43"/>
<path d="M3 10C2.44772 10 2 10.4477 2 11V18C2 18.5523 2.44772 19 3 19H17C17.5523 19 18 18.5523 18 18V11C18 10.4477 17.5523 10 17 10H15.4C14.8477 10 14.4 9.55229 14.4 9C14.4 8.44772 14.8477 8 15.4 8H17C18.6569 8 20 9.34315 20 11V18C20 19.6569 18.6569 21 17 21H3C1.34315 21 0 19.6569 0 18V11C0 9.34315 1.34315 8 3 8H4.6C5.15228 8 5.6 8.44772 5.6 9C5.6 9.55229 5.15228 10 4.6 10H3Z" fill="#1D0A43"/>
</svg>
