<svg width="21" height="21" viewBox="0 0 21 21" fill="none" xmlns="http://www.w3.org/2000/svg">
<path d="M10.5 0.734375C5.11523 0.734375 0.734375 5.11523 0.734375 10.5C0.734375 15.8848 5.11523 20.2656 10.5 20.2656C15.8848 20.2656 20.2656 15.8848 20.2656 10.5C20.2656 5.11523 15.8848 0.734375 10.5 0.734375ZM10.5 4.73828C10.7511 4.73828 10.9965 4.81274 11.2053 4.95224C11.4141 5.09173 11.5768 5.29001 11.6729 5.52198C11.769 5.75396 11.7941 6.00922 11.7451 6.25549C11.6962 6.50175 11.5752 6.72796 11.3977 6.90551C11.2201 7.08305 10.9939 7.20396 10.7477 7.25295C10.5014 7.30193 10.2461 7.27679 10.0142 7.18071C9.7822 7.08462 9.58392 6.9219 9.44442 6.71313C9.30493 6.50435 9.23047 6.2589 9.23047 6.00781C9.23047 5.67111 9.36422 5.3482 9.60231 5.11012C9.84039 4.87204 10.1633 4.73828 10.5 4.73828ZM13.625 15.7734H7.76562V14.2109H9.91406V9.91406H8.35156V8.35156H11.4766V14.2109H13.625V15.7734Z" fill="#1D0A43"/>
</svg>
