<svg viewBox="0 0 20 20" fill="none" xmlns="http://www.w3.org/2000/svg">
<path d="M14.234 4.8573C13.7141 4.8573 13.2982 5.27776 13.2982 5.79316C13.2982 6.31308 13.7186 6.72902 14.234 6.72902C14.7539 6.72902 15.1699 6.30856 15.1699 5.79316C15.1744 5.27776 14.7539 4.8573 14.234 4.8573Z" fill="currentColor"/>
<path d="M10.0655 6.05988C7.89535 6.05988 6.12762 7.82761 6.12762 9.99771C6.12762 12.1678 7.89535 13.9355 10.0655 13.9355C12.2356 13.9355 14.0033 12.1678 14.0033 9.99771C14.0033 7.82761 12.2356 6.05988 10.0655 6.05988ZM10.0655 12.525C8.67298 12.525 7.54271 11.3947 7.54271 10.0022C7.54271 8.60975 8.67298 7.47949 10.0655 7.47949C11.4579 7.47949 12.5882 8.60975 12.5882 10.0022C12.5882 11.3902 11.4579 12.525 10.0655 12.525Z" fill="currentColor"/>
<path d="M13.1941 18H6.80588C4.15654 18 2 15.8435 2 13.1941V6.80588C2 4.15654 4.15654 2 6.80588 2H13.1941C15.8435 2 18 4.15654 18 6.80588V13.1941C17.9955 15.8435 15.8435 18 13.1941 18ZM6.80588 3.50551C4.98841 3.50551 3.50551 4.98389 3.50551 6.80588V13.1941C3.50551 15.0116 4.98389 16.4945 6.80588 16.4945H13.1941C15.0116 16.4945 16.4945 15.0161 16.4945 13.1941V6.80588C16.4945 4.98842 15.0161 3.50551 13.1941 3.50551H6.80588Z" fill="currentColor"/>
</svg>
