<svg width="40" height="40" viewBox="0 0 40 40" fill="none" xmlns="http://www.w3.org/2000/svg">
<path fill-rule="evenodd" clip-rule="evenodd" d="M31.9486 3.01636C30.0898 0.904545 26.7327 0 22.4362 0H9.9675C9.09012 0 8.34238 0.636364 8.20543 1.50182L3.01326 34.3273C2.98897 34.4795 2.99813 34.6352 3.04008 34.7836C3.08204 34.9319 3.15581 35.0695 3.2563 35.1868C3.35679 35.304 3.48161 35.3982 3.62218 35.4628C3.76274 35.5274 3.91569 35.5608 4.0705 35.5609H11.7688L11.2375 38.92C11.2162 39.0532 11.2242 39.1894 11.2609 39.3193C11.2976 39.4491 11.3621 39.5695 11.45 39.6721C11.5379 39.7748 11.6471 39.8572 11.7701 39.9138C11.893 39.9704 12.0269 39.9998 12.1623 40H18.6509C19.0229 39.9997 19.3825 39.8672 19.665 39.6264C19.9475 39.3856 20.1344 39.0522 20.1921 38.6864L20.256 38.3573L21.4776 30.63L21.557 30.2027C21.6146 29.8369 21.8015 29.5035 22.0841 29.2627C22.3666 29.0219 22.7262 28.8894 23.0981 28.8891H24.0686C30.3546 28.8891 35.2765 26.3436 36.7154 18.98C37.3152 15.9027 37.0057 13.3345 35.4162 11.5282C34.935 10.9827 34.3379 10.5309 33.6404 10.1618C34.1289 7.05091 33.6368 4.93455 31.9486 3.01636Z" fill="#009CDE"/>
<path fill-rule="evenodd" clip-rule="evenodd" d="M31.9486 3.01636C30.0898 0.904545 26.7327 0 22.4362 0H9.9675C9.09012 0 8.34238 0.636364 8.20543 1.50182L3.01326 34.3273C2.98897 34.4795 2.99813 34.6352 3.04008 34.7836C3.08204 34.9319 3.15581 35.0695 3.2563 35.1867C3.35679 35.304 3.48161 35.3982 3.62218 35.4628C3.76274 35.5274 3.91569 35.5608 4.0705 35.5609H11.7688L13.7007 23.3364L13.6414 23.72C13.7057 23.3022 13.9181 22.921 14.2401 22.6456C14.5621 22.3701 14.9725 22.2185 15.397 22.2182H19.0554C26.2406 22.2182 31.8674 19.3082 33.5117 10.8909C33.5585 10.6486 33.6011 10.4056 33.6395 10.1618C34.1279 7.05091 33.6358 4.93455 31.9477 3.01636H31.9486Z" fill="#012169"/>
<path fill-rule="evenodd" clip-rule="evenodd" d="M16.6469 9.04273C16.8524 8.94454 17.0806 8.89 17.3216 8.89H27.0943C28.2519 8.89 29.3311 8.96545 30.319 9.12455C30.6011 9.17 30.8759 9.22182 31.1425 9.28C31.529 9.36609 31.911 9.47076 32.2874 9.59364C32.7528 9.7455 33.2047 9.93555 33.6386 10.1618C34.1279 7.05091 33.6358 4.93455 31.9477 3.01636C30.0898 0.904545 26.7327 0 22.4362 0H9.9675C9.09012 0 8.34238 0.636364 8.20543 1.50182L3.01326 34.3273C2.98897 34.4795 2.99813 34.6352 3.04008 34.7836C3.08204 34.9319 3.15581 35.0695 3.2563 35.1867C3.35679 35.304 3.48161 35.3982 3.62218 35.4628C3.76274 35.5274 3.91569 35.5608 4.0705 35.5609H11.7688L15.7796 10.2027C15.8618 9.68273 16.1968 9.25727 16.6469 9.04182V9.04273Z" fill="#003087"/>
</svg>
