<svg width="40" height="40" viewBox="0 0 40 40" fill="none" xmlns="http://www.w3.org/2000/svg">
<path d="M0 4.6357V34.9199C0 36.3695 1.17609 37.5556 2.61352 37.5556H20.5554C34.1196 37.5556 40 29.8989 40 19.7382C40 9.63035 34.1196 2 20.5554 2H2.61352C1.17609 2 0 3.18606 0 4.6357Z" fill="white"/>
<path d="M12.009 9.43267V31.8097H21.666C30.4344 31.8097 34.2371 26.8151 34.2371 19.7514C34.2371 12.9909 30.4344 7.74582 21.666 7.74582H13.6817C12.7539 7.74582 12.009 8.51017 12.009 9.43267Z" fill="#CC0066"/>
<path d="M20.5552 35.1439H4.95247C3.5673 35.1439 2.44348 34.0105 2.44348 32.6136V6.95511C2.44348 5.55819 3.5673 4.42484 4.95247 4.42484H20.5552C35.3608 4.42484 37.5693 14.032 37.5693 19.7514C37.5693 29.6748 31.5189 35.1439 20.5552 35.1439ZM4.95247 5.26826C4.02466 5.26826 3.27981 6.01944 3.27981 6.95511V32.6136C3.27981 33.5493 4.02466 34.3005 4.95247 34.3005H20.5552C30.9832 34.3005 36.7329 29.1345 36.7329 19.7514C36.7329 7.15279 26.5925 5.26826 20.5552 5.26826H4.95247Z" fill="black"/>
<path d="M15.4067 16.7335C15.7465 16.7335 16.0601 16.7863 16.3606 16.8917C16.6612 16.9971 16.9095 17.1684 17.1316 17.3793C17.3407 17.6033 17.5106 17.8801 17.6413 18.1964C17.7589 18.5258 17.8242 18.908 17.8242 19.3561C17.8242 19.7514 17.7719 20.1072 17.6805 20.4367C17.5759 20.7662 17.4322 21.0561 17.2362 21.2933C17.0401 21.5305 16.7919 21.715 16.4913 21.86C16.1908 21.9918 15.8379 22.0708 15.4328 22.0708H13.146V16.7204H15.4067V16.7335ZM15.3283 21.0956C15.4982 21.0956 15.655 21.0693 15.8249 21.0166C15.9817 20.9638 16.1254 20.8716 16.243 20.7398C16.3606 20.608 16.4652 20.4499 16.5436 20.239C16.622 20.0282 16.6612 19.791 16.6612 19.4879C16.6612 19.2243 16.6351 18.9739 16.5828 18.763C16.5305 18.5522 16.439 18.3545 16.3214 18.2095C16.2038 18.0646 16.047 17.9328 15.851 17.8537C15.655 17.7746 15.4198 17.7351 15.1323 17.7351H14.2959V21.1088H15.3283V21.0956Z" fill="white"/>
<path d="M22.5416 16.7335V17.7219H19.7452V18.8685H22.3195V19.7778H19.7452V21.0824H22.607V22.0708H18.5822V16.7204H22.5416V16.7335Z" fill="white"/>
<path d="M26.5402 16.7334L28.5265 22.0839H27.3112L26.9061 20.8978H24.9198L24.5016 22.0839H23.3256L25.3249 16.7334H26.5402ZM26.6055 20.0149L25.9391 18.0513H25.926L25.2334 20.0149H26.6055Z" fill="white"/>
<path d="M30.4214 16.7334V21.0955H33.0088V22.0839H29.2584V16.7334H30.4214Z" fill="white"/>
<path d="M7.64457 21.8732C8.99416 21.8732 10.0882 20.7698 10.0882 19.4088C10.0882 18.0477 8.99416 16.9444 7.64457 16.9444C6.29499 16.9444 5.20093 18.0477 5.20093 19.4088C5.20093 20.7698 6.29499 21.8732 7.64457 21.8732Z" fill="black"/>
<path d="M9.4872 31.8097C7.43558 31.8097 5.78906 30.1361 5.78906 28.0802V25.1678C5.78906 24.1399 6.61232 23.2964 7.64467 23.2964C8.66394 23.2964 9.50027 24.1267 9.50027 25.1678V31.8097H9.4872Z" fill="black"/>
</svg>
