<svg width="40" height="40" viewBox="0 0 40 40" fill="none" xmlns="http://www.w3.org/2000/svg">
<path d="M9.59408 13.0778C10.0687 12.8567 10.5433 12.6842 11.0179 12.576C11.89 8.1734 15.5787 4.87143 20 4.87143C24.4243 4.87143 28.1144 8.1781 28.9851 12.5792C30.3422 12.852 31.4649 13.4321 32.34 14.296C32.3756 13.4509 32.343 12.6372 32.248 11.8705C31.6889 5.2195 26.4132 0 19.9807 0C13.3584 0 7.96704 5.54876 7.68672 12.4851C7.64816 13.084 7.6363 13.708 7.65706 14.3603C8.21325 13.8648 8.84805 13.4196 9.59408 13.0778Z" fill="#3200FF"/>
<path d="M27.1889 14.064H12.4314C11.7209 14.064 10.9853 14.238 10.2274 14.5971C9.49618 14.9342 8.89698 15.3418 8.41643 15.8294C7.50131 16.9928 7.03263 18.694 7 20.9329V33.1279C7.03263 35.3716 7.50131 37.0712 8.41643 38.2283C8.89698 38.7237 9.49618 39.1314 10.2274 39.4716C10.9853 39.8228 11.7209 40 12.4314 40H27.1889C31.0007 39.9639 32.9392 37.7532 33 33.3835V20.6773C32.9392 16.3014 31.0007 14.0985 27.1889 14.064Z" fill="#3200FF"/>
</svg>
