<svg width="40" height="40" viewBox="0 0 40 40" fill="none" xmlns="http://www.w3.org/2000/svg">
<path d="M7.65333 3.66667V36.3333H0V3.66667H7.65333ZM26.7533 3.66667C26.7533 10.5169 24.115 16.9048 19.395 21.7444L18.9317 22.2066L29.5033 36.3333H20.0567L8.56833 20.98L11.5333 18.8044C16.2967 15.3091 19.0917 10.0203 19.2617 4.22853L19.27 3.66667H26.7533ZM35.8333 28.1667C36.9384 28.1667 37.9982 28.5969 38.7796 29.3626C39.561 30.1284 40 31.167 40 32.25C40 33.333 39.561 34.3716 38.7796 35.1374C37.9982 35.9031 36.9384 36.3333 35.8333 36.3333C34.7283 36.3333 33.6685 35.9031 32.8871 35.1374C32.1057 34.3716 31.6667 33.333 31.6667 32.25C31.6667 31.167 32.1057 30.1284 32.8871 29.3626C33.6685 28.5969 34.7283 28.1667 35.8333 28.1667Z" fill="black"/>
</svg>
