<svg width="40" height="40" viewBox="0 0 40 40" fill="none" xmlns="http://www.w3.org/2000/svg">
<path d="M0.806781 23.4766C0.806781 22.724 0.412752 22.7733 0.0285724 22.7654V22.5477C0.358572 22.5635 0.696454 22.5635 1.02645 22.5635C1.38207 22.5635 1.86377 22.5477 2.49027 22.5477C2.90752 22.5044 3.3292 22.5471 3.7293 22.6732C4.12939 22.7992 4.4994 23.0059 4.81649 23.2806C5.13358 23.5552 5.39101 23.8919 5.5729 24.2699C5.75478 24.6479 5.85726 25.0592 5.87401 25.4783C5.87401 26.3077 5.38147 28.3922 2.38783 28.3922C1.95636 28.3922 1.55839 28.3754 1.16141 28.3754C0.78117 28.3754 0.407827 28.3833 0.0275879 28.3922V28.1745C0.534901 28.1242 0.78117 28.1075 0.805797 27.5381V23.4766H0.806781ZM1.63621 27.4031C1.63621 28.0484 2.10215 28.1232 2.51687 28.1232C2.85565 28.1381 3.19362 28.0792 3.5074 27.9506C3.82118 27.822 4.10328 27.6268 4.3342 27.3784C4.56511 27.1301 4.73933 26.8345 4.84481 26.5122C4.95028 26.19 4.9845 25.8486 4.94508 25.5118C4.96932 25.1556 4.91782 24.7983 4.79399 24.4635C4.67016 24.1286 4.47679 23.8238 4.22663 23.5691C3.97648 23.3143 3.6752 23.1155 3.34263 22.9856C3.01007 22.8558 2.65377 22.7978 2.2972 22.8156C1.94947 22.8156 1.78989 22.8403 1.6372 22.8491V27.4031H1.63621Z" fill="#1A1918"/>
<path d="M6.17151 28.1745H6.33208C6.56849 28.1745 6.73793 28.1745 6.73793 27.8977V25.632C6.73793 25.2646 6.61085 25.2133 6.2976 25.0459V24.9119C6.69163 24.7937 7.16939 24.6361 7.20288 24.6105C7.24907 24.5829 7.3018 24.5683 7.35557 24.5681C7.39694 24.5681 7.41467 24.6183 7.41467 24.6863V27.9006C7.41467 28.1774 7.60085 28.1774 7.83825 28.1774H7.98109V28.3951C7.69345 28.3951 7.39694 28.3784 7.09452 28.3784C6.7921 28.3784 6.48476 28.3863 6.17249 28.3951V28.1774L6.17151 28.1745ZM7.07679 23.2767C6.96785 23.2767 6.86336 23.2334 6.78633 23.1564C6.70929 23.0793 6.66602 22.9748 6.66602 22.8659C6.66602 22.757 6.70929 22.6525 6.78633 22.5754C6.86336 22.4984 6.96785 22.4551 7.07679 22.4551C7.18491 22.4546 7.28893 22.4965 7.36648 22.5718C7.44404 22.6472 7.48893 22.7499 7.49151 22.858C7.491 22.9682 7.44727 23.0738 7.36972 23.1521C7.29216 23.2304 7.18698 23.2751 7.07679 23.2767Z" fill="#1A1918"/>
<path d="M8.78593 25.6793C8.78593 25.37 8.69234 25.2852 8.29339 25.1267V24.9651C8.6721 24.8501 9.04463 24.7156 9.40948 24.5622C9.43509 24.5622 9.45972 24.5789 9.45972 24.6459V25.1907C9.86644 24.8265 10.3813 24.6058 10.9255 24.5622C11.6436 24.5622 11.8978 25.0813 11.8978 25.7344V27.8937C11.8978 28.1705 12.084 28.1705 12.3214 28.1705H12.474V28.3882C12.1785 28.3882 11.883 28.3715 11.5766 28.3715C11.2703 28.3715 10.9669 28.3794 10.6625 28.3882V28.1705H10.8152C11.0526 28.1705 11.221 28.1705 11.221 27.8937V25.7266C11.221 25.2488 10.9255 25.0144 10.4438 25.0144C10.0882 25.0682 9.75054 25.206 9.45873 25.4163V27.8937C9.45873 28.1705 9.6459 28.1705 9.88232 28.1705H10.034V28.3882C9.73849 28.3882 9.44297 28.3715 9.13661 28.3715C8.83025 28.3715 8.52784 28.3794 8.22345 28.3882V28.1705H8.38106C8.61748 28.1705 8.78691 28.1705 8.78691 27.8937V25.6793" fill="#1A1918"/>
<path d="M13.1182 26.0812C13.099 26.2425 13.099 26.4055 13.1182 26.5668C13.1045 26.9205 13.225 27.2663 13.4556 27.5349C13.6861 27.8034 14.0097 27.9749 14.3614 28.0149C14.5797 28.003 14.7934 27.9472 14.9898 27.8509C15.1861 27.7546 15.361 27.6197 15.5041 27.4544L15.6223 27.5716C15.4564 27.8431 15.2277 28.0708 14.9555 28.2356C14.6833 28.4003 14.3755 28.4972 14.058 28.5183C13.8303 28.5096 13.6067 28.4549 13.4007 28.3574C13.1947 28.2599 13.0106 28.1217 12.8596 27.9511C12.7085 27.7805 12.5935 27.5811 12.5217 27.3648C12.4498 27.1486 12.4225 26.92 12.4415 26.6929C12.4059 26.4398 12.4225 26.1821 12.4902 25.9357C12.558 25.6893 12.6756 25.4594 12.8356 25.2601C12.9956 25.0609 13.1948 24.8965 13.4208 24.7771C13.6468 24.6578 13.8948 24.586 14.1496 24.5661C14.331 24.5537 14.513 24.5783 14.6845 24.6385C14.8561 24.6987 15.0136 24.7932 15.1474 24.9162C15.2813 25.0393 15.3886 25.1883 15.463 25.3542C15.5374 25.5201 15.5771 25.6994 15.5799 25.8812C15.5812 25.9316 15.5786 25.982 15.572 26.0319L15.4952 26.0822L13.1182 26.0812ZM14.6165 25.8132C14.8273 25.8132 14.852 25.7039 14.852 25.6034C14.8599 25.5032 14.8466 25.4025 14.8129 25.3077C14.7792 25.213 14.7259 25.1265 14.6564 25.0539C14.5869 24.9812 14.5029 24.9241 14.4098 24.8862C14.3166 24.8483 14.2166 24.8306 14.1161 24.8341C13.6009 24.8341 13.2453 25.2104 13.1438 25.8132H14.6165Z" fill="#1A1918"/>
<path d="M15.775 28.1745H16.0035C16.2399 28.1745 16.4084 28.1745 16.4084 27.8977V25.5453C16.4084 25.2862 16.0951 25.235 15.968 25.168V25.0429C16.5857 24.7828 16.9245 24.5651 17.0014 24.5651C17.0506 24.5651 17.0762 24.5908 17.0762 24.6745V25.4281H17.094C17.3048 25.102 17.6604 24.5651 18.1776 24.5651C18.2385 24.5621 18.2994 24.5712 18.3568 24.592C18.4142 24.6128 18.4668 24.6448 18.5117 24.6862C18.5565 24.7275 18.5927 24.7774 18.618 24.8329C18.6433 24.8884 18.6574 24.9484 18.6593 25.0094C18.6619 25.0635 18.6538 25.1175 18.6353 25.1684C18.6169 25.2192 18.5885 25.2659 18.5518 25.3057C18.5151 25.3455 18.4709 25.3776 18.4217 25.4001C18.3725 25.4227 18.3193 25.4352 18.2652 25.4369C18.0022 25.4369 18.0022 25.2399 17.7057 25.2399C17.5364 25.2624 17.3808 25.345 17.2674 25.4727C17.154 25.6004 17.0904 25.7646 17.0881 25.9354V27.9055C17.0881 28.1823 17.2575 28.1823 17.4939 28.1823H17.9668V28.4C17.5018 28.3912 17.1472 28.3833 16.7847 28.3833C16.4379 28.3833 16.0823 28.3912 15.7779 28.4V28.1823" fill="#1A1918"/>
<path d="M19.0317 27.2308C19.0531 27.5024 19.1736 27.7567 19.3703 27.9453C19.567 28.1339 19.8262 28.2435 20.0986 28.2533C20.597 28.2533 20.7832 27.9518 20.7832 27.6622C20.7832 26.6771 18.9391 26.9924 18.9391 25.6448C18.9496 25.4862 18.9925 25.3315 19.0653 25.1903C19.1381 25.049 19.2392 24.9242 19.3622 24.8237C19.4853 24.7232 19.6277 24.6491 19.7807 24.6059C19.9336 24.5628 20.0938 24.5516 20.2513 24.573C20.5865 24.581 20.9158 24.6642 21.2147 24.8163L21.2738 25.6694H21.0767C21.0721 25.554 21.0444 25.4406 20.9953 25.336C20.9461 25.2315 20.8765 25.1378 20.7906 25.0606C20.7046 24.9834 20.6041 24.9241 20.4949 24.8864C20.3857 24.8487 20.27 24.8332 20.1547 24.841C20.0747 24.8314 19.9935 24.8384 19.9162 24.8614C19.8389 24.8844 19.7671 24.9229 19.7053 24.9747C19.6435 25.0265 19.5929 25.0903 19.5567 25.1624C19.5205 25.2344 19.4994 25.3131 19.4947 25.3936C19.4947 26.3787 21.457 26.0723 21.457 27.3864C21.457 27.939 21.0088 28.5251 20.002 28.5251C19.6403 28.5149 19.2864 28.4172 18.9707 28.2405L18.8771 27.2771L19.0298 27.2347" fill="#1A1918"/>
<path d="M29.0991 24.0628H28.8883C28.8301 23.6407 28.6067 23.2591 28.2672 23.0018C27.9276 22.7444 27.4998 22.6325 27.0778 22.6905C26.7411 22.6901 26.408 22.7607 26.1004 22.8975C25.7927 23.0344 25.5174 23.2345 25.2922 23.4848C25.067 23.7352 24.8971 24.0302 24.7935 24.3506C24.6899 24.6709 24.655 25.0096 24.6909 25.3443C24.6448 26.063 24.8835 26.7709 25.3555 27.3148C25.8275 27.8587 26.4947 28.1948 27.2127 28.2503C27.6226 28.2518 28.0195 28.1065 28.3315 27.8407C28.6436 27.5749 28.8502 27.2062 28.9139 26.8013L29.111 26.8515L28.9139 28.074C28.3265 28.3472 27.6898 28.4983 27.0423 28.5182C26.616 28.5525 26.1874 28.4951 25.7852 28.3499C25.3829 28.2047 25.0164 27.9751 24.7103 27.6765C24.4043 27.3779 24.1656 27.0171 24.0106 26.6186C23.8555 26.2201 23.7875 25.793 23.8113 25.366C23.8499 24.5514 24.2083 23.7849 24.8086 23.2329C25.4089 22.6809 26.2027 22.388 27.0177 22.4177C27.7034 22.4534 28.3783 22.6035 29.0144 22.862L29.0982 24.0588" fill="#1A1918"/>
<path d="M29.4045 28.1745H29.5601C29.7975 28.1745 29.967 28.1745 29.967 27.8977V23.2353C29.967 22.6906 29.8399 22.6738 29.5188 22.5822V22.4482C29.8193 22.3537 30.111 22.2331 30.3906 22.0877C30.4485 22.0498 30.5107 22.0188 30.5758 21.9951C30.628 21.9951 30.6447 22.0463 30.6447 22.1133V27.8977C30.6447 28.1745 30.8309 28.1745 31.0673 28.1745H31.2101V28.3922C30.9235 28.3922 30.627 28.3754 30.3236 28.3754C30.0202 28.3754 29.7148 28.3833 29.4016 28.3922V28.1745" fill="#1A1918"/>
<path d="M34.8372 27.9311C34.8372 28.0828 34.9298 28.0907 35.0736 28.0907C35.1721 28.0907 35.3021 28.0828 35.4124 28.0828V28.2592C35.0002 28.3161 34.5927 28.4027 34.1929 28.5182L34.1506 28.4926V27.8139C33.756 28.2266 33.2218 28.4774 32.6523 28.5173C32.5243 28.5203 32.397 28.4962 32.279 28.4466C32.161 28.397 32.0548 28.3229 31.9674 28.2293C31.88 28.1357 31.8135 28.0247 31.7721 27.9035C31.7307 27.7823 31.7154 27.6538 31.7273 27.5263V25.3778C31.7273 25.1601 31.6938 24.9503 31.2209 24.9089V24.7494C31.5253 24.7415 32.206 24.6912 32.3114 24.6912C32.4099 24.6912 32.4099 24.7494 32.4099 24.9336V27.0938C32.4099 27.345 32.4099 28.0641 33.1458 28.0641C33.5312 28.0038 33.8887 27.8259 34.1693 27.5548V25.302C34.1693 25.1345 33.7634 25.0429 33.459 24.9592V24.8085C34.2195 24.7572 34.6943 24.6912 34.779 24.6912C34.847 24.6912 34.847 24.7494 34.847 24.8419V27.9311" fill="#1A1918"/>
<path d="M36.5207 25.168C36.8621 24.8323 37.3059 24.6201 37.7816 24.5651C38.0021 24.5728 38.2188 24.6248 38.4186 24.7183C38.6185 24.8117 38.7974 24.9446 38.9446 25.1089C39.0918 25.2733 39.2043 25.4656 39.2753 25.6745C39.3463 25.8834 39.3743 26.1045 39.3577 26.3245C39.3767 26.8828 39.175 27.426 38.7963 27.8367C38.4176 28.2473 37.8924 28.4921 37.3344 28.5183C36.9241 28.5172 36.5203 28.4157 36.1582 28.2227L35.905 28.4197L35.7277 28.3281C35.8053 27.8351 35.8448 27.3368 35.8459 26.8377V23.2353C35.8459 22.6906 35.7188 22.6738 35.3967 22.5822V22.4482C35.6974 22.354 35.9891 22.2333 36.2685 22.0877C36.3269 22.0499 36.3893 22.0188 36.4547 21.9951C36.5049 21.9951 36.5217 22.0463 36.5217 22.1133V25.167L36.5207 25.168ZM36.5207 27.4455C36.5333 27.6709 36.6298 27.8835 36.791 28.0415C36.9523 28.1995 37.1668 28.2916 37.3925 28.2996C38.2978 28.2996 38.678 27.4199 38.678 26.6752C38.6966 26.2807 38.5688 25.8933 38.3192 25.5873C38.0695 25.2813 37.7157 25.0783 37.3255 25.0173C37.0192 25.0497 36.7342 25.1893 36.5207 25.4113V27.4455Z" fill="#1A1918"/>
<path d="M0.0197754 33.2604H0.0847903C0.250283 33.2604 0.425626 33.2378 0.425626 33.0013V30.6135C0.425626 30.3761 0.250283 30.3535 0.0847903 30.3535H0.0197754V30.2165C0.199059 30.2165 0.475865 30.2343 0.701447 30.2343C0.927029 30.2343 1.20778 30.2165 1.42351 30.2165V30.3535H1.35849C1.19398 30.3535 1.01864 30.3761 1.01864 30.6135V33.0004C1.01864 33.2378 1.19398 33.2594 1.35849 33.2594H1.42351V33.3964C1.20285 33.3964 0.926044 33.3786 0.696522 33.3786C0.467 33.3786 0.199059 33.3964 0.0197754 33.3964V33.2594" fill="#1A1918"/>
<path d="M1.42343 33.417C1.20081 33.417 0.924985 33.3983 0.696448 33.3983C0.46791 33.3983 0.20391 33.417 0.019701 33.417H0V33.2397H0.0847159C0.252179 33.2397 0.40388 33.222 0.404865 32.9994V30.6135C0.404865 30.3909 0.251194 30.3761 0.0847159 30.3732H0V30.1968H0.019701C0.19997 30.1968 0.476776 30.2146 0.701373 30.2146C0.92597 30.2146 1.20573 30.1968 1.42343 30.1968H1.44412V30.3732H1.3594C1.19194 30.3732 1.03925 30.3909 1.03827 30.6135V33.0004C1.03827 33.223 1.19194 33.2358 1.3594 33.2407H1.44412V33.417H1.42343ZM1.40373 33.3776V33.2791H1.3594C1.19489 33.2791 0.998865 33.2506 0.99788 32.9994V30.6135C0.99788 30.3613 1.19489 30.3338 1.3594 30.3338H1.40373V30.2353C1.19095 30.2353 0.924985 30.254 0.701373 30.254C0.477761 30.254 0.217701 30.2372 0.039403 30.2353V30.3338H0.0837314C0.248239 30.3338 0.444268 30.3623 0.444268 30.6135V33.0004C0.444268 33.2516 0.247254 33.2801 0.0837314 33.2801H0.039403V33.3786C0.217701 33.3786 0.477761 33.3599 0.696448 33.3599C0.915134 33.3599 1.18898 33.3767 1.40373 33.3786V33.3776Z" fill="#1A1918"/>
<path d="M4.58659 32.499L4.59546 32.4901V30.782C4.60305 30.7263 4.59815 30.6696 4.5811 30.6161C4.56405 30.5625 4.53528 30.5134 4.49688 30.4724C4.45848 30.4313 4.41142 30.3994 4.35912 30.3788C4.30682 30.3582 4.2506 30.3496 4.19453 30.3535H4.09602V30.2165C4.31274 30.2165 4.52453 30.2343 4.74026 30.2343C4.9294 30.2343 5.11853 30.2165 5.30668 30.2165V30.3535H5.23773C5.04071 30.3535 4.82695 30.3899 4.82695 30.9317V33.0004C4.82432 33.1542 4.83354 33.308 4.85453 33.4604H4.67722L2.30713 30.845V32.7275C2.30713 33.1215 2.38495 33.2604 2.73958 33.2604H2.81838V33.3973C2.62137 33.3973 2.42435 33.3796 2.22734 33.3796C2.03032 33.3796 1.80868 33.3973 1.60083 33.3973V33.2604H1.66584C1.98304 33.2604 2.07958 33.0467 2.07958 32.6832V30.7633C2.07946 30.7087 2.06848 30.6548 2.04728 30.6045C2.02609 30.5543 1.99511 30.5088 1.95614 30.4706C1.91717 30.4325 1.87099 30.4025 1.82031 30.3823C1.76962 30.3622 1.71544 30.3524 1.66092 30.3535H1.60083V30.2165C1.77519 30.2165 1.95546 30.2343 2.12981 30.2343C2.26871 30.2343 2.4017 30.2165 2.53961 30.2165L4.58856 32.499" fill="#1A1918"/>
<path d="M4.85244 33.485L4.66331 33.4791L2.32671 30.9021V32.7275C2.33262 33.1215 2.39271 33.2358 2.73946 33.2407H2.83797V33.417H2.81728C2.62026 33.417 2.42325 33.3983 2.22623 33.3983C2.02922 33.3983 1.80856 33.417 1.59973 33.417H1.57904V33.2397H1.66376C1.96814 33.2397 2.05779 33.0427 2.05779 32.6822V30.7642C2.05779 30.7125 2.0476 30.6612 2.02779 30.6134C2.00799 30.5656 1.97897 30.5222 1.94238 30.4856C1.90579 30.449 1.86235 30.42 1.81455 30.4002C1.76674 30.3804 1.7155 30.3702 1.66376 30.3702H1.58298V30.1939H1.60367C1.78 30.1939 1.96026 30.2116 2.13265 30.2116C2.26958 30.2116 2.40256 30.1939 2.5582 30.2008L4.58155 32.4546V30.78C4.58919 30.727 4.58485 30.6729 4.56887 30.6218C4.55289 30.5707 4.52567 30.5239 4.4892 30.4846C4.45273 30.4454 4.40794 30.4149 4.35812 30.3953C4.30831 30.3756 4.25472 30.3674 4.20131 30.3712H4.07916V30.1948H4.09985C4.31755 30.1948 4.52934 30.2126 4.74409 30.2126C4.93125 30.2126 5.12038 30.1948 5.3105 30.1948H5.32725V30.3712H5.23859C5.04847 30.3712 4.85343 30.3928 4.84456 30.9297V32.9984C4.84206 33.1512 4.85128 33.304 4.87215 33.4554V33.4781L4.85244 33.485ZM4.67809 33.4456H4.83471C4.81584 33.2996 4.80761 33.1524 4.81009 33.0053V30.9366C4.81009 30.3899 5.04158 30.3387 5.23958 30.3377H5.28785V30.2392C5.10659 30.2392 4.92435 30.2569 4.74113 30.2569C4.53032 30.2569 4.32543 30.2402 4.11758 30.2392V30.3377H4.19934C4.25794 30.3344 4.31655 30.3439 4.37104 30.3658C4.42553 30.3876 4.47457 30.4211 4.51469 30.4639C4.5548 30.5068 4.58503 30.5579 4.60322 30.6137C4.62141 30.6695 4.62713 30.7286 4.61997 30.7869L4.61406 32.5088L4.60519 32.5177L4.58943 32.5324L2.54244 30.2411C2.40552 30.2411 2.27253 30.2589 2.13167 30.2589C1.96322 30.2589 1.78985 30.2421 1.62337 30.2411V30.3397H1.66474C1.7219 30.3387 1.77866 30.3492 1.83175 30.3704C1.88483 30.3916 1.93316 30.4232 1.97395 30.4632C2.01473 30.5033 2.04715 30.551 2.06933 30.6037C2.0915 30.6564 2.10298 30.713 2.1031 30.7701V32.6891C2.1031 33.0535 2.00459 33.286 1.66967 33.288H1.62534V33.3865C1.82235 33.3865 2.0302 33.3678 2.23116 33.3678C2.43212 33.3678 2.61534 33.3845 2.80447 33.3865V33.288H2.74635C2.38385 33.288 2.2942 33.1304 2.2942 32.7344V30.7987L4.68498 33.4446L4.67809 33.4456ZM4.58647 32.4999L4.60125 32.4871L4.58647 32.4999Z" fill="#1A1918"/>
<path d="M5.99423 30.4451C5.64847 30.4451 5.63468 30.5278 5.56572 30.8598H5.42584C5.44357 30.7317 5.46722 30.6046 5.48101 30.4726C5.49951 30.3444 5.50873 30.215 5.50859 30.0855H5.62286C5.66029 30.2224 5.77456 30.2175 5.89966 30.2175H8.27369C8.3988 30.2175 8.51307 30.2175 8.52292 30.0766L8.63324 30.0954C8.61551 30.2175 8.5968 30.3406 8.58301 30.4648C8.56922 30.5889 8.57414 30.71 8.57414 30.8332L8.43623 30.8834C8.42638 30.715 8.40372 30.446 8.09539 30.446H7.33984V32.8693C7.33984 33.221 7.50139 33.2634 7.72205 33.2634H7.80972V33.4003C7.63044 33.4003 7.30733 33.3825 7.0591 33.3825C6.78229 33.3825 6.46017 33.4003 6.2799 33.4003V33.2634H6.36757C6.62172 33.2634 6.74978 33.2407 6.74978 32.8811V30.448H5.99423" fill="#1A1918"/>
<path d="M7.8087 33.417C7.62744 33.417 7.30533 33.3993 7.05807 33.3993C6.78225 33.3993 6.46013 33.417 6.27888 33.417H6.25918V33.2397H6.36655C6.6207 33.2338 6.72216 33.2308 6.72807 32.8772V30.4638H5.99321V30.4244H6.76748V32.8782C6.76748 33.2437 6.61873 33.2811 6.36655 33.2811H6.29858V33.3796C6.47983 33.3796 6.79112 33.3619 7.05807 33.3619C7.29745 33.3619 7.60479 33.3786 7.78801 33.3796V33.2811H7.72103C7.4984 33.2811 7.31912 33.2269 7.31912 32.8683V30.4244H8.09437C8.4027 30.4244 8.44407 30.6854 8.45392 30.8548L8.55243 30.8184C8.55243 30.6992 8.55243 30.58 8.5613 30.4608C8.57016 30.3416 8.59183 30.2274 8.60858 30.1101L8.53864 30.0983C8.51697 30.2313 8.38694 30.2382 8.27168 30.2362H5.87401C5.76565 30.2362 5.64744 30.2313 5.60607 30.1042H5.53022C5.52984 30.2278 5.52096 30.3512 5.50362 30.4736C5.48983 30.5987 5.46915 30.7189 5.4524 30.8401H5.55091C5.611 30.5219 5.64942 30.4194 5.99518 30.4244V30.4638C5.65434 30.4707 5.66124 30.5268 5.58637 30.8637V30.8795H5.40906V30.8558C5.42777 30.7288 5.45142 30.6007 5.46422 30.4687C5.48308 30.3418 5.4923 30.2137 5.4918 30.0855V30.0658H5.6376V30.0806C5.66813 30.1958 5.75383 30.1958 5.87106 30.1988H8.27267C8.40073 30.1988 8.49431 30.1988 8.50219 30.0757V30.054H8.52288L8.65291 30.0747V30.0944C8.63419 30.2165 8.61646 30.3396 8.60267 30.4618C8.58888 30.5839 8.5938 30.7061 8.5938 30.8292V30.843L8.58001 30.8479L8.41747 30.9071V30.8805C8.40467 30.7091 8.38694 30.4608 8.09634 30.4608H7.36148V32.8654C7.36148 33.2092 7.50333 33.2328 7.723 33.2377H7.83037V33.4141H7.81067" fill="#1A1918"/>
<path d="M8.77502 33.2604H8.84004C9.00553 33.2604 9.18087 33.2378 9.18087 33.0013V30.6135C9.18087 30.3761 9.00553 30.3535 8.84004 30.3535H8.77502V30.2165C9.05479 30.2165 9.53452 30.2343 9.92067 30.2343C10.3068 30.2343 10.7865 30.2165 11.1028 30.2165C11.0949 30.4136 11.1028 30.7091 11.1126 30.914L10.9737 30.9504C10.952 30.6549 10.8959 30.4175 10.4132 30.4175H9.77389V31.6104H10.3206C10.5964 31.6104 10.6565 31.4558 10.6841 31.2095H10.822C10.8128 31.3875 10.8082 31.5651 10.8082 31.7424C10.8082 31.9197 10.8128 32.0928 10.822 32.2616L10.6841 32.2891C10.6565 32.0163 10.6427 31.839 10.3245 31.839H9.77291V32.8999C9.77291 33.1954 10.0389 33.1954 10.3334 33.1954C10.886 33.1954 11.1294 33.159 11.2682 32.6398L11.3963 32.6713C11.3362 32.9137 11.282 33.154 11.2407 33.3954C10.9451 33.3954 10.4162 33.3776 10.0024 33.3776C9.5887 33.3776 9.04001 33.3954 8.77699 33.3954V33.2584" fill="#1A1918"/>
<path d="M11.2377 33.417C10.9422 33.417 10.4122 33.3983 9.99946 33.3983C9.58671 33.3983 9.03704 33.417 8.77501 33.417H8.75531V33.2397H8.83904C9.00552 33.2397 9.15722 33.222 9.15919 32.9994V30.6135C9.15919 30.3909 9.00552 30.3761 8.83904 30.3732H8.75531V30.1968H8.77501C9.05674 30.1968 9.53549 30.2146 9.92065 30.2146C10.3058 30.2146 10.7855 30.1968 11.1027 30.1968H11.1234V30.2175C11.1234 30.2855 11.1234 30.3663 11.1234 30.452C11.1234 30.6096 11.1234 30.782 11.1372 30.912V30.9278H11.1215L10.9599 30.9701V30.9465C10.9323 30.651 10.8929 30.4362 10.4191 30.4313H9.7985V31.5848H10.3265C10.5915 31.5848 10.6398 31.4479 10.6703 31.2026V31.1839H10.8476V31.2046C10.8387 31.3829 10.8328 31.5592 10.8328 31.7375C10.8328 31.9158 10.8378 32.0823 10.8476 32.2556V32.2724H10.8309L10.6703 32.3039V32.2822C10.6388 32.0045 10.6368 31.8518 10.3304 31.8488H9.79752V32.891C9.79752 33.1678 10.0398 33.1668 10.3393 33.1678C10.8939 33.1678 11.1155 33.1373 11.2544 32.627V32.6083H11.2741L11.4219 32.6467V32.6654C11.3618 32.9068 11.3076 33.1471 11.2653 33.3885V33.4042L11.2377 33.417ZM11.221 33.3776C11.2613 33.1471 11.3135 32.9176 11.3697 32.6881L11.2791 32.6654C11.1412 33.1747 10.8742 33.221 10.3304 33.2171C10.0398 33.2171 9.75023 33.2171 9.74826 32.9009V31.8173H10.3206C10.6417 31.8173 10.6742 32.0054 10.6979 32.2645L10.7964 32.2448C10.7875 32.0764 10.7826 31.9079 10.7826 31.7414C10.7826 31.575 10.7826 31.3996 10.7964 31.2272H10.6979C10.6723 31.4656 10.5994 31.6311 10.3167 31.6282H9.74925V30.3978H10.4093C10.888 30.3978 10.9668 30.6391 10.9885 30.9258L11.087 30.8992C11.0791 30.7711 11.0732 30.6037 11.0732 30.453C11.0732 30.3751 11.0732 30.3013 11.0732 30.2362C10.7599 30.2362 10.294 30.254 9.91474 30.254C9.53549 30.254 9.07053 30.2372 8.7888 30.2362V30.3347H8.83313C8.99665 30.3347 9.19268 30.3633 9.19367 30.6155V33.0023C9.19367 33.2535 8.99665 33.2811 8.83313 33.2831H8.7888V33.3816C9.05674 33.3816 9.58868 33.3639 9.99355 33.3639C10.3984 33.3639 10.9175 33.3806 11.215 33.3816L11.221 33.3776Z" fill="#1A1918"/>
<path d="M12.0199 30.6992C12.0199 30.3673 11.8357 30.3535 11.6929 30.3535H11.6101V30.2165C11.7579 30.2165 12.0426 30.2343 12.3243 30.2343C12.606 30.2343 12.8168 30.2165 13.0651 30.2165C13.6443 30.2165 14.1615 30.3712 14.1615 31.0184C14.1546 31.203 14.0887 31.3805 13.9734 31.5248C13.8582 31.6692 13.6996 31.7727 13.5212 31.8202L14.3092 32.9856C14.3522 33.0673 14.4164 33.1359 14.4951 33.1841C14.5738 33.2323 14.6641 33.2583 14.7564 33.2594V33.3964C14.6037 33.3964 14.4609 33.3786 14.3053 33.3786C14.1496 33.3786 14.0097 33.3964 13.8728 33.3964C13.5196 32.9268 13.1996 32.433 12.9153 31.9187H12.6119V32.894C12.6119 33.2447 12.7774 33.2584 12.9882 33.2584H13.072V33.3954C12.8089 33.3954 12.543 33.3776 12.2839 33.3776C12.0632 33.3776 11.8465 33.3954 11.616 33.3954V33.2584H11.6988C11.8702 33.2584 12.0258 33.1816 12.0258 33.0132V30.6982L12.0199 30.6992ZM12.6109 31.7562H12.8355C13.2966 31.7562 13.5448 31.5838 13.5448 31.046C13.5507 30.9564 13.5373 30.8667 13.5055 30.7828C13.4737 30.6989 13.4242 30.6228 13.3603 30.5598C13.2965 30.4967 13.2199 30.4481 13.1356 30.4173C13.0514 30.3864 12.9614 30.3741 12.872 30.381C12.7847 30.3822 12.6975 30.3885 12.6109 30.3998V31.7562Z" fill="#1A1918"/>
<path d="M14.7534 33.417C14.5988 33.417 14.453 33.3983 14.3013 33.3983C14.1496 33.3983 14.0136 33.417 13.8531 33.4092C13.5019 32.9424 13.1833 32.452 12.8995 31.9414H12.6276V32.8959C12.6326 33.2387 12.7715 33.2368 12.9842 33.2407H13.0828V33.417H13.0621C12.7991 33.417 12.5311 33.3983 12.274 33.3983C12.0543 33.3983 11.8376 33.417 11.6061 33.417H11.5864V33.2397H11.6849C11.8504 33.2397 11.9903 33.1668 11.9913 33.0142V30.6992C11.9913 30.3761 11.8278 30.3781 11.6849 30.3732H11.5864V30.1968H11.6061C11.7549 30.1968 12.0396 30.2146 12.3203 30.2146C12.6011 30.2146 12.8128 30.1968 13.0611 30.1968C13.6413 30.1968 14.1752 30.3564 14.1772 31.0184C14.1714 31.2028 14.1074 31.3807 13.9943 31.5265C13.8812 31.6723 13.7249 31.7786 13.5477 31.8301L14.321 32.9757C14.3623 33.055 14.4243 33.1215 14.5005 33.1682C14.5767 33.2148 14.6641 33.2399 14.7534 33.2407H14.7702V33.4141L14.7534 33.417ZM12.6079 31.901H12.9222L12.9281 31.9109C13.2111 32.4188 13.5252 32.9086 13.8688 33.3776C14.0087 33.3776 14.1565 33.3589 14.3003 33.3589C14.4441 33.3589 14.5889 33.3747 14.7328 33.3767V33.2781C14.6409 33.2742 14.5516 33.2464 14.4739 33.1973C14.3961 33.1482 14.3325 33.0796 14.2895 32.9984L13.4876 31.8163L13.5103 31.8074C13.6859 31.7614 13.8419 31.6597 13.955 31.5177C14.0681 31.3757 14.1322 31.2009 14.1378 31.0194C14.1378 30.387 13.6452 30.2412 13.0621 30.2372C12.8197 30.2372 12.5981 30.2559 12.3213 30.2559C12.0445 30.2559 11.7775 30.2392 11.6317 30.2372V30.3357H11.6948C11.8376 30.3357 12.0415 30.3594 12.0415 30.7012V33.0161C12.0415 33.1993 11.8682 33.2821 11.6948 33.2821H11.6317V33.3806C11.8534 33.3806 12.0632 33.3629 12.2799 33.3629C12.537 33.3629 12.7971 33.3796 13.0512 33.3806V33.2821H12.9882C12.7784 33.2821 12.5942 33.2565 12.5942 32.8959V31.901H12.6079ZM12.6079 31.7759H12.5873V30.383H12.605C12.6926 30.3719 12.7807 30.366 12.869 30.3653C12.9612 30.359 13.0536 30.3726 13.1401 30.405C13.2266 30.4375 13.3052 30.488 13.3705 30.5534C13.4358 30.6187 13.4864 30.6972 13.5188 30.7837C13.5513 30.8702 13.5648 30.9627 13.5585 31.0548C13.5585 31.5986 13.2936 31.7838 12.8296 31.7838L12.6079 31.7759ZM12.8335 31.7375C13.2896 31.7375 13.5231 31.5769 13.5231 31.0479C13.529 30.961 13.5161 30.8737 13.4853 30.7922C13.4545 30.7106 13.4065 30.6366 13.3445 30.5753C13.2825 30.514 13.208 30.4667 13.1262 30.4368C13.0443 30.4068 12.9569 30.3949 12.87 30.4017C12.7892 30.402 12.7086 30.4076 12.6286 30.4185V31.7385L12.8335 31.7375Z" fill="#1A1918"/>
<path d="M17.8792 32.499L17.8871 32.4901V30.782C17.8948 30.7263 17.8901 30.6697 17.8732 30.6161C17.8562 30.5626 17.8276 30.5135 17.7892 30.4724C17.7509 30.4313 17.7039 30.3994 17.6516 30.3788C17.5994 30.3582 17.5432 30.3496 17.4871 30.3535H17.3886V30.2165C17.6053 30.2165 17.8161 30.2343 18.0329 30.2343C18.222 30.2343 18.4092 30.2165 18.5993 30.2165V30.3535H18.5274C18.3304 30.3535 18.1176 30.3899 18.1176 30.9317V33.0004C18.1149 33.1542 18.1242 33.308 18.1452 33.4604H17.9708L15.5997 30.845V32.7275C15.5997 33.1215 15.6776 33.2604 16.0322 33.2604H16.111V33.3973C15.914 33.3973 15.717 33.3796 15.5199 33.3796C15.3229 33.3796 15.1003 33.3973 14.8934 33.3973V33.2604H14.9575C15.2756 33.2604 15.3722 33.0467 15.3722 32.6832V30.7633C15.3721 30.7087 15.3611 30.6548 15.3399 30.6045C15.3187 30.5543 15.2877 30.5088 15.2487 30.4706C15.2098 30.4325 15.1636 30.4025 15.1129 30.3823C15.0622 30.3622 15.008 30.3524 14.9535 30.3535H14.8934V30.2165C15.0678 30.2165 15.249 30.2343 15.4234 30.2343C15.5603 30.2343 15.6943 30.2165 15.8332 30.2165L17.8821 32.499" fill="#1A1918"/>
<path d="M18.146 33.485L17.9569 33.4791L15.6203 30.9021V32.7275C15.6252 33.1215 15.6863 33.2368 16.033 33.2407H16.1315V33.417H16.1118C15.9148 33.417 15.7178 33.3983 15.5208 33.3983C15.3238 33.3983 15.1021 33.417 14.8953 33.417H14.8746V33.2397H14.9593C15.2637 33.2397 15.3533 33.0427 15.3533 32.6802V30.7632C15.3533 30.6587 15.3118 30.5585 15.2379 30.4846C15.164 30.4107 15.0638 30.3692 14.9593 30.3692H14.8785V30.1929H14.8992C15.0745 30.1929 15.2548 30.2106 15.4292 30.2106C15.5641 30.2106 15.6981 30.1929 15.8518 30.1988L17.8761 32.4536V30.779C17.8839 30.726 17.8797 30.6719 17.8638 30.6207C17.8479 30.5695 17.8207 30.5225 17.7842 30.4833C17.7477 30.444 17.7028 30.4135 17.6529 30.3939C17.603 30.3743 17.5493 30.3662 17.4959 30.3702H17.3747V30.1939H17.3944C17.6121 30.1939 17.8239 30.2116 18.0396 30.2116C18.2268 30.2116 18.4159 30.1939 18.6051 30.1939H18.6257V30.3702H18.5272C18.3371 30.3702 18.1421 30.3919 18.1332 30.9287V32.9974C18.1301 33.1502 18.1393 33.3031 18.1608 33.4545V33.4771L18.146 33.485ZM17.9716 33.4456H18.1224C18.1036 33.2996 18.0954 33.1525 18.0977 33.0053V30.9366C18.0977 30.3899 18.3312 30.3387 18.5282 30.3377H18.5765V30.2392C18.3952 30.2392 18.213 30.2569 18.0308 30.2569C17.819 30.2569 17.6141 30.2402 17.4062 30.2392V30.3377H17.488C17.5466 30.3344 17.6052 30.344 17.6597 30.3658C17.7142 30.3876 17.7632 30.4211 17.8033 30.4639C17.8434 30.5068 17.8737 30.5579 17.8919 30.6137C17.91 30.6695 17.9158 30.7286 17.9086 30.7869L17.9017 32.5088L17.8938 32.5177L17.8791 32.5324L15.8311 30.2412C15.6942 30.2412 15.5602 30.2589 15.4213 30.2589C15.2509 30.2589 15.0785 30.2421 14.911 30.2412V30.3397H14.9514C15.0085 30.3387 15.0652 30.3492 15.1182 30.3703C15.1712 30.3915 15.2195 30.4229 15.2603 30.4629C15.301 30.5028 15.3335 30.5505 15.3557 30.603C15.3779 30.6556 15.3895 30.7121 15.3898 30.7692V32.6871C15.3898 33.0526 15.2853 33.285 14.9553 33.287H14.911V33.3855C15.108 33.3855 15.3149 33.3678 15.5168 33.3678C15.7188 33.3678 15.901 33.3845 16.0911 33.3855V33.287H16.033C15.6705 33.287 15.5809 33.1304 15.5799 32.7334V30.7997L17.9716 33.4446V33.4456ZM17.8791 32.4999L17.8938 32.4871L17.8791 32.4999Z" fill="#1A1918"/>
<path d="M19.338 32.7472C19.2933 32.8618 19.2603 32.9806 19.2395 33.1018C19.2395 33.2387 19.4365 33.2614 19.5853 33.2614H19.6365V33.3983C19.4513 33.3885 19.2642 33.3806 19.079 33.3806C18.9135 33.3806 18.748 33.3885 18.5864 33.3983V33.2614H18.614C18.7036 33.2617 18.7909 33.233 18.8629 33.1798C18.9349 33.1266 18.9879 33.0516 19.0139 32.9659L19.7508 30.8755C19.8225 30.6918 19.8798 30.5027 19.9222 30.3101C20.0679 30.2583 20.2081 30.1924 20.3408 30.1131C20.3524 30.108 20.3647 30.105 20.3773 30.1042C20.3836 30.1031 20.39 30.1039 20.3958 30.1066C20.4016 30.1092 20.4065 30.1135 20.4098 30.119C20.4236 30.1554 20.4364 30.1958 20.4512 30.2323L21.2983 32.6152C21.3535 32.7738 21.4087 32.9422 21.4668 33.0801C21.491 33.1395 21.5339 33.1894 21.589 33.2223C21.6441 33.2552 21.7084 33.2693 21.7722 33.2624H21.7997V33.3993C21.5919 33.3894 21.385 33.3816 21.1644 33.3816C20.9437 33.3816 20.7083 33.3894 20.4748 33.3993V33.2624H20.5251C20.6305 33.2624 20.8107 33.2446 20.8107 33.1304C20.7928 33.0178 20.7618 32.9077 20.7181 32.8023L20.5388 32.2743H19.4848L19.338 32.7482V32.7472ZM20.0099 30.7288H20.0049L19.5774 32.0182H20.4374L20.0148 30.7288H20.0099Z" fill="#1A1918"/>
<path d="M21.7908 33.417C21.584 33.4082 21.3761 33.3983 21.1574 33.3983C20.9387 33.3983 20.7023 33.4082 20.4679 33.417H20.4462V33.2397H20.5171C20.6235 33.2397 20.7821 33.2161 20.7821 33.1284C20.7644 33.0182 20.734 32.9104 20.6915 32.8073L20.5161 32.2921H19.4995L19.3567 32.7521C19.3126 32.8652 19.2796 32.9823 19.2582 33.1018C19.2582 33.2131 19.4316 33.2407 19.5842 33.2407H19.6552V33.419H19.6345C19.4503 33.4101 19.2621 33.4003 19.0789 33.4003C18.9144 33.4003 18.7479 33.4101 18.5864 33.419H18.5647V33.2397H18.612C18.6973 33.2403 18.7805 33.2131 18.8491 33.1623C18.9177 33.1115 18.9679 33.0398 18.9922 32.958L19.7291 30.8667C19.7991 30.6761 19.8583 30.4817 19.9064 30.2845C20.0516 30.2325 20.1915 30.1665 20.324 30.0875C20.338 30.0811 20.353 30.0774 20.3684 30.0766C20.3784 30.0759 20.3885 30.0779 20.3975 30.0824C20.4065 30.0869 20.4141 30.0938 20.4196 30.1022C20.4324 30.1397 20.4472 30.1801 20.461 30.2175L21.3081 32.6004C21.3623 32.76 21.4175 32.9284 21.4776 33.0634C21.4995 33.1194 21.5395 33.1665 21.5913 33.1972C21.643 33.2279 21.7035 33.2405 21.7632 33.2328H21.8095V33.4111L21.7908 33.417ZM20.4856 33.3766C20.7131 33.3688 20.9368 33.3599 21.1564 33.3599C21.3761 33.3599 21.5702 33.3688 21.7711 33.3766V33.2781H21.7642C21.6962 33.285 21.6279 33.2695 21.5696 33.2339C21.5112 33.1984 21.4661 33.1447 21.4411 33.0811C21.381 32.9432 21.3249 32.7748 21.2707 32.6152L20.4235 30.2323C20.4097 30.1958 20.3969 30.1554 20.3841 30.1229H20.3772H20.3684C20.3593 30.1238 20.3503 30.1257 20.3418 30.1288C20.2138 30.2073 20.076 30.2686 19.932 30.3111C19.8904 30.5051 19.8334 30.6955 19.7616 30.8805L19.0198 32.9708C18.9924 33.0605 18.9369 33.139 18.8616 33.1949C18.7862 33.2508 18.6949 33.281 18.6011 33.2811H18.5933V33.3796C18.7509 33.3717 18.9105 33.3628 19.07 33.3628C19.2483 33.3628 19.4296 33.3717 19.6059 33.3796V33.2811H19.5764C19.4257 33.2811 19.2168 33.2624 19.2109 33.1018C19.231 32.9785 19.264 32.8577 19.3094 32.7413L19.3291 32.7472L19.3094 32.7413L19.4611 32.2546H20.5348L20.7191 32.7954C20.7643 32.9027 20.7958 33.0152 20.8126 33.1304C20.8057 33.2702 20.6156 33.2801 20.5073 33.2831H20.4767V33.3816L20.4856 33.3766ZM19.5448 32.0369L19.9852 30.7081H20.0098V30.7278V30.7081H20.0236L20.461 32.0369H19.5448ZM19.6 31.9975H20.4058L20.0049 30.777L19.6 31.9975ZM19.994 30.7347H20.0049H19.994Z" fill="#1A1918"/>
<path d="M21.9948 30.4451C21.65 30.4451 21.6353 30.5278 21.5663 30.8598H21.4284C21.4461 30.7317 21.4698 30.6046 21.4846 30.4726C21.5025 30.3444 21.5114 30.215 21.5112 30.0855H21.6225C21.6589 30.2224 21.7742 30.2175 21.8983 30.2175H24.2743C24.3984 30.2175 24.5127 30.2175 24.5225 30.0766L24.6329 30.0954C24.6161 30.2175 24.5974 30.3406 24.5826 30.4648C24.5678 30.5889 24.5728 30.71 24.5728 30.8332L24.4349 30.8834C24.427 30.715 24.4033 30.446 24.094 30.446H23.3394V32.8693C23.3394 33.221 23.501 33.2634 23.7217 33.2634H23.8093V33.4003C23.6291 33.4003 23.3079 33.3825 23.0587 33.3825C22.7829 33.3825 22.4598 33.4003 22.2805 33.4003V33.2634H22.3692C22.6233 33.2634 22.7514 33.2407 22.7514 32.8811V30.448H21.9948" fill="#1A1918"/>
<path d="M23.8083 33.417C23.6271 33.417 23.3049 33.3993 23.0577 33.3993C22.7829 33.3993 22.4607 33.417 22.2795 33.417H22.2588V33.2397H22.3672C22.6213 33.2338 22.7228 33.2308 22.7287 32.8772V30.4638H21.9948V30.4244H22.7691V32.8782C22.7691 33.2437 22.6203 33.2801 22.3672 33.2811H22.2992V33.3796C22.4814 33.3796 22.7917 33.3609 23.0577 33.3609C23.298 33.3609 23.6064 33.3776 23.7886 33.3796V33.2811H23.7206C23.499 33.2811 23.3197 33.2279 23.3187 32.8693V30.4244H24.093C24.4023 30.4244 24.4427 30.6854 24.4516 30.8548L24.5501 30.8184C24.5501 30.6992 24.5501 30.58 24.5599 30.4608C24.5698 30.3416 24.5895 30.2264 24.6062 30.1101L24.5363 30.0983C24.5156 30.2313 24.3856 30.2382 24.2703 30.2362H21.8766C21.7682 30.2362 21.651 30.2313 21.6086 30.1042H21.5338C21.533 30.2282 21.5234 30.352 21.5052 30.4746C21.4924 30.6007 21.4707 30.7209 21.453 30.8411H21.5515C21.6116 30.5229 21.65 30.4204 21.9968 30.4253V30.4648C21.6549 30.4707 21.6628 30.5278 21.588 30.8647V30.8805H21.4106V30.8578C21.4303 30.7297 21.453 30.6017 21.4658 30.4707C21.4845 30.3435 21.4937 30.215 21.4934 30.0865V30.0668H21.6392V30.0816C21.6717 30.1968 21.7554 30.1968 21.8726 30.1998H24.2723C24.3994 30.1998 24.4929 30.1998 24.5008 30.0776V30.0559H24.5225L24.6535 30.0766V30.0963C24.6348 30.2185 24.6171 30.3416 24.6033 30.4638C24.5895 30.5859 24.5934 30.7081 24.5934 30.8312V30.845L24.5796 30.8499L24.4171 30.909V30.8824C24.4053 30.711 24.3866 30.4628 24.096 30.4628H23.3542V32.8674C23.3542 33.2111 23.497 33.2348 23.7157 33.2397H23.8231V33.416H23.8044" fill="#1A1918"/>
<path d="M24.8011 33.2604H24.8652C25.0307 33.2604 25.205 33.2378 25.205 33.0013V30.6135C25.205 30.3761 25.0307 30.3535 24.8652 30.3535H24.8011V30.2165C24.9804 30.2165 25.2563 30.2343 25.4818 30.2343C25.7074 30.2343 25.9891 30.2165 26.2059 30.2165V30.3535H26.1408C25.9744 30.3535 25.799 30.3761 25.799 30.6135V33.0004C25.799 33.2378 25.9744 33.2594 26.1408 33.2594H26.2108V33.3964C25.9901 33.3964 25.7133 33.3786 25.4828 33.3786C25.2523 33.3786 24.9903 33.3964 24.8061 33.3964V33.2594" fill="#1A1918"/>
<path d="M26.2109 33.417C25.9882 33.417 25.7134 33.3983 25.4829 33.3983C25.2524 33.3983 24.9903 33.417 24.8061 33.417H24.7864V33.2397H24.8712C25.0366 33.2397 25.1903 33.222 25.1913 32.9994V30.6135C25.1913 30.3909 25.0376 30.3761 24.8712 30.3732H24.7864V30.1968H24.8061C24.9864 30.1968 25.2632 30.2146 25.4868 30.2146C25.7104 30.2146 25.9922 30.1968 26.2109 30.1968H26.2296V30.3732H26.1419C25.9734 30.3732 25.8217 30.3909 25.8208 30.6135V33.0004C25.8208 33.223 25.9734 33.2378 26.1419 33.2407H26.2256V33.417H26.2109ZM26.1902 33.3776V33.2791H26.1419C25.9764 33.2791 25.7814 33.2506 25.7814 32.9994V30.6135C25.7814 30.3613 25.9784 30.3338 26.1419 30.3328H26.1852V30.2343C25.9734 30.2343 25.7065 30.252 25.4819 30.252C25.2573 30.252 25.0002 30.2353 24.8209 30.2343V30.3328H24.8652C25.0288 30.3328 25.2248 30.3613 25.2258 30.6135V33.0004C25.2258 33.2516 25.0288 33.2801 24.8652 33.2801H24.8219V33.3786C24.9992 33.3786 25.2593 33.3609 25.4789 33.3609C25.6986 33.3609 25.9715 33.3776 26.1852 33.3786L26.1902 33.3776Z" fill="#1A1918"/>
<path d="M28.0422 30.1486C28.2634 30.1272 28.4866 30.1518 28.6977 30.221C28.9089 30.2901 29.1034 30.4023 29.2691 30.5504C29.4348 30.6985 29.5679 30.8792 29.6603 31.0814C29.7526 31.2835 29.802 31.5025 29.8055 31.7247C29.8146 31.9558 29.7759 32.1863 29.6917 32.4018C29.6076 32.6172 29.4799 32.813 29.3165 32.9768C29.1532 33.1405 28.9578 33.2688 28.7426 33.3536C28.5274 33.4383 28.297 33.4777 28.0658 33.4692C27.8433 33.4834 27.6202 33.4514 27.4106 33.3753C27.201 33.2992 27.0094 33.1806 26.8477 33.027C26.6861 32.8734 26.5579 32.6881 26.4712 32.4826C26.3845 32.2772 26.3412 32.056 26.3439 31.833C26.3419 31.6103 26.3846 31.3894 26.4695 31.1834C26.5543 30.9775 26.6796 30.7906 26.838 30.6339C26.9963 30.4772 27.1845 30.3539 27.3913 30.2712C27.5981 30.1885 27.8195 30.1481 28.0422 30.1525V30.1486ZM28.1121 33.2693C29.0056 33.2693 29.1612 32.4901 29.1612 31.8252C29.1612 31.1602 28.7987 30.3535 28.0333 30.3535C27.2275 30.3535 26.9882 31.0647 26.9882 31.6744C26.9882 32.4901 27.3664 33.2693 28.1112 33.2693" fill="#1A1918"/>
<path d="M26.3232 31.8301C26.3215 31.6047 26.3649 31.3812 26.4509 31.1729C26.5369 30.9645 26.6637 30.7755 26.8239 30.6169C26.9841 30.4584 27.1745 30.3335 27.3837 30.2497C27.5929 30.1659 27.8168 30.1248 28.0422 30.1289V30.1683C27.8224 30.1646 27.6041 30.2049 27.4002 30.2869C27.1963 30.3689 27.0108 30.4909 26.8547 30.6456C26.6987 30.8004 26.5752 30.9849 26.4915 31.1881C26.4078 31.3914 26.3657 31.6093 26.3676 31.8291C26.3651 32.0495 26.4081 32.268 26.494 32.4709C26.5799 32.6739 26.7067 32.8569 26.8666 33.0086C27.0265 33.1602 27.216 33.2772 27.4232 33.3523C27.6304 33.4273 27.8508 33.4587 28.0708 33.4446C28.2993 33.4531 28.5272 33.4142 28.74 33.3305C28.9528 33.2467 29.146 33.1199 29.3075 32.9579C29.469 32.796 29.5953 32.6024 29.6784 32.3893C29.7616 32.1762 29.7998 31.9483 29.7907 31.7198C29.7866 31.5005 29.7371 31.2845 29.6454 31.0852C29.5538 30.886 29.4218 30.7079 29.258 30.5622C29.0941 30.4165 28.9018 30.3062 28.6933 30.2384C28.4847 30.1706 28.2644 30.1467 28.0461 30.1683V30.1289C28.2695 30.1078 28.4949 30.1331 28.7081 30.2031C28.9213 30.2731 29.1178 30.3864 29.2852 30.5358C29.4527 30.6852 29.5875 30.8676 29.6812 31.0714C29.775 31.2753 29.8257 31.4964 29.8301 31.7207C29.8388 31.9543 29.7992 32.1872 29.7139 32.4049C29.6286 32.6225 29.4994 32.8202 29.3344 32.9858C29.1693 33.1513 28.9719 33.281 28.7545 33.3669C28.5371 33.4528 28.3044 33.493 28.0708 33.485C27.8457 33.4988 27.6203 33.4661 27.4084 33.389C27.1966 33.3119 27.0029 33.1919 26.8394 33.0367C26.6759 32.8814 26.5461 32.6942 26.4582 32.4866C26.3702 32.279 26.326 32.0555 26.3282 31.8301H26.3232ZM26.9734 31.6705C26.9734 31.0578 27.2167 30.3298 28.0382 30.3298C28.8204 30.3298 29.1849 31.1524 29.1859 31.8222C29.1868 32.4921 29.0263 33.285 28.1171 33.285V33.2466C28.9928 33.2466 29.1445 32.4871 29.1455 31.8232C29.1465 31.1592 28.7859 30.3722 28.0382 30.3712C27.2502 30.3712 27.0148 31.0607 27.0128 31.6725C27.0128 32.4842 27.3871 33.2486 28.1171 33.2486V33.287C27.3526 33.287 26.9744 32.494 26.9734 31.6735" fill="#1A1918"/>
<path d="M32.9094 32.499L32.9192 32.4901V30.782C32.9268 30.7263 32.9219 30.6696 32.9049 30.6161C32.8878 30.5625 32.8591 30.5134 32.8207 30.4724C32.7823 30.4313 32.7352 30.3994 32.6829 30.3788C32.6306 30.3582 32.5744 30.3496 32.5183 30.3535H32.4198V30.2165C32.6355 30.2165 32.8473 30.2343 33.0631 30.2343C33.2522 30.2343 33.4413 30.2165 33.6295 30.2165V30.3535H33.5605C33.3635 30.3535 33.1507 30.3899 33.1507 30.9317V33.0004C33.1481 33.1542 33.1576 33.308 33.1793 33.4604H33.0039L30.6329 30.845V32.7275C30.6329 33.1215 30.7117 33.2604 31.0653 33.2604H31.1441V33.3973C30.9471 33.3973 30.7501 33.3796 30.5531 33.3796C30.3561 33.3796 30.1334 33.3973 29.9266 33.3973V33.2604H29.9916C30.3098 33.2604 30.4053 33.0467 30.4053 32.6832V30.7633C30.4053 30.7086 30.3944 30.6545 30.3732 30.6041C30.352 30.5538 30.3209 30.5081 30.2818 30.4699C30.2427 30.4318 30.1964 30.4018 30.1455 30.3818C30.0947 30.3618 30.0403 30.3521 29.9857 30.3535H29.9266V30.2165C30.1019 30.2165 30.2812 30.2343 30.4565 30.2343C30.5945 30.2343 30.7274 30.2165 30.8663 30.2165L32.9153 32.499" fill="#1A1918"/>
<path d="M33.1753 33.485L32.9852 33.4791L30.6437 30.9021V32.7275C30.6486 33.1215 30.7097 33.2358 31.0555 33.2397H31.154V33.417H31.1362C30.9392 33.417 30.7422 33.3983 30.5452 33.3983C30.3482 33.3983 30.1265 33.417 29.9187 33.417H29.9V33.2397H29.9837C30.2871 33.2397 30.3777 33.0427 30.3777 32.6822V30.7632C30.3777 30.7111 30.3674 30.6594 30.3473 30.6113C30.3272 30.5632 30.2977 30.5195 30.2606 30.4829C30.2235 30.4462 30.1794 30.4173 30.1311 30.3978C30.0827 30.3783 30.0309 30.3686 29.9788 30.3692H29.9V30.1929H29.9187C30.095 30.1929 30.2743 30.2106 30.4487 30.2106C30.5856 30.2106 30.7176 30.1929 30.8732 30.1998L32.8956 32.4536V30.779C32.9032 30.7259 32.8989 30.6718 32.8829 30.6206C32.8668 30.5694 32.8395 30.5225 32.8029 30.4833C32.7663 30.444 32.7214 30.4135 32.6715 30.3939C32.6215 30.3744 32.5678 30.3663 32.5144 30.3702H32.3932V30.1939H32.4168C32.6335 30.1939 32.8453 30.2116 33.0601 30.2116C33.2482 30.2116 33.4364 30.1939 33.6275 30.1939H33.6472V30.3702H33.5585C33.3684 30.3702 33.1734 30.3919 33.1645 30.9287V32.9974C33.1613 33.1502 33.1699 33.303 33.1901 33.4545V33.4771L33.1753 33.485ZM33 33.4456H33.1507C33.1327 33.2995 33.1248 33.1524 33.1271 33.0053V30.9366C33.1271 30.3889 33.3595 30.3387 33.5575 30.3377H33.6078V30.2392C33.4246 30.2392 33.2443 30.2569 33.0601 30.2569C32.8503 30.2569 32.6444 30.2402 32.4365 30.2392V30.3377H32.5153C32.5739 30.3344 32.6326 30.344 32.687 30.3658C32.7415 30.3876 32.7906 30.4211 32.8307 30.4639C32.8708 30.5068 32.901 30.5579 32.9192 30.6137C32.9374 30.6695 32.9431 30.7286 32.936 30.7869V32.5088L32.9271 32.5177L32.9123 32.5324L30.8634 30.2412C30.7274 30.2412 30.5935 30.2589 30.4536 30.2589C30.2841 30.2589 30.1108 30.2421 29.9433 30.2412V30.3397H29.9837C30.0407 30.3389 30.0974 30.3494 30.1503 30.3706C30.2033 30.3918 30.2515 30.4233 30.2923 30.4632C30.333 30.5031 30.3655 30.5507 30.3877 30.6032C30.41 30.6557 30.4217 30.7121 30.4221 30.7692V32.6881C30.4221 33.0526 30.3235 33.285 29.9876 33.287H29.9423V33.3855C30.1393 33.3855 30.3472 33.3678 30.5491 33.3678C30.7511 33.3678 30.9323 33.3845 31.1224 33.3855V33.287H31.0633C30.7018 33.287 30.6112 33.1304 30.6112 32.7334V30.7987L33.003 33.4446L33 33.4456ZM32.9074 32.4999L32.9222 32.4871L32.9074 32.4999Z" fill="#1A1918"/>
<path d="M34.3662 32.7472C34.322 32.8619 34.289 32.9807 34.2677 33.1018C34.2677 33.2387 34.4648 33.2614 34.6125 33.2614H34.6637V33.3983C34.4795 33.3885 34.2904 33.3806 34.1062 33.3806C33.9407 33.3806 33.7752 33.3885 33.6136 33.3983V33.2614H33.6402C33.7299 33.262 33.8173 33.2335 33.8894 33.1802C33.9615 33.1269 34.0144 33.0517 34.0402 32.9659L34.778 30.8755C34.8495 30.6919 34.9062 30.5028 34.9474 30.3101C35.0937 30.2583 35.2346 30.1923 35.3681 30.1131C35.3795 30.1078 35.3919 30.1048 35.4045 30.1042C35.4107 30.103 35.417 30.1038 35.4227 30.1065C35.4283 30.1091 35.433 30.1135 35.436 30.119C35.4498 30.1554 35.4636 30.1958 35.4774 30.2323L36.3246 32.6152C36.3797 32.7738 36.4349 32.9422 36.495 33.0801C36.5191 33.1392 36.5617 33.1889 36.6164 33.2217C36.6711 33.2545 36.7349 33.2688 36.7984 33.2624H36.827V33.3993C36.6191 33.3895 36.4122 33.3816 36.1906 33.3816C35.969 33.3816 35.7345 33.3895 35.5011 33.3993V33.2624H35.5523C35.6577 33.2624 35.8379 33.2446 35.8379 33.1304C35.8201 33.0178 35.789 32.9077 35.7454 32.8023L35.5661 32.2743H34.514L34.3662 32.7482V32.7472ZM35.0391 30.7288H35.0302L34.6007 32.0182H35.4626L35.0391 30.7288Z" fill="#1A1918"/>
<path d="M36.8191 33.417C36.6112 33.4092 36.4053 33.3983 36.1857 33.3983C35.966 33.3983 35.7306 33.4082 35.4961 33.417H35.4705V33.2397H35.5404C35.6478 33.2397 35.8064 33.2151 35.8064 33.1274C35.7884 33.0171 35.7573 32.9093 35.7138 32.8063L35.5395 32.2911H34.5278L34.3869 32.7472C34.343 32.86 34.3101 32.9768 34.2884 33.0959C34.2884 33.2072 34.4608 33.2358 34.6135 33.2358H34.6824V33.4131H34.6618C34.4775 33.4052 34.2894 33.3944 34.1062 33.3944C33.9407 33.3944 33.7762 33.4042 33.6136 33.4131H33.5939V33.2397H33.6402C33.726 33.2406 33.8098 33.2135 33.8788 33.1625C33.9478 33.1115 33.9982 33.0393 34.0224 32.957L34.7583 30.8657C34.8293 30.677 34.8901 30.4846 34.9405 30.2894C35.0858 30.2367 35.226 30.1708 35.3592 30.0924C35.3728 30.0863 35.3876 30.0829 35.4025 30.0826C35.4126 30.0817 35.4227 30.0837 35.4316 30.0884C35.4405 30.0931 35.4479 30.1003 35.4528 30.1092C35.4666 30.1446 35.4804 30.186 35.4951 30.2234L36.3413 32.6063C36.3965 32.7659 36.4516 32.9343 36.5117 33.0703C36.5339 33.1259 36.5738 33.1727 36.6253 33.2034C36.6768 33.234 36.7369 33.2468 36.7964 33.2397H36.8437V33.417H36.8191ZM35.5138 33.3766C35.7414 33.3688 35.966 33.3599 36.1847 33.3599C36.4034 33.3599 36.5984 33.3688 36.7994 33.3766V33.2781H36.7915C36.7237 33.2845 36.6557 33.2687 36.5977 33.2332C36.5396 33.1977 36.4946 33.1443 36.4694 33.0811C36.4083 32.9432 36.3541 32.7748 36.299 32.6152L35.4518 30.2313C35.438 30.1949 35.4232 30.1545 35.4124 30.1229L35.4065 30.118H35.3976C35.3888 30.1187 35.3802 30.1207 35.372 30.1239C35.2437 30.2018 35.106 30.263 34.9622 30.3062C34.9197 30.5001 34.8624 30.6904 34.7908 30.8755L34.054 32.9659C34.0267 33.0558 33.9711 33.1346 33.8955 33.1905C33.8199 33.2464 33.7283 33.2764 33.6343 33.2762H33.6274V33.3747C33.786 33.3668 33.9446 33.3579 34.1042 33.3579C34.2825 33.3579 34.4647 33.3668 34.6411 33.3747V33.2762H34.6095C34.4598 33.2762 34.25 33.2584 34.2441 33.0959C34.2648 32.9727 34.2978 32.852 34.3426 32.7354L34.3613 32.7413L34.3426 32.7354L34.4943 32.2487H35.569L35.7542 32.7895C35.7988 32.8969 35.8299 33.0094 35.8468 33.1245C35.8399 33.2643 35.6498 33.2742 35.5424 33.2772H35.5119V33.3757L35.5138 33.3766ZM34.5731 32.0369L35.0154 30.7081H35.039V30.7278V30.7081H35.0528L35.4882 32.0369H34.5731ZM34.6283 31.9975H35.4341L35.0331 30.777L34.6283 31.9975ZM35.0223 30.7347H35.0312H35.0223Z" fill="#1A1918"/>
<path d="M37.9805 32.9501C37.9805 33.1333 38.1085 33.1875 38.2563 33.2062C38.4588 33.2212 38.6622 33.2179 38.8641 33.1964C38.9502 33.1865 39.0336 33.1596 39.1093 33.1174C39.1851 33.0751 39.2517 33.0183 39.3054 32.9501C39.3716 32.8498 39.4199 32.7389 39.4482 32.6221H39.5812C39.531 32.8821 39.4659 33.1373 39.4108 33.3964C39.0069 33.3964 38.6001 33.3786 38.1952 33.3786C37.7903 33.3786 37.3845 33.3964 36.9796 33.3964V33.2594H37.0466C37.2131 33.2594 37.3933 33.2368 37.3933 32.9541V30.6135C37.3933 30.3761 37.2131 30.3535 37.0466 30.3535H36.9826V30.2165C37.2259 30.2165 37.4662 30.2343 37.7096 30.2343C37.9529 30.2343 38.1745 30.2165 38.4099 30.2165V30.3535H38.2947C38.1193 30.3535 37.9824 30.3535 37.9824 30.5997V32.9501" fill="#1A1918"/>
<path d="M39.4108 33.417C39.0049 33.417 38.5991 33.3983 38.1952 33.3983C37.7913 33.3983 37.3855 33.417 36.9786 33.417H36.9589V33.2397H37.0466C37.2131 33.2397 37.3707 33.224 37.3727 32.954V30.6135C37.3727 30.3919 37.2131 30.3771 37.0466 30.3741H36.9629V30.1978H36.9826C37.2279 30.1978 37.4672 30.2155 37.7105 30.2155C37.9538 30.2155 38.1745 30.1978 38.4109 30.1978H38.4257V30.3741H38.2917C38.1134 30.3741 38.0021 30.3741 37.9962 30.6007V32.9511C37.9962 33.1215 38.1105 33.1668 38.2543 33.1875C38.3351 33.1934 38.4208 33.1964 38.5094 33.1964C38.6259 33.1965 38.7423 33.1906 38.8581 33.1786C39.0268 33.1586 39.1807 33.0729 39.2867 32.9403C39.3511 32.842 39.3981 32.7334 39.4256 32.6191V32.6043H39.6078V32.628C39.5556 32.888 39.4925 33.1422 39.4364 33.4023V33.418L39.4108 33.417ZM39.394 33.3776C39.4472 33.1304 39.5073 32.8851 39.5576 32.6428H39.459C39.4305 32.7568 39.3825 32.8651 39.3172 32.9629C39.2044 33.1041 39.0406 33.1954 38.8611 33.2171C38.7409 33.2289 38.6207 33.2358 38.5084 33.2358C38.4188 33.2358 38.3331 33.2358 38.2494 33.2259C38.0996 33.2102 37.9539 33.1461 37.9539 32.9511V30.5997C37.9539 30.3466 38.1154 30.3337 38.2878 30.3337H38.3863V30.2352C38.1597 30.2352 37.9361 30.254 37.7066 30.254C37.4771 30.254 37.2357 30.2372 36.9993 30.2352V30.3337H37.0466C37.2111 30.3337 37.4121 30.3623 37.4121 30.6135V32.956C37.4121 33.2515 37.215 33.2811 37.0466 33.2811H37.0023V33.3796C37.3963 33.3796 37.7982 33.3619 38.1982 33.3619C38.5981 33.3619 38.998 33.3786 39.397 33.3796L39.394 33.3776Z" fill="#1A1918"/>
<path d="M39.5252 30.0875C39.6199 30.0885 39.7121 30.1174 39.7903 30.1706C39.8685 30.2239 39.9292 30.2991 39.9648 30.3868C40.0004 30.4745 40.0093 30.5707 39.9903 30.6634C39.9713 30.7561 39.9253 30.8412 39.8581 30.9078C39.791 30.9744 39.7056 31.0197 39.6127 31.0379C39.5198 31.0562 39.4237 31.0465 39.3363 31.0102C39.2489 30.9739 39.1742 30.9126 39.1216 30.8339C39.069 30.7553 39.0408 30.6628 39.0406 30.5682C39.0396 30.5045 39.0516 30.4412 39.0756 30.3822C39.0997 30.3232 39.1354 30.2697 39.1807 30.2248C39.2259 30.1799 39.2798 30.1446 39.339 30.121C39.3982 30.0974 39.4615 30.086 39.5252 30.0875ZM39.5252 30.9573C39.6036 30.9593 39.6807 30.9378 39.7468 30.8957C39.8128 30.8536 39.8649 30.7928 39.8962 30.721C39.9276 30.6492 39.9368 30.5697 39.9227 30.4926C39.9086 30.4155 39.8719 30.3444 39.8172 30.2883C39.7625 30.2322 39.6923 30.1937 39.6157 30.1777C39.539 30.1617 39.4592 30.1689 39.3867 30.1984C39.3141 30.2279 39.252 30.2784 39.2082 30.3434C39.1645 30.4084 39.1411 30.4849 39.1411 30.5633C39.1403 30.6144 39.1496 30.6652 39.1685 30.7127C39.1874 30.7602 39.2155 30.8035 39.2512 30.8401C39.2869 30.8768 39.3295 30.906 39.3765 30.9261C39.4236 30.9462 39.4741 30.9568 39.5252 30.9573ZM39.2839 30.8214V30.7977C39.343 30.7889 39.3538 30.7908 39.3538 30.7554V30.3997C39.3538 30.3495 39.3489 30.3328 39.2849 30.3357V30.3111H39.5331C39.6188 30.3111 39.6966 30.3515 39.6966 30.4392C39.6963 30.4725 39.6849 30.5049 39.6642 30.5311C39.6436 30.5573 39.6148 30.5759 39.5824 30.584L39.6622 30.6943C39.6917 30.7372 39.7275 30.7754 39.7685 30.8076V30.8223H39.67C39.6247 30.8223 39.5843 30.7238 39.4957 30.6017H39.4425V30.7603C39.4425 30.7918 39.4533 30.7898 39.5134 30.7987V30.8223L39.2839 30.8214ZM39.4474 30.5682H39.5095C39.5725 30.5682 39.6011 30.5219 39.6011 30.446C39.6025 30.4328 39.6009 30.4193 39.5964 30.4068C39.592 30.3942 39.5848 30.3827 39.5753 30.3733C39.5659 30.3639 39.5544 30.3567 39.5419 30.3522C39.5293 30.3477 39.5159 30.3461 39.5026 30.3475H39.4484V30.5731L39.4474 30.5682Z" fill="#1A1918"/>
<path d="M10.7708 14.1293C10.7548 12.5839 11.1984 11.0685 12.0454 9.77577C12.8923 8.483 14.1043 7.4711 15.5275 6.86856C16.9508 6.26603 18.5209 6.10006 20.0386 6.39172C21.5564 6.68338 22.9532 7.41951 24.0517 8.50664C25.1502 9.59376 25.9008 10.9828 26.2083 12.4974C26.5157 14.012 26.3661 15.5839 25.7784 17.0133C25.1908 18.4427 24.1915 19.6652 22.9077 20.5255C21.6238 21.3859 20.1132 21.8453 18.5677 21.8454C17.5491 21.8507 16.5394 21.6553 15.5963 21.2704C14.6532 20.8855 13.7952 20.3186 13.0712 19.6021C12.3471 18.8856 11.7714 18.0335 11.3767 17.0945C10.982 16.1554 10.7761 15.1479 10.7708 14.1293Z" fill="white"/>
<path d="M23.2833 13.9815C23.2796 13.04 22.9898 12.1219 22.4523 11.3488C21.9149 10.5758 21.1551 9.98442 20.2739 9.65309V18.3099C21.1551 17.9786 21.9149 17.3872 22.4523 16.6142C22.9898 15.8411 23.2796 14.923 23.2833 13.9815ZM16.9187 18.308V9.65407C16.0357 9.98221 15.2742 10.5726 14.7365 11.3461C14.1988 12.1196 13.9106 13.039 13.9106 13.981C13.9106 14.923 14.1988 15.8425 14.7365 16.6159C15.2742 17.3894 16.0357 17.9798 16.9187 18.308ZM18.5933 6.66437C17.1497 6.67953 15.7429 7.12144 14.5499 7.93447C13.357 8.7475 12.4312 9.89529 11.8892 11.2334C11.3472 12.5714 11.2132 14.0399 11.504 15.454C11.7948 16.8681 12.4975 18.1645 13.5236 19.18C14.5497 20.1956 15.8533 20.8849 17.2703 21.1611C18.6873 21.4373 20.1543 21.2882 21.4867 20.7324C22.8191 20.1766 23.9573 19.2391 24.758 18.0378C25.5587 16.8365 25.986 15.4252 25.9863 13.9815C25.9762 12.0309 25.1916 10.1641 23.8051 8.79192C22.4187 7.41971 20.544 6.65442 18.5933 6.66437ZM18.5756 21.9862C16.4463 22.0112 14.3937 21.1918 12.8671 19.7071C11.3406 18.2224 10.4643 16.1935 10.43 14.0643C10.4115 12.9934 10.6102 11.9299 11.0141 10.938C11.418 9.94601 12.0187 9.0462 12.7799 8.29285C13.5412 7.53949 14.4473 6.94822 15.4434 6.55473C16.4395 6.16123 17.505 5.97368 18.5756 6.00339H20.6699C21.7552 5.97221 22.8359 6.1566 23.8495 6.54589C24.863 6.93518 25.7893 7.52163 26.5747 8.27131C27.3601 9.02098 27.989 9.91898 28.4251 10.9133C28.8611 11.9077 29.0956 12.9787 29.1149 14.0643C29.1149 18.4232 25.085 21.9862 20.6699 21.9862H18.5756Z" fill="#0069AA"/>
</svg>
