<svg width="40" height="40" viewBox="0 0 40 40" fill="none" xmlns="http://www.w3.org/2000/svg">
<path fill-rule="evenodd" clip-rule="evenodd" d="M21.1686 21.6333C20.5495 22.8683 19.4895 23.6633 18.3411 23.9317C18.1678 23.9317 17.902 24.0191 17.6361 24.0191C15.6953 24.0191 14.5478 22.5175 14.5478 20.3108C14.5478 17.4825 16.2245 16.16 18.3411 15.5392C19.4895 15.275 20.8161 15.1858 22.1395 15.1858V16.2467C22.1395 18.2775 22.227 19.8658 21.1686 21.6333ZM22.1395 11.1267C20.992 11.2142 19.6653 11.3017 18.3411 11.475C16.312 11.7433 14.2828 12.0967 12.6078 12.8917C9.34114 14.2167 7.13281 17.0417 7.13281 21.1908C7.13281 26.405 10.4861 29.0516 14.727 29.0516C16.1378 29.0516 17.2853 28.8733 18.3411 28.6116C20.0228 28.08 21.432 27.1083 23.1086 25.3408C24.0803 26.6658 24.3478 27.2866 26.0228 28.6991C26.4645 28.8733 26.9061 28.8733 27.257 28.6116C28.3178 27.7266 30.1736 26.1367 31.1428 25.2533C31.5845 24.9008 31.4978 24.37 31.2295 23.9317C30.2603 22.6942 29.287 21.6333 29.287 19.2492V11.3008C29.287 7.94583 29.5553 4.85416 27.0828 2.56C25.0536 0.708333 21.8745 0 19.402 0H18.3411C13.8428 0.260833 9.07781 2.205 8.01448 7.76916C7.83781 8.47749 8.36948 8.74083 8.72281 8.82749L13.6661 9.44666C14.1953 9.35749 14.4611 8.91499 14.5478 8.47749C14.9878 6.53416 16.5778 5.5625 18.3411 5.38333H18.697C19.757 5.38333 20.9053 5.82583 21.5211 6.71083C22.227 7.76916 22.1395 9.18333 22.1395 10.4208V11.1267Z" fill="#343B45"/>
<path fill-rule="evenodd" clip-rule="evenodd" d="M39.995 29.9546V29.953C39.9767 29.5363 39.8892 29.2188 39.7158 28.9546L39.6967 28.9296L39.6758 28.903C39.4992 28.7105 39.33 28.6371 39.1467 28.5571C38.5983 28.3455 37.8008 28.2321 36.8417 28.2305C36.1525 28.2305 35.3925 28.2963 34.6283 28.4638L34.6258 28.4113L33.8567 28.668L33.8425 28.6746L33.4075 28.8163V28.8346C32.9102 29.041 32.4391 29.3056 32.0042 29.623C31.7358 29.823 31.515 30.0896 31.5025 30.4963C31.5025 30.6155 31.5286 30.7332 31.579 30.8412C31.6294 30.9492 31.7028 31.0448 31.7942 31.1213C31.8941 31.201 32.0094 31.2593 32.1328 31.2925C32.2563 31.3258 32.3852 31.3333 32.5117 31.3146L32.5492 31.313L32.5775 31.308C32.9542 31.228 33.5025 31.1738 34.1442 31.0846C34.6942 31.023 35.2775 30.9788 35.7833 30.9788C36.1408 30.9763 36.4625 31.0021 36.6833 31.0488C36.7784 31.0661 36.8704 31.097 36.9567 31.1405C36.974 31.213 36.981 31.2876 36.9775 31.3621C36.9825 31.7855 36.8042 32.5713 36.5567 33.3388C36.3167 34.1055 36.025 34.8746 35.8325 35.3855C35.782 35.5087 35.7557 35.6406 35.755 35.7738C35.75 35.9788 35.835 36.228 36.0133 36.393C36.1883 36.5571 36.4133 36.623 36.6017 36.623H36.6108C36.8933 36.6205 37.1333 36.508 37.34 36.3455C39.2925 34.5905 39.9717 31.7855 40 30.2063L39.995 29.9546ZM34.2075 32.388C34.0017 32.3872 33.7983 32.4328 33.6125 32.5213C33.3983 32.6063 33.1792 32.7055 32.9725 32.793L32.6692 32.9196L32.2742 33.078V33.0821C27.9825 34.8238 23.4742 35.8446 19.3017 35.9338C19.1483 35.9388 18.9933 35.9388 18.845 35.9388C12.2834 35.943 6.93085 32.8988 1.53086 29.8988C1.35557 29.8031 1.1597 29.7514 0.960026 29.748C0.717526 29.748 0.468359 29.8396 0.286693 30.0088C0.195852 30.0953 0.123585 30.1994 0.0742984 30.3147C0.0250122 30.43 -0.000259187 30.5542 2.62e-05 30.6796C-0.0024738 31.0063 0.174193 31.308 0.420859 31.503C5.48919 35.9055 11.0442 39.9946 18.5167 39.9996C18.6625 39.9996 18.8108 39.9946 18.9583 39.993C23.7117 39.8863 29.0858 38.2796 33.2583 35.6588L33.2833 35.6421C33.8431 35.3081 34.3798 34.937 34.89 34.5313C35.21 34.2938 35.4317 33.9221 35.4317 33.5363C35.4175 32.8513 34.8358 32.388 34.2083 32.388H34.2075Z" fill="#FF9A00"/>
</svg>
