<svg width="40" height="40" viewBox="0 0 40 40" fill="none" xmlns="http://www.w3.org/2000/svg">
<path d="M40 20.4565C40 18.9947 39.8664 17.5959 39.6184 16.2508H20.4258V23.957L31.4792 23.9594C31.0309 26.5234 29.5881 28.7092 27.3774 30.1664V35.1661H33.957C37.7988 31.6843 40 26.5375 40 20.4565Z" fill="#4285F4"/>
<path d="M27.3798 30.1664C25.5483 31.376 23.1897 32.0836 20.4305 32.0836C15.1006 32.0836 10.5791 28.5668 8.95979 23.8263H2.17273V28.9824C5.53526 35.5164 12.4463 40 20.4305 40C25.9489 40 30.5849 38.2229 33.9594 35.1638L27.3798 30.1664Z" fill="#34A853"/>
<path d="M8.32047 20.0012C8.32047 18.6701 8.54702 17.3834 8.95958 16.1737V11.0176H2.17252C0.782202 13.7194 0 16.7692 0 20.0012C0 23.2331 0.784586 26.2829 2.17252 28.9848L8.95958 23.8286C8.54702 22.619 8.32047 21.3322 8.32047 20.0012Z" fill="#FABB05"/>
<path d="M20.4305 7.9164C23.4425 7.9164 26.1397 8.93222 28.2693 10.9172L34.1001 5.21222C30.5587 1.98261 25.9418 4.76837e-06 20.4305 4.76837e-06C12.4487 4.76837e-06 5.53526 4.48363 2.17273 11.0176L8.95979 16.1737C10.579 11.4332 15.1006 7.9164 20.4305 7.9164Z" fill="#E94235"/>
</svg>
