<svg width="40" height="40" viewBox="0 0 40 40" fill="none" xmlns="http://www.w3.org/2000/svg">
<path fill-rule="evenodd" clip-rule="evenodd" d="M2.66667 29V26.4723C2.80339 26.5111 2.93802 26.5578 3.06984 26.6124C3.5147 26.7967 3.91891 27.0668 4.25939 27.4073C4.59987 27.7478 4.86996 28.152 5.05423 28.5968C5.10883 28.7286 5.15558 28.8633 5.19434 29H2.66667ZM4.09033 24.1488C3.63207 23.9589 3.15419 23.8241 2.66667 23.7461V16.2539C3.15419 16.1759 3.63207 16.0411 4.09033 15.8512C4.85872 15.533 5.55691 15.0664 6.14501 14.4783C6.73311 13.8902 7.19962 13.1921 7.5179 12.4237C7.70772 11.9654 7.8426 11.4875 7.92055 11H32.0794C32.1574 11.4875 32.2923 11.9654 32.4821 12.4237C32.8004 13.1921 33.2669 13.8902 33.855 14.4783C34.4431 15.0664 35.1413 15.533 35.9097 15.8512C36.3679 16.0411 36.8458 16.1759 37.3333 16.2539V23.7461C36.8458 23.8241 36.3679 23.9589 35.9097 24.1488C35.1413 24.467 34.4431 24.9336 33.855 25.5217C33.2669 26.1098 32.8004 26.8079 32.4821 27.5763C32.2923 28.0346 32.1574 28.5125 32.0794 29H7.92055C7.8426 28.5125 7.70772 28.0346 7.5179 27.5763C7.19962 26.8079 6.73311 26.1098 6.14501 25.5217C5.55691 24.9336 4.85872 24.467 4.09033 24.1488ZM34.8057 29H37.3333V26.4723C37.1966 26.5111 37.062 26.5578 36.9302 26.6124C36.4853 26.7967 36.0811 27.0668 35.7406 27.4073C35.4001 27.7478 35.13 28.152 34.9458 28.5968C34.8912 28.7286 34.8444 28.8633 34.8057 29ZM37.3333 13.5277V11H34.8057C34.8444 11.1367 34.8912 11.2713 34.9458 11.4032C35.13 11.848 35.4001 12.2522 35.7406 12.5927C36.0811 12.9332 36.4853 13.2033 36.9302 13.3876C37.062 13.4422 37.1966 13.4889 37.3333 13.5277ZM3.06984 13.3876C2.93802 13.4422 2.80339 13.4889 2.66667 13.5277V11H5.19434C5.15558 11.1367 5.10883 11.2713 5.05423 11.4032C4.86996 11.848 4.59987 12.2522 4.25939 12.5927C3.91891 12.9332 3.5147 13.2033 3.06984 13.3876ZM0 10C0 9.07952 0.746192 8.33333 1.66667 8.33333H38.3333C39.2538 8.33333 40 9.07952 40 10V30C40 30.9205 39.2538 31.6667 38.3333 31.6667H1.66667C0.746193 31.6667 0 30.9205 0 30V10ZM23.1667 20C23.1667 22.5548 21.4256 24 20 24C18.5744 24 16.8333 22.5548 16.8333 20C16.8333 17.4452 18.5744 16 20 16C21.4256 16 23.1667 17.4452 23.1667 20ZM25.8333 20C25.8333 23.6819 23.2217 26.6667 20 26.6667C16.7783 26.6667 14.1667 23.6819 14.1667 20C14.1667 16.3181 16.7783 13.3333 20 13.3333C23.2217 13.3333 25.8333 16.3181 25.8333 20Z" fill="#1D0A43"/>
</svg>
