<svg width="40" height="40" viewBox="0 0 40 40" fill="none" xmlns="http://www.w3.org/2000/svg">
<path fill-rule="evenodd" clip-rule="evenodd" d="M20.687 17.4757C20.6642 19.4259 22.2906 20.5142 23.5157 21.1612C24.7745 21.8252 25.1973 22.2509 25.1925 22.8445C25.1829 23.7532 24.1883 24.1542 23.2575 24.1698C21.6335 24.1971 20.6894 23.6946 19.9387 23.3145L19.3538 26.2813C20.1069 26.6576 21.5014 26.9857 22.9476 27C26.342 27 28.5628 25.1839 28.5749 22.3681C28.5881 18.7946 24.0142 18.5966 24.0454 16.9993C24.0562 16.515 24.4826 15.9981 25.4171 15.8667C25.8795 15.8003 27.1563 15.7495 28.6037 16.472L29.1718 13.6015C28.3935 13.2943 27.3929 13 26.1474 13C22.9524 13 20.7051 14.8408 20.687 17.4757ZM34.631 13.2473C34.0112 13.2473 33.4887 13.6393 33.2557 14.2407L28.4067 26.7891H31.7987L32.4737 24.7673H36.6188L37.0104 26.7891H40L37.3911 13.2473H34.631ZM35.1054 16.9055L36.0843 21.9905H33.4034L35.1054 16.9055ZM16.5744 13.2473L13.9007 26.7891H17.1329L19.8054 13.2473H16.5744ZM11.7927 13.2473L8.4283 22.4643L7.0674 14.6273C6.9077 13.7525 6.2771 13.2473 5.5768 13.2473H0.0768997L0 13.6406C1.1291 13.9061 2.4119 14.3344 3.189 14.7927C3.6646 15.0725 3.8004 15.3173 3.9565 15.9825L6.5341 26.7891H9.9502L15.1871 13.2473H11.7927Z" fill="#1A1F71"/>
</svg>
