<svg width="40" height="40" viewBox="0 0 40 40" fill="none" xmlns="http://www.w3.org/2000/svg">
<path d="M2.49997 5.62441H37.5C38.8801 5.62441 40 6.74435 40 8.12561V31.8756C40 33.2556 38.8801 34.3756 37.5 34.3756H2.49997C1.11871 34.3757 0 33.2556 0 31.8758V8.12561C0 6.74435 1.11995 5.62441 2.49997 5.62441Z" fill="#26A6D1"/>
<path d="M6.44998 15.6244L2.49994 24.3657H7.22869L7.81492 22.972H9.15491L9.74113 24.3657H14.9462V23.302L15.41 24.3657H18.1024L18.5662 23.2795V24.3657H29.3913L30.7075 23.0082L31.94 24.3657L37.5 24.377L33.5375 20.0195L37.5 15.6244H32.0263L30.745 16.9569L29.5513 15.6244H17.775L16.7638 17.8806L15.7288 15.6244H11.01V16.652L10.485 15.6244C10.485 15.6244 6.44998 15.6244 6.44998 15.6244ZM7.36497 16.8657H9.66998L12.29 22.7932V16.8657H14.8151L16.8388 21.1157L18.7039 16.8657H21.2163V23.1382H19.6875L19.6751 18.2231L17.4463 23.1382H16.0787L13.8375 18.2231V23.1382H10.6924L10.0962 21.7319H6.87498L6.27998 23.1369H4.59492L7.36497 16.8657ZM22.615 16.8657H28.8312L30.7325 18.9194L32.695 16.8657H34.5963L31.7075 20.0182L34.5963 23.1344H32.6088L30.7075 21.0569L28.735 23.1344H22.615V16.8657ZM8.48628 17.927L7.42501 20.432H9.54632L8.48628 17.927ZM24.15 18.1644V19.3094H27.5413V20.5857H24.15V21.8357H27.9538L29.7213 19.9945L28.0288 18.1633H24.15V18.1644Z" fill="white"/>
</svg>
