<svg width="40" height="40" viewBox="0 0 40 40" fill="none" xmlns="http://www.w3.org/2000/svg">
<path d="M0.0410156 31.8451V26.0523H1.81933C3.1119 26.0523 3.94343 26.5405 3.94343 27.5501C3.94343 28.1212 3.67998 28.5184 3.30949 28.7501C3.84462 28.9983 4.15747 29.4783 4.15747 30.1321C4.15747 31.299 3.30949 31.8451 1.99222 31.8451H0.0410156ZM1.18539 28.4604H2.03339C2.55205 28.4604 2.77436 28.2039 2.77436 27.7322C2.77436 27.2274 2.37093 27.0619 1.82755 27.0619H1.18539L1.18539 28.4604ZM1.18539 30.8355H1.89342C2.58499 30.8355 2.9884 30.6617 2.9884 30.1156C2.9884 29.5776 2.64263 29.3542 1.99222 29.3542H1.18539L1.18539 30.8355ZM6.37672 31.9444C5.2488 31.9444 4.68072 31.39 4.68072 30.6452C4.68072 29.8259 5.3476 29.3459 6.33555 29.3376C6.58105 29.3421 6.82591 29.3643 7.06827 29.4039V29.2052C7.06827 28.7004 6.78012 28.4604 6.22852 28.4604C5.85693 28.4557 5.48793 28.5232 5.14176 28.6591L4.93595 27.7653C5.28996 27.6163 5.85804 27.517 6.36025 27.517C7.57048 27.517 8.17148 28.1625 8.17148 29.2797V31.5803C7.83394 31.7541 7.2 31.9444 6.37672 31.9444H6.37672ZM7.06827 31.0093V30.1238C6.87633 30.0809 6.68038 30.0587 6.48375 30.0576C6.10502 30.0576 5.80864 30.2066 5.80864 30.5955C5.80864 30.9431 6.05563 31.1252 6.49197 31.1252C6.69039 31.1317 6.88761 31.092 7.06827 31.0093H7.06827ZM8.97137 31.8451V27.8811C9.56301 27.6423 10.1944 27.5187 10.832 27.517C12.034 27.517 12.7256 28.1128 12.7256 29.2135V31.8451H11.5894V29.2963C11.5894 28.7252 11.326 28.4604 10.8238 28.4604C10.5744 28.4569 10.3272 28.5077 10.0993 28.6094V31.8451L8.97137 31.8451ZM16.696 27.7653L16.482 28.6673C16.1878 28.5392 15.872 28.469 15.5516 28.4604C14.8848 28.4604 14.5225 28.9321 14.5225 29.7101C14.5225 30.5624 14.9012 31.001 15.6093 31.001C15.9253 30.9923 16.2362 30.9191 16.5231 30.7859L16.7042 31.7045C16.3315 31.8712 15.9266 31.9531 15.5187 31.9444C14.152 31.9444 13.3617 31.0921 13.3617 29.7431C13.3617 28.4025 14.1438 27.517 15.4529 27.517C15.8796 27.5149 16.3025 27.5994 16.696 27.7653L16.696 27.7653ZM19.1504 31.9444C17.8826 31.9444 17.0922 31.0589 17.0922 29.7266C17.0922 28.4025 17.8826 27.517 19.1504 27.517C20.4265 27.517 21.2004 28.4025 21.2004 29.7266C21.2004 31.0589 20.4265 31.9444 19.1504 31.9444ZM19.1504 31.001C19.735 31.001 20.0396 30.5128 20.0396 29.7266C20.0396 28.9487 19.735 28.4604 19.1504 28.4604C18.5741 28.4604 18.2531 28.9487 18.2531 29.7266C18.2531 30.5128 18.5741 31.001 19.1504 31.001ZM21.8579 31.8451V27.8811C22.4495 27.6423 23.081 27.5187 23.7186 27.517C24.9205 27.517 25.6121 28.1128 25.6121 29.2135V31.8451H24.476V29.2963C24.476 28.7252 24.2125 28.4604 23.7103 28.4604C23.4609 28.4569 23.2138 28.5077 22.9858 28.6094V31.8451L21.8579 31.8451ZM28.1744 31.9444C27.1947 31.9444 26.6925 31.4065 26.6925 30.3141V28.5266H26.1326V27.6163H26.6925V26.6977L27.8286 26.6398V27.6163H28.7425V28.5266H27.8286V30.2976C27.8286 30.7776 28.0262 31.001 28.3967 31.001C28.5435 31.0007 28.6898 30.984 28.833 30.9514L28.8907 31.87C28.6555 31.9223 28.4152 31.9473 28.1744 31.9444ZM31.0421 31.9444C29.9142 31.9444 29.3461 31.39 29.3461 30.6452C29.3461 29.8259 30.013 29.3459 31.0009 29.3376C31.2464 29.3421 31.4913 29.3643 31.7337 29.4039V29.2052C31.7337 28.7004 31.4455 28.4604 30.8939 28.4604C30.5223 28.4557 30.1533 28.5232 29.8072 28.6591L29.6013 27.7653C29.9553 27.6163 30.5234 27.517 31.0256 27.517C32.2359 27.517 32.8369 28.1625 32.8369 29.2797V31.5803C32.4993 31.7541 31.8654 31.9444 31.0421 31.9444ZM31.7337 31.0093V30.1238C31.5417 30.0809 31.3458 30.0587 31.1491 30.0576C30.7704 30.0576 30.474 30.2066 30.474 30.5955C30.474 30.9431 30.721 31.1252 31.1574 31.1252C31.3558 31.1317 31.553 31.092 31.7337 31.0093ZM36.724 27.7653L36.51 28.6673C36.2159 28.5392 35.9001 28.469 35.5797 28.4604C34.9128 28.4604 34.5505 28.9321 34.5505 29.7101C34.5505 30.5624 34.9292 31.001 35.6373 31.001C35.9533 30.9923 36.2642 30.9191 36.5511 30.7859L36.7323 31.7045C36.3595 31.8712 35.9547 31.9531 35.5467 31.9444C34.18 31.9444 33.3897 31.0921 33.3897 29.7431C33.3897 28.4025 34.1718 27.517 35.4808 27.517C35.9076 27.5149 36.3305 27.5994 36.724 27.7653ZM39.222 31.9444C38.2422 31.9444 37.74 31.4065 37.74 30.3141V28.5266H37.1802V27.6163H37.74V26.6977L38.8762 26.6398V27.6163H39.79V28.5266H38.8762V30.2976C38.8762 30.7776 39.0738 31.001 39.4442 31.001C39.5911 31.0007 39.7374 30.984 39.8806 30.9514L39.9382 31.87C39.7031 31.9223 39.4628 31.9473 39.222 31.9444Z" fill="#1E3764"/>
<path d="M7.96585 23.1558C13.9777 23.1558 16.9837 19.1272 19.9896 15.0985H0.0410156V23.1558H7.96585Z" fill="url(#paint0_linear_15038_232692)"/>
<path d="M32.0134 7.04115C26.0015 7.04115 22.9956 11.0698 19.9896 15.0985H39.9382V7.04115H32.0134Z" fill="url(#paint1_linear_15038_232692)"/>
<defs>
<linearGradient id="paint0_linear_15038_232692" x1="4.07599" y1="19.4991" x2="18.6874" y2="14.1" gradientUnits="userSpaceOnUse">
<stop stop-color="#005AB9"/>
<stop offset="1" stop-color="#1E3764"/>
</linearGradient>
<linearGradient id="paint1_linear_15038_232692" x1="21.1975" y1="15.7973" x2="36.7091" y2="10.5324" gradientUnits="userSpaceOnUse">
<stop stop-color="#FBA900"/>
<stop offset="1" stop-color="#FFD800"/>
</linearGradient>
</defs>
</svg>
