<svg width="40" height="40" viewBox="0 0 40 40" fill="none" xmlns="http://www.w3.org/2000/svg">
<path d="M26.4432 6.41002C25.0036 8.0894 22.7003 9.41398 20.397 9.22475C20.1091 6.95404 21.2367 4.54142 22.5563 3.05126C23.9959 1.32458 26.5152 0.0946128 28.5545 0C28.7945 2.36532 27.8587 4.68334 26.4432 6.41002ZM28.5305 9.67416C25.1956 9.48494 22.3404 11.5428 20.7569 11.5428C19.1494 11.5428 16.7261 9.76878 14.0869 9.81608C10.6559 9.86339 7.46488 11.7793 5.71341 14.8306C2.11449 20.9331 4.77769 29.9686 8.25664 34.9358C9.96013 37.3957 11.9995 40.0922 14.6867 39.9976C17.2299 39.903 18.2376 38.3655 21.3087 38.3655C24.4038 38.3655 25.2915 39.9976 27.9787 39.9503C30.7619 39.903 32.5133 37.4903 34.2168 35.0304C36.1603 32.2393 36.952 29.5192 37 29.3773C36.952 29.33 31.6256 27.3195 31.5776 21.2642C31.5296 16.2024 35.7764 13.7898 35.9683 13.6479C33.569 10.1472 29.8262 9.76878 28.5305 9.67416Z" fill="black"/>
</svg>
