<svg width="40" height="40" viewBox="0 0 40 40" fill="none" xmlns="http://www.w3.org/2000/svg">
<path d="M37.6909 7.00545H27.9262H27.9015C27.1708 7.04209 26.4669 7.29153 25.8773 7.72279C25.2878 8.15405 24.8385 8.74814 24.5852 9.43131L19.9693 29.7119C19.8811 29.997 19.8623 30.2989 19.9147 30.5927C19.967 30.8864 20.0888 31.1635 20.2702 31.401C20.4515 31.6386 20.6871 31.8297 20.9574 31.9586C21.2277 32.0875 21.525 32.1505 21.8246 32.1423H32.0812C32.755 32.086 33.3945 31.8226 33.9114 31.3887C34.4282 30.9547 34.7967 30.3716 34.9659 29.7201L39.5836 9.43767C39.6731 9.14941 39.6916 8.84394 39.6375 8.54708C39.5834 8.25021 39.4583 7.97066 39.2728 7.73204C39.0872 7.49342 38.8467 7.30275 38.5716 7.17613C38.2964 7.04951 37.9946 6.99065 37.6918 7.00454" fill="#01798A"/>
<path d="M19.9693 29.7119L24.587 9.4295C24.8403 8.74633 25.2896 8.15224 25.8792 7.72098C26.4687 7.28972 27.1726 7.04028 27.9033 7.00364H24.0212H17.0271C16.2916 7.03562 15.5819 7.28333 14.9875 7.71561C14.393 8.14789 13.9402 8.74545 13.6861 9.43314L9.06659 29.7119C8.97838 29.997 8.95963 30.2988 9.0119 30.5924C9.06418 30.8861 9.18596 31.1631 9.36719 31.4007C9.54841 31.6382 9.78386 31.8293 10.0541 31.9583C10.3242 32.0873 10.6214 32.1504 10.921 32.1423H21.8246C21.525 32.1505 21.2277 32.0875 20.9574 31.9586C20.6871 31.8297 20.4515 31.6386 20.2702 31.401C20.0888 31.1635 19.967 30.8864 19.9146 30.5927C19.8623 30.2989 19.8811 29.997 19.9693 29.7119Z" fill="#024381"/>
<path d="M9.06657 29.7119L13.6852 9.4295C13.9393 8.74181 14.3921 8.14425 14.9865 7.71197C15.581 7.27969 16.2906 7.03198 17.0262 7H8.06638C7.32179 7.02262 6.60093 7.26592 5.99613 7.69875C5.39133 8.13157 4.93011 8.73422 4.67154 9.4295L0.0529298 29.7119C0.0264843 29.8316 0.0087949 29.953 0 30.0752V30.4512C0.037571 30.9234 0.256974 31.3628 0.612388 31.6777C0.967802 31.9927 1.43174 32.1588 1.90731 32.1414H10.921C10.6214 32.1494 10.3242 32.0864 10.054 31.9574C9.78384 31.8284 9.54839 31.6373 9.36717 31.3997C9.18595 31.1622 9.06416 30.8852 9.01189 30.5915C8.95962 30.2979 8.97836 29.996 9.06657 29.711" fill="#DD0228"/>
<path d="M17.216 21.7759H17.3858C17.4469 21.7838 17.509 21.7733 17.5642 21.7458C17.6193 21.7182 17.6649 21.675 17.6951 21.6215L18.1359 20.9666H19.3159L19.0695 21.3971H20.484L20.3015 22.0565H18.625C18.5552 22.1845 18.4509 22.2906 18.3239 22.3629C18.1969 22.4352 18.0522 22.471 17.9059 22.4661H17.0289L17.2197 21.7759H17.216ZM17.0225 22.7213H20.1253L19.9282 23.4379H18.6771L18.4872 24.1372H19.7001L19.503 24.8538H18.2892L18.0072 25.8756C17.9379 26.0463 18.0291 26.1235 18.281 26.1063H19.2693L19.0868 26.772H17.1886C16.8291 26.772 16.7056 26.5673 16.8181 26.158L17.1786 24.8538H16.4029L16.6009 24.1372H17.3766L17.5664 23.4452H16.8254L17.0225 22.7286V22.7213ZM21.9697 20.9612L21.9213 21.3808C22.2475 21.1388 22.6329 20.9883 23.0374 20.9448H24.9995L24.2493 23.6414C24.1885 23.9495 23.9217 24.1033 23.449 24.1027H21.2232L20.7021 25.9964C20.672 26.0981 20.7149 26.1499 20.8271 26.1499H21.2643L21.1036 26.7375H19.9939C19.5681 26.7375 19.3901 26.6097 19.4601 26.3542L20.9321 20.9612H21.9697ZM23.6315 21.7232H21.8793L21.6694 22.4498C21.9036 22.3061 22.1737 22.2312 22.4488 22.2336C22.9352 22.2263 23.4901 22.2336 23.4901 22.2336L23.6306 21.7223L23.6315 21.7232ZM22.9927 23.4116C23.1223 23.4288 23.1944 23.378 23.2035 23.2581L23.3103 22.8748H21.5599L21.413 23.4116H22.9927ZM21.8063 24.2826H22.823L22.8038 24.7167H23.073C23.209 24.7167 23.2765 24.6731 23.2765 24.5877L23.3559 24.3071H24.1964L24.0842 24.7167C24.0414 24.8802 23.9424 25.0236 23.8043 25.1219C23.6662 25.2201 23.4978 25.267 23.3285 25.2544H22.7901V25.9964C22.7801 26.1154 22.8887 26.178 23.1113 26.178H23.6178L23.4545 26.7656H22.2389C21.8985 26.782 21.7315 26.6203 21.7352 26.2788L21.8127 24.2807L21.8063 24.2826Z" fill="white"/>
<path d="M9.56216 17.3719C9.45544 17.988 9.11626 18.5403 8.61398 18.9159C8.05886 19.2934 7.39574 19.4817 6.72401 19.4526C6.43376 19.4778 6.14143 19.4418 5.8661 19.3469C5.59077 19.2521 5.33861 19.1006 5.12607 18.9023C4.88565 18.6278 4.75936 18.2725 4.7729 17.9087C4.77462 17.7285 4.7948 17.5489 4.83313 17.3728L5.65446 13.4375H6.89649L6.0852 17.3256C6.06198 17.4232 6.05065 17.5232 6.05144 17.6235C6.04269 17.7993 6.0956 17.9726 6.2011 18.1139C6.28984 18.2142 6.40118 18.2922 6.52601 18.3414C6.65084 18.3907 6.78562 18.4098 6.91931 18.3973C7.25557 18.4116 7.58691 18.3131 7.86019 18.1176C8.11177 17.9213 8.2812 17.6391 8.33564 17.3256L9.14876 13.4348H10.3844L9.56308 17.3701" fill="white"/>
<path d="M14.7758 15.8243H15.7486L14.9866 19.3364H14.0165L14.7767 15.8243H14.7758ZM15.0824 14.5446H16.0634L15.8809 15.3974H14.899L15.0815 14.5446" fill="white"/>
<path d="M16.6091 19.0685C16.4797 18.941 16.3786 18.7879 16.3125 18.6191C16.2463 18.4503 16.2165 18.2695 16.2249 18.0885C16.2253 18.0087 16.2298 17.929 16.2386 17.8496C16.2477 17.7588 16.2596 17.6734 16.2769 17.5935C16.3648 17.0717 16.6249 16.5939 17.0161 16.2357C17.3914 15.9005 17.8809 15.7203 18.385 15.7317C18.5735 15.7214 18.7621 15.7482 18.9401 15.8105C19.1182 15.8729 19.2821 15.9695 19.4226 16.0949C19.552 16.2248 19.6526 16.38 19.7182 16.5508C19.7837 16.7216 19.8127 16.9041 19.8032 17.0867C19.8025 17.1681 19.7976 17.2493 19.7886 17.3301C19.7776 17.4209 19.7639 17.5072 19.7484 17.5926C19.6622 18.1084 19.4029 18.58 19.0129 18.9304C18.6372 19.2596 18.1508 19.4363 17.6504 19.4254C17.2707 19.4464 16.898 19.3179 16.6128 19.0676L16.6091 19.0685ZM18.4662 18.3719C18.6617 18.131 18.7879 17.8419 18.8313 17.5354C18.8422 17.4773 18.8523 17.4164 18.8586 17.3537C18.8646 17.2985 18.8676 17.2431 18.8678 17.1875C18.8797 17.0044 18.8198 16.8237 18.7008 16.6835C18.6397 16.6212 18.5658 16.5728 18.4843 16.5415C18.4027 16.5101 18.3153 16.4966 18.228 16.5018C18.1039 16.4981 17.9804 16.5214 17.8663 16.5702C17.7521 16.619 17.6501 16.6921 17.5673 16.7843C17.3687 17.03 17.2398 17.3241 17.1941 17.6362C17.1831 17.6943 17.1749 17.7525 17.1667 17.8097C17.1608 17.8633 17.1583 17.9173 17.1594 17.9713C17.1476 18.1529 17.2075 18.3318 17.3264 18.4699C17.3885 18.5311 17.4629 18.5784 17.5447 18.6087C17.6265 18.6391 17.7138 18.6519 17.801 18.6461C17.925 18.6502 18.0483 18.6273 18.1626 18.5792C18.2768 18.531 18.3792 18.4587 18.4626 18.3673L18.4662 18.3719Z" fill="white"/>
<path d="M26.1083 21.8086L26.3428 20.9912H27.5292L27.4781 21.2918C27.8041 21.1291 28.1573 21.0272 28.5203 20.9912H29.9868L29.7541 21.8086H29.5232L28.4171 25.6721H28.648L28.429 26.4396H28.1981L28.1023 26.7729H26.9543L27.0455 26.4396H24.785L25.0059 25.6721H25.2331L26.3401 21.8086H26.1083ZM27.3859 21.8086L27.0838 22.8539C27.3948 22.7378 27.7168 22.6532 28.0448 22.6014C28.1434 22.2382 28.2711 21.8086 28.2711 21.8086H27.3859ZM26.9442 23.3444L26.6412 24.4397C26.9464 24.2898 27.273 24.1878 27.6095 24.1373C27.7227 23.714 27.8367 23.3453 27.8367 23.3453L26.9442 23.3444ZM27.166 25.6721L27.3932 24.8775H26.508L26.2799 25.6721H27.166ZM30.0324 20.9385H31.1467L31.1941 21.3472C31.1868 21.4507 31.2489 21.5007 31.3767 21.5007H31.5838L31.3849 22.1927H30.5635C30.2505 22.2091 30.0899 22.0901 30.0753 21.8295L30.037 20.9349L30.0324 20.9385ZM29.7057 22.4225H33.3177L33.106 23.1655H31.9589L31.7618 23.8557H32.9098L32.6963 24.5968H31.4186L31.1294 25.0309H31.7554L31.8996 25.901C31.9169 25.9918 31.9908 26.03 32.1259 26.03H32.3203L32.1159 26.7466H31.4278C31.0709 26.7638 30.8866 26.6449 30.872 26.3887L30.7059 25.594L30.1365 26.4396C30.0796 26.5516 29.9897 26.6436 29.8787 26.7032C29.7678 26.7628 29.6412 26.7871 29.5159 26.7729H28.4646L28.669 26.0563H28.9966C29.0648 26.055 29.1317 26.0379 29.192 26.0064C29.2524 25.9748 29.3045 25.9297 29.3443 25.8747L30.2359 24.595H29.087L29.2996 23.8539H30.5462L30.7442 23.1636H29.4967L29.7103 22.4207L29.7057 22.4225Z" fill="white"/>
<path d="M10.7056 15.8225H11.5826L11.4822 16.3302L11.6082 16.1858C11.7385 16.0407 11.8985 15.9251 12.0775 15.8468C12.2565 15.7685 12.4503 15.7292 12.6458 15.7317C12.7954 15.7182 12.9461 15.7403 13.0856 15.796C13.225 15.8517 13.3492 15.9395 13.4479 16.0523C13.5338 16.1821 13.5901 16.329 13.6128 16.4828C13.6355 16.6366 13.6241 16.7934 13.5794 16.9423L13.0966 19.3355H12.195L12.6312 17.1657C12.682 17.0008 12.669 16.8229 12.5947 16.6671C12.5495 16.6092 12.4901 16.5639 12.4221 16.5357C12.3541 16.5076 12.2799 16.4974 12.2068 16.5064C11.9912 16.5007 11.7815 16.5774 11.6209 16.7207C11.453 16.88 11.3418 17.0895 11.3043 17.3174L10.9018 19.3355H9.99835L10.7056 15.8207" fill="white"/>
<path d="M20.7624 15.8225H21.6366L21.5371 16.3302L21.6613 16.1858C21.7916 16.0407 21.9516 15.9251 22.1306 15.8468C22.3096 15.7685 22.5034 15.7292 22.6989 15.7317C22.8484 15.7181 22.999 15.7401 23.1383 15.7958C23.2777 15.8515 23.4017 15.9394 23.5001 16.0523C23.5862 16.182 23.6426 16.3289 23.6653 16.4827C23.688 16.6365 23.6765 16.7934 23.6315 16.9423L23.1506 19.3355H22.2481L22.6843 17.1657C22.7346 17.0008 22.7216 16.8231 22.6478 16.6671C22.6025 16.6094 22.543 16.5643 22.475 16.5361C22.4071 16.508 22.333 16.4977 22.2599 16.5064C22.0441 16.5011 21.8343 16.5777 21.6731 16.7207C21.5047 16.8796 21.3937 17.0893 21.3574 17.3174L20.9531 19.3355H20.0515L20.7587 15.8207" fill="white"/>
<path d="M25.1045 13.6446H27.6524C28.0556 13.6185 28.4551 13.7342 28.7813 13.9715C28.9134 14.0893 29.017 14.2352 29.0843 14.3985C29.1517 14.5618 29.181 14.7381 29.17 14.9143V14.927C29.17 15.0051 29.1646 15.0932 29.1573 15.1876C29.15 15.2821 29.1281 15.3765 29.1071 15.4764C29.0108 15.9895 28.7362 16.4525 28.3314 16.7843C27.928 17.114 27.4196 17.2896 26.8977 17.2793H25.5288L25.1045 19.3373H23.9181L25.0953 13.6446H25.1045ZM25.7341 16.2893H26.8676C27.1177 16.3028 27.3649 16.2311 27.5684 16.0859C27.7523 15.923 27.8738 15.702 27.9125 15.4601C27.9225 15.4083 27.9289 15.3611 27.9362 15.3175C27.9435 15.2739 27.9453 15.2358 27.9453 15.1967C27.952 15.1108 27.9353 15.0247 27.8971 14.9474C27.8589 14.87 27.8006 14.8043 27.7282 14.7571C27.5166 14.6498 27.2796 14.6024 27.0428 14.62H26.0828L25.7378 16.2893" fill="white"/>
<path d="M34.4622 20.0167C34.2282 20.5508 33.911 21.0449 33.5222 21.4807C33.3251 21.7134 33.0746 21.8955 32.7919 22.0115C32.5091 22.1275 32.2025 22.1741 31.8978 22.1473L31.9836 21.5443C32.825 21.2873 33.2795 20.1275 33.535 19.6134L33.2266 15.8325L33.8772 15.8234H34.4248L34.4832 18.1957L35.508 15.8243H36.5438L34.4604 20.0176" fill="white"/>
<path d="M31.5646 16.1095L31.153 16.3901C30.9488 16.1885 30.6829 16.0604 30.3974 16.0258C30.1118 15.9913 29.8229 16.0524 29.5761 16.1994C28.5439 16.6744 27.6815 20.3191 30.5233 19.1184L30.6858 19.3091L31.8037 19.3373L32.5338 16.0259L31.5637 16.1104L31.5646 16.1095ZM30.9249 17.9214C30.7424 18.4472 30.3445 18.7951 30.0296 18.6961C29.7148 18.5971 29.6034 18.0921 29.7851 17.5654C29.9667 17.0386 30.3682 16.6916 30.6803 16.7906C30.9924 16.8896 31.1074 17.3946 30.9249 17.9214Z" fill="white"/>
</svg>
