<svg width="40" height="40" viewBox="0 0 40 40" fill="none" xmlns="http://www.w3.org/2000/svg">
<g clip-path="url(#clip0_15038_232513)">
<path d="M39.997 29.421C39.9953 31.0562 39.3404 32.624 38.1759 33.7802C37.0114 34.9365 35.4324 35.5868 33.7856 35.5884H0V11.1645C0.00161616 9.52928 0.656543 7.96152 1.82105 6.80526C2.98556 5.64901 4.5645 4.99872 6.21136 4.99712H40L39.997 29.421Z" fill="white"/>
<path d="M28.9965 23.1566H31.5634C31.6367 23.1566 31.8076 23.1323 31.8687 23.1323C32.1316 23.0791 32.3674 22.9358 32.5347 22.7275C32.7021 22.5192 32.7905 22.2592 32.7843 21.9928C32.7825 21.7284 32.6912 21.4723 32.5251 21.2657C32.3591 21.059 32.1279 20.9137 31.8687 20.8533C31.7682 20.8332 31.6658 20.8251 31.5634 20.829H28.9965V23.1566Z" fill="url(#paint0_linear_15038_232513)"/>
<path d="M31.2704 7.06084C30.0901 7.06084 28.9582 7.52637 28.1236 8.35504C27.289 9.1837 26.8202 10.3076 26.8202 11.4795V16.0679H33.1048C33.2518 16.0632 33.3988 16.0713 33.5443 16.0921C34.9636 16.1649 36.0136 16.8922 36.0136 18.156C36.0136 19.1501 35.3055 20.0017 33.9839 20.1714V20.2199C35.4276 20.3169 36.5264 21.1291 36.5264 22.3413C36.5264 23.6778 35.3055 24.5506 33.6908 24.5506H26.7958V33.5335H33.3246C33.909 33.5335 34.4877 33.4192 35.0276 33.1971C35.5675 32.975 36.0581 32.6496 36.4713 32.2393C36.8846 31.829 37.2124 31.3418 37.436 30.8057C37.6597 30.2696 37.7748 29.6951 37.7748 29.1148V7.06084H31.2704Z" fill="url(#paint1_linear_15038_232513)"/>
<path d="M32.4669 18.4469C32.471 18.1915 32.3797 17.9436 32.2106 17.7511C32.0415 17.5586 31.8066 17.4351 31.5512 17.4044C31.5024 17.4044 31.3803 17.3802 31.307 17.3802H28.9843V19.5016H31.307C31.3892 19.5083 31.472 19.5001 31.5512 19.4774C31.8045 19.4469 32.0377 19.3251 32.2065 19.1352C32.3753 18.9452 32.468 18.7003 32.4669 18.4469Z" fill="url(#paint2_linear_15038_232513)"/>
<path d="M6.67225 7.06084C5.49199 7.06084 4.36006 7.52637 3.52549 8.35504C2.69091 9.1837 2.22205 10.3076 2.22205 11.4795V22.3898C3.40905 23.0071 4.72235 23.3471 6.0618 23.3839C7.58794 23.3839 8.43341 22.4747 8.43341 21.1988V16.0497H12.2487V21.1715C12.2487 23.1626 11.0004 24.7901 6.77298 24.7901C5.22956 24.7918 3.69182 24.6045 2.19458 24.2324V33.5304H8.72338C9.90365 33.5304 11.0356 33.0649 11.8702 32.2362C12.7047 31.4076 13.1736 30.2837 13.1736 29.1118V7.06084H6.67225Z" fill="url(#paint3_linear_15038_232513)"/>
<path d="M18.9728 7.06084C17.7925 7.06084 16.6606 7.52637 15.826 8.35504C14.9914 9.1837 14.5226 10.3076 14.5226 11.4795V17.262C15.6458 16.3164 17.6023 15.7073 20.7584 15.8527C21.937 15.9269 23.1066 16.1054 24.2532 16.3861V18.256C23.2096 17.7022 22.0606 17.3718 20.8805 17.2862C18.4844 17.1165 17.0407 18.2803 17.0407 20.3169C17.0407 22.3534 18.4844 23.5445 20.8805 23.3475C22.0585 23.2504 23.2052 22.9207 24.2532 22.3777V24.2476C23.1071 24.5308 21.9373 24.7094 20.7584 24.781C17.6054 24.9265 15.6489 24.3203 14.5226 23.3717V33.5668H21.0514C22.229 33.5644 23.3577 33.0986 24.1901 32.2715C25.0225 31.4445 25.4908 30.3235 25.4924 29.1542V7.06084H18.9728Z" fill="url(#paint4_linear_15038_232513)"/>
</g>
<defs>
<linearGradient id="paint0_linear_15038_232513" x1="27.6389" y1="21.2331" x2="38.6759" y2="21.2331" gradientUnits="userSpaceOnUse">
<stop stop-color="#007940"/>
<stop offset="0.23" stop-color="#00873F"/>
<stop offset="0.74" stop-color="#40A737"/>
<stop offset="1" stop-color="#5CB531"/>
</linearGradient>
<linearGradient id="paint1_linear_15038_232513" x1="27.6389" y1="19.5379" x2="38.6655" y2="19.5379" gradientUnits="userSpaceOnUse">
<stop stop-color="#007940"/>
<stop offset="0.23" stop-color="#00873F"/>
<stop offset="0.74" stop-color="#40A737"/>
<stop offset="1" stop-color="#5CB531"/>
</linearGradient>
<linearGradient id="paint2_linear_15038_232513" x1="27.6389" y1="17.6715" x2="38.6759" y2="17.6715" gradientUnits="userSpaceOnUse">
<stop stop-color="#007940"/>
<stop offset="0.23" stop-color="#00873F"/>
<stop offset="0.74" stop-color="#40A737"/>
<stop offset="1" stop-color="#5CB531"/>
</linearGradient>
<linearGradient id="paint3_linear_15038_232513" x1="2.93332" y1="19.5242" x2="14.1393" y2="19.5242" gradientUnits="userSpaceOnUse">
<stop stop-color="#1F286F"/>
<stop offset="0.48" stop-color="#004E94"/>
<stop offset="0.83" stop-color="#0066B1"/>
<stop offset="1" stop-color="#006FBC"/>
</linearGradient>
<linearGradient id="paint4_linear_15038_232513" x1="15.2291" y1="19.5516" x2="26.1109" y2="19.5516" gradientUnits="userSpaceOnUse">
<stop stop-color="#6C2C2F"/>
<stop offset="0.17" stop-color="#882730"/>
<stop offset="0.57" stop-color="#BE1833"/>
<stop offset="0.86" stop-color="#DC0436"/>
<stop offset="1" stop-color="#E60039"/>
</linearGradient>
<clipPath id="clip0_15038_232513">
<rect width="40" height="30.5882" fill="white" transform="translate(0 5)"/>
</clipPath>
</defs>
</svg>
