<svg width="40" height="40" viewBox="0 0 40 40" fill="none" xmlns="http://www.w3.org/2000/svg">
<path fill-rule="evenodd" clip-rule="evenodd" d="M2.66667 30.6667V9.33333H37.3333V30.6667H2.66667ZM0 8.33333C0 7.41286 0.746192 6.66667 1.66667 6.66667H38.3333C39.2538 6.66667 40 7.41286 40 8.33333V31.6667C40 32.5871 39.2538 33.3333 38.3333 33.3333H1.66667C0.746193 33.3333 0 32.5871 0 31.6667V8.33333ZM13.6667 14.3333C14.403 14.3333 15 13.7364 15 13C15 12.2636 14.403 11.6667 13.6667 11.6667H6.33333C5.59695 11.6667 5 12.2636 5 13C5 13.7364 5.59695 14.3333 6.33333 14.3333H13.6667ZM25 26.3333C25 27.0697 24.403 27.6667 23.6667 27.6667H6.33333C5.59695 27.6667 5 27.0697 5 26.3333C5 25.597 5.59695 25 6.33333 25H23.6667C24.403 25 25 25.597 25 26.3333ZM31.6667 11.6667C30.7462 11.6667 30 12.4129 30 13.3333V15C30 15.9205 30.7462 16.6667 31.6667 16.6667H33.3333C34.2538 16.6667 35 15.9205 35 15V13.3333C35 12.4129 34.2538 11.6667 33.3333 11.6667H31.6667Z" fill="#1D0A43"/>
</svg>
