<svg viewBox="0 0 20 20" fill="none" xmlns="http://www.w3.org/2000/svg">
<path fill-rule="evenodd" clip-rule="evenodd" d="M9.00889 12.4338C8.99575 12.4791 8.98261 12.5198 8.97386 12.556C8.40461 14.8586 8.34331 15.3698 7.75656 16.4419C7.47631 16.9486 7.16542 17.4327 6.81512 17.8941C6.77571 17.9484 6.74068 18.0117 6.66186 17.9981C6.57429 17.98 6.56991 17.8986 6.56115 17.8308C6.4692 17.1296 6.41665 16.4284 6.43854 15.7227C6.4692 14.8043 6.57867 14.4876 7.7259 9.49785C7.74342 9.42095 7.7259 9.35762 7.69963 9.28976C7.42377 8.52523 7.37122 7.74713 7.61206 6.95546C8.13313 5.2545 9.99849 5.12331 10.3269 6.5257C10.5283 7.39427 9.99411 8.52975 9.58688 10.2126C9.24972 11.5969 10.8261 12.5831 12.1791 11.5743C13.4227 10.6424 13.9087 8.40308 13.8168 6.81974C13.6372 3.65758 10.2831 2.97448 8.15502 3.99235C5.71605 5.1595 5.15994 8.28094 6.26339 9.71047C6.40351 9.89143 6.50861 10.0045 6.46482 10.1855C6.39476 10.4705 6.32908 10.76 6.25464 11.045C6.19771 11.2576 6.02694 11.3345 5.82114 11.2486C5.41391 11.0812 5.07675 10.8098 4.80088 10.4614C3.86383 9.26261 3.59672 6.89665 4.83591 4.89259C6.20647 2.67139 8.75492 1.77567 11.0844 2.0471C13.8649 2.37281 15.6208 4.33616 15.9492 6.56189C16.0981 7.57523 15.993 10.0769 14.6137 11.8457C13.0286 13.8769 10.4583 14.0126 9.27599 12.7641C9.1709 12.66 9.10084 12.5469 9.00889 12.4338Z" fill="currentColor"/>
</svg>
