<svg viewBox="0 0 19 22" fill="none" xmlns="http://www.w3.org/2000/svg">
<path fill-rule="evenodd" clip-rule="evenodd" d="M9.05044 0.122196C9.32792 -0.0407321 9.67208 -0.0407321 9.94956 0.122196L18.5629 5.17967C18.8337 5.33869 19 5.6289 19 5.94253V16.0575C19 16.3711 18.8337 16.6613 18.5629 16.8203L9.94956 21.8778C9.67208 22.0407 9.32792 22.0407 9.05044 21.8778L0.437109 16.8203C0.166286 16.6613 0 16.3711 0 16.0575V5.94253C0 5.6289 0.166286 5.33869 0.437109 5.17967L9.05044 0.122196ZM1.77333 7.48998V15.5513L8.61333 19.5675V11.5062L6.08 10.0187V12.0647C6.08 12.5535 5.68303 12.9498 5.19333 12.9498C4.70364 12.9498 4.30667 12.5535 4.30667 12.0647V8.97747L1.77333 7.48998ZM6.94211 8.47126L9.5 9.97317L16.3646 5.94253L13.8067 4.44062L6.94211 8.47126ZM12.0579 3.41379L9.5 1.91188L2.63545 5.94253L5.19333 7.44444L12.0579 3.41379ZM17.2267 7.48998L10.3867 11.5062V19.5675L17.2267 15.5513V7.48998Z" fill="currentColor"/>
</svg>
