<svg viewBox="0 0 24 24" fill="none" xmlns="http://www.w3.org/2000/svg">
<path d="M11.9998 5C8.38878 5 5.41637 7.73426 5.04001 11.2453L5.99296 10.2926C6.38352 9.90209 7.01669 9.90215 7.40717 10.2927C7.79766 10.6833 7.7976 11.3164 7.40704 11.7069L4.3497 14.7637L1.29289 11.7069C0.902369 11.3163 0.902369 10.6832 1.29289 10.2926C1.68342 9.90212 2.31658 9.90212 2.70711 10.2926L3.09573 10.6813C3.73376 6.33586 7.47722 3 11.9998 3C15.0128 3 17.6798 4.48158 19.3118 6.75155C19.6341 7.19998 19.532 7.82484 19.0835 8.14723C18.6351 8.46961 18.0102 8.36743 17.6879 7.919C16.4155 6.14925 14.3419 5 11.9998 5Z" fill="currentColor"/>
<path d="M20.8839 13.4482L21.4927 14.057C21.8832 14.4475 22.5164 14.4475 22.9069 14.057C23.2974 13.6664 23.2974 13.0333 22.9069 12.6427L19.8501 9.58594L16.7928 12.6427C16.4022 13.0332 16.4021 13.6663 16.7926 14.0569C17.1831 14.4475 17.8163 14.4475 18.2068 14.057L18.8587 13.4053C18.2081 16.5978 15.3845 19 11.9998 19C9.82866 19 7.88898 18.0127 6.60344 16.459C6.25138 16.0334 5.62102 15.9739 5.19549 16.3259C4.76997 16.678 4.71041 17.3084 5.06247 17.7339C6.71167 19.7272 9.20754 21 11.9998 21C16.4774 21 20.1913 17.7302 20.8839 13.4482Z" fill="currentColor"/>
</svg>
