<svg viewBox="0 0 20 20" fill="none" xmlns="http://www.w3.org/2000/svg">
<path d="M18.125 6.5625V9.6875C18.125 9.85326 18.0592 10.0122 17.9419 10.1294C17.8247 10.2467 17.6658 10.3125 17.5 10.3125C16.1944 10.3159 14.9076 10.0023 13.75 9.39844V12.1875C13.7501 13.3171 13.4281 14.4233 12.8216 15.3762C12.2151 16.3292 11.3493 17.0893 10.3259 17.5675C9.30256 18.0457 8.16401 18.222 7.04394 18.0758C5.92386 17.9296 4.86873 17.4669 4.00239 16.742C3.13606 16.0172 2.49447 15.0602 2.15292 13.9835C1.81138 12.9068 1.78405 11.755 2.07416 10.6633C2.36426 9.57164 2.95976 8.58535 3.79075 7.82023C4.62174 7.05511 5.65374 6.54291 6.76562 6.34375C6.85484 6.32774 6.94646 6.33133 7.03415 6.35426C7.12184 6.3772 7.20349 6.41893 7.27344 6.47656C7.34554 6.53476 7.40343 6.60864 7.44269 6.69257C7.48195 6.77651 7.50155 6.86829 7.5 6.96094V10.2109C7.50033 10.3293 7.46663 10.4452 7.40292 10.545C7.3392 10.6447 7.24815 10.724 7.14063 10.7734C6.8884 10.8936 6.673 11.0791 6.51685 11.3108C6.3607 11.5425 6.26952 11.8117 6.2528 12.0906C6.23609 12.3695 6.29445 12.6477 6.4218 12.8964C6.54916 13.1451 6.74085 13.355 6.97692 13.5044C7.21299 13.6538 7.4848 13.7372 7.76404 13.7459C8.04328 13.7545 8.31973 13.6882 8.56461 13.5537C8.80949 13.4192 9.01384 13.2215 9.15636 12.9813C9.29889 12.741 9.37439 12.4669 9.375 12.1875V2.1875C9.375 2.02174 9.44085 1.86277 9.55806 1.74556C9.67527 1.62835 9.83424 1.5625 10 1.5625H13.125C13.2908 1.5625 13.4497 1.62835 13.5669 1.74556C13.6842 1.86277 13.75 2.02174 13.75 2.1875C13.75 3.18206 14.1451 4.13589 14.8483 4.83915C15.5516 5.54241 16.5054 5.9375 17.5 5.9375C17.6658 5.9375 17.8247 6.00335 17.9419 6.12056C18.0592 6.23777 18.125 6.39674 18.125 6.5625Z" fill="currentColor"/>
</svg>
