<svg viewBox="0 0 20 20" fill="none" xmlns="http://www.w3.org/2000/svg">
<path d="M17.9293 4.55995C17.4194 4.7877 16.8611 4.92362 16.3102 5.01545C16.5707 4.97137 16.9541 4.50852 17.1067 4.3175C17.3412 4.03097 17.5347 3.70404 17.6427 3.35139C17.6576 3.322 17.6687 3.28895 17.639 3.26691C17.6055 3.25221 17.5794 3.25956 17.5534 3.27425C16.9429 3.59751 16.3102 3.83261 15.6365 3.99792C15.5807 4.01261 15.5397 3.99791 15.5025 3.96485C15.4467 3.90241 15.3946 3.84363 15.335 3.79588C15.0522 3.5571 14.747 3.36976 14.4045 3.23384C13.9542 3.05385 13.4629 2.9767 12.979 3.00609C12.5063 3.03548 12.0448 3.16772 11.6279 3.38445C11.2073 3.60119 10.8351 3.90241 10.5374 4.2624C10.2284 4.63709 10.0014 5.08157 9.886 5.55177C9.77434 6.0036 9.78179 6.45176 9.8525 6.91094C9.86367 6.98808 9.85623 6.99543 9.78551 6.98808C7.15032 6.60237 4.96549 5.66932 3.19381 3.67833C3.11565 3.59016 3.07471 3.59017 3.01143 3.68568C2.23725 4.83178 2.61318 6.67584 3.5809 7.58318C3.71117 7.7044 3.84144 7.82562 3.9866 7.93582C3.93449 7.94685 3.29059 7.87705 2.71367 7.58318C2.63551 7.53542 2.59829 7.56113 2.59085 7.6493C2.5834 7.77419 2.59457 7.88807 2.61318 8.02031C2.76206 9.18479 3.57718 10.2611 4.69751 10.6799C4.8315 10.735 4.97666 10.7827 5.12182 10.8084C4.86872 10.8635 4.60446 10.9039 3.87494 10.8452C3.78561 10.8268 3.74839 10.8746 3.78561 10.9591C4.33275 12.4358 5.52007 12.8766 6.40592 13.1264C6.52502 13.1484 6.64412 13.1484 6.76323 13.1741C6.75578 13.1851 6.74834 13.1851 6.7409 13.1962C6.44686 13.6406 5.42702 13.9676 4.95061 14.1329C4.0871 14.4304 3.14543 14.5663 2.23353 14.4782C2.08837 14.4561 2.05488 14.4598 2.01766 14.4782C1.97671 14.5039 2.01393 14.537 2.0586 14.5737C2.2447 14.6949 2.4308 14.8014 2.62434 14.9043C3.20498 15.2092 3.80795 15.448 4.44069 15.6206C7.70862 16.5096 11.386 15.8557 13.8388 13.4533C15.7631 11.5652 16.4405 8.96071 16.4405 6.35258C16.4405 6.24972 16.5633 6.19462 16.634 6.13952C17.1365 5.76851 17.5385 5.32402 17.9144 4.82811C18 4.71791 18 4.61872 18 4.57832C18 4.57097 18 4.56362 18 4.56362C17.9963 4.51954 17.9926 4.53056 17.9293 4.55995Z" fill="currentColor"/>
</svg>
