<svg viewBox="0 0 20 20" fill="none" xmlns="http://www.w3.org/2000/svg">
<path d="M17.9919 6.13737C17.9232 7.66562 16.8325 9.75329 14.7292 12.4066C12.554 15.1787 10.7132 16.5632 9.20684 16.5632C8.27551 16.5632 7.48482 15.7194 6.84102 14.0318C6.40973 12.4848 5.98157 10.9378 5.55029 9.39076C5.07213 7.70312 4.55646 6.8593 4.00954 6.8593C3.88765 6.8593 3.46887 7.1062 2.75319 7.59686L2 6.64679C2.79069 5.96861 3.56888 5.2873 4.33457 4.60912C5.38778 3.7153 6.17846 3.24651 6.70663 3.19963C7.95048 3.08087 8.7193 3.91531 9.00682 5.70296C9.31622 7.62812 9.53186 8.82821 9.65062 9.297C10.01 10.894 10.4069 11.6909 10.8382 11.6909C11.1726 11.6909 11.6758 11.1753 12.3477 10.1377C13.0165 9.10011 13.3759 8.31255 13.4228 7.76875C13.5197 6.87493 13.1603 6.42489 12.3477 6.42489C11.9633 6.42489 11.5695 6.5124 11.1632 6.68429C11.9477 4.15908 13.4509 2.93398 15.6699 3.00274C17.3137 3.04962 18.0888 4.09345 17.9919 6.13737Z" fill="currentColor"/>
</svg>
