<svg viewBox="0 0 20 20" fill="none" xmlns="http://www.w3.org/2000/svg">
<path d="M10 2C5.582 2 2 5.582 2 10C2 11.5008 2.42156 12.9 3.14063 14.1003L2.07161 18L6.05469 16.9544C7.21957 17.6167 8.56433 18 10 18C14.418 18 18 14.418 18 10C18 5.582 14.418 2 10 2ZM7.26172 6.26823C7.39172 6.26823 7.52529 6.26744 7.64063 6.27344C7.78329 6.27677 7.93857 6.28722 8.08724 6.61589C8.26391 7.00655 8.64858 7.9866 8.69792 8.08594C8.74725 8.18527 8.78221 8.30229 8.71354 8.43229C8.64821 8.56563 8.61423 8.64632 8.51823 8.76432C8.4189 8.87899 8.31005 9.02141 8.22005 9.10807C8.12072 9.20741 8.01815 9.31632 8.13281 9.51432C8.24748 9.71232 8.64571 10.3614 9.23437 10.8854C9.99104 11.5614 10.6295 11.7692 10.8281 11.8685C11.0268 11.9678 11.1418 11.9523 11.2565 11.819C11.3745 11.689 11.7521 11.2429 11.8854 11.0443C12.0154 10.8456 12.1481 10.88 12.3281 10.9453C12.5108 11.0106 13.4849 11.4905 13.6836 11.5898C13.8823 11.6892 14.0125 11.7383 14.0625 11.819C14.1138 11.9023 14.1139 12.2991 13.9492 12.7617C13.7846 13.2237 12.9759 13.6705 12.6133 13.7018C12.2473 13.7358 11.9057 13.8663 10.2344 13.2083C8.21838 12.4143 6.94699 10.3495 6.84766 10.2161C6.74832 10.0861 6.04036 9.1426 6.04036 8.16927C6.04036 7.1926 6.55244 6.71429 6.73177 6.51563C6.91444 6.31696 7.12839 6.26823 7.26172 6.26823Z" fill="currentColor"/>
</svg>
